<?xml version="1.0" encoding="utf-8"?>
<!-- Generator: Adobe Illustrator 24.1.0, SVG Export Plug-In . SVG Version: 6.00 Build 0)  -->
<svg version="1.1" id="Livello_1" xmlns="http://www.w3.org/2000/svg" xmlns:xlink="http://www.w3.org/1999/xlink" x="0px" y="0px"
	 viewBox="0 0 1302.9 364.8" style="enable-background:new 0 0 1302.9 364.8;" xml:space="preserve">
<style type="text/css">
	.st0{fill:#161616;stroke:#000000;}
	.st1{fill:#161616;stroke:#161616;}
	.st2{fill:#161616;}
</style>
<path class="st0" d="M929.1,124l0.7,3.1l1.8-2.6l26-36.2l-7.3,44l-0.5,3.1l2.7-1.7l37.9-23.5L966.9,148l-1.7,2.7l3.1-0.5l44-7.3
	l-36.2,26l-2.6,1.8l3.1,0.7l43.4,10.1l-43.4,10.1l-3.1,0.7l2.6,1.8l36.2,26l-44-7.3l-3.1-0.5l1.7,2.7l23.5,37.9l-37.9-23.5l-2.7-1.7
	l0.5,3.1l7.3,44l-26-36.2l-1.8-2.6l-0.7,3.1L919,282.5l-10.1-43.4l-0.7-3.1l-1.8,2.6l-26,36.2l7.3-44l0.5-3.1l-2.7,1.7l-37.9,23.5
	l23.5-37.9l1.7-2.7l-3.1,0.5l-44,7.3l36.2-26l2.6-1.8l-3.1-0.7l-43.4-10.1l43.4-10.1l3.1-0.7l-2.6-1.8l-36.2-26l44,7.3l3.1,0.5
	l-1.7-2.7l-23.5-37.9l37.9,23.5l2.7,1.7l-0.5-3.1l-7.3-44l26,36.2l1.8,2.6l0.7-3.1L919,80.6L929.1,124z"/>
<path class="st0" d="M642.9,96.3c3.6,6.6,13.5,5.2,15-2.2c1.2-5.5,9.1-5.5,10.2,0c1.5,7.4,11.5,8.8,15,2.2c2.7-5,10.2-2.8,9.8,2.9
	c-0.6,7.5,8.5,11.7,13.8,6.3c4-4,10.6,0.2,8.6,5.5c-2.7,7,4.9,13.6,11.5,9.9c4.9-2.7,10.1,3.2,6.7,7.7c-4.6,6,0.9,14.4,8.2,12.8
	c5.5-1.2,8.8,5.9,4.2,9.3c-6.1,4.5-3.2,14.1,4.3,14.6c5.6,0.4,6.8,8.2,1.5,10.1c-7.1,2.6-7.1,12.6,0,15.2c5.3,1.9,4.2,9.7-1.5,10.1
	c-7.5,0.5-10.3,10.1-4.3,14.6c4.5,3.4,1.3,10.5-4.2,9.3c-7.4-1.7-12.8,6.8-8.2,12.8c3.4,4.5-1.8,10.5-6.7,7.7
	c-6.6-3.7-14.2,2.9-11.5,9.9c2,5.3-4.6,9.5-8.6,5.5c-5.3-5.4-14.4-1.2-13.8,6.3c0.4,5.6-7.1,7.9-9.8,2.9c-3.6-6.6-13.5-5.2-15,2.2
	c-1.2,5.5-9.1,5.5-10.2,0c-1.6-7.4-11.5-8.8-15-2.2c-2.7,5-10.2,2.8-9.8-2.9c0.6-7.5-8.5-11.7-13.8-6.3c-4,4-10.6-0.2-8.6-5.5
	c2.7-7-4.9-13.6-11.5-9.9c-4.9,2.7-10.1-3.2-6.7-7.7c4.6-6-0.9-14.4-8.2-12.8c-5.5,1.2-8.8-5.9-4.2-9.3c6.1-4.5,3.2-14.1-4.3-14.6
	c-5.6-0.4-6.8-8.2-1.5-10.1c7.1-2.6,7.1-12.6,0-15.2c-5.3-1.9-4.2-9.7,1.5-10.1c7.5-0.5,10.3-10.1,4.3-14.6
	c-4.5-3.4-1.3-10.5,4.2-9.3c7.4,1.7,12.8-6.8,8.2-12.8c-3.4-4.5,1.8-10.5,6.7-7.7c6.6,3.7,14.2-2.9,11.5-9.9c-2-5.3,4.6-9.5,8.6-5.5
	c5.3,5.4,14.4,1.2,13.8-6.3C632.7,93.5,640.3,91.3,642.9,96.3z"/>
<rect x="103.8" y="114.7" transform="matrix(0.9075 -0.4201 0.4201 0.9075 -62.702 91.9648)" class="st0" width="147.4" height="147.4"/>
<path class="st1" d="M1064,194.9l144.2-99.8l14.3,174.8L1064,194.9z"/>
<ellipse transform="matrix(0.7002 -0.7139 0.7139 0.7002 -3.4444 354.9294)" class="st2" cx="420.9" cy="181.6" rx="67.4" ry="104.8"/>
</svg>
