<svg width="499" height="500" viewBox="0 0 499 500" fill="none" xmlns="http://www.w3.org/2000/svg">
<path d="M249.5 0L276.271 115.142L344.98 19.0301L325.738 135.673L425.923 73.2233L363.598 173.609L480.008 154.329L384.088 223.175L499 250L384.088 276.825L480.008 345.671L363.598 326.391L425.923 426.777L325.738 364.327L344.98 480.97L276.271 384.858L249.5 500L222.729 384.858L154.02 480.97L173.262 364.327L73.0769 426.777L135.402 326.391L18.9921 345.671L114.912 276.825L0 250L114.912 223.175L18.9921 154.329L135.402 173.609L73.0769 73.2233L173.262 135.673L154.02 19.0301L222.729 115.142L249.5 0Z" fill="#A582FB"/>
<path d="M276 227.4C276 218.2 269.1 204.9 245.7 204.9C213.5 204.9 212 234.1 212 234.1L225.4 238.1C225.4 238.1 222.5 214.8 245.7 214.8C257 214.8 262.3 221.7 262.3 228.5C262.3 245.3 237.4 241 237.4 260H248.4C248.4 245.5 276 245.6 276 227.4ZM236.4 284H249.4V269.5H236.4V284Z" fill="#F2F2F2"/>
</svg>
