<svg width="499" height="501" viewBox="0 0 499 501" fill="none" xmlns="http://www.w3.org/2000/svg">
<path d="M249.5 0.796875L276.271 115.939L344.98 19.827L325.738 136.47L425.923 74.0202L363.598 174.406L480.008 155.126L384.088 223.972L499 250.797L384.088 277.622L480.008 346.468L363.598 327.188L425.923 427.574L325.738 365.124L344.98 481.767L276.271 385.655L249.5 500.797L222.729 385.655L154.02 481.767L173.262 365.124L73.0769 427.574L135.402 327.188L18.9921 346.468L114.912 277.622L0 250.797L114.912 223.972L18.9921 155.126L135.402 174.406L73.0769 74.0202L173.262 136.47L154.02 19.827L222.729 115.939L249.5 0.796875Z" fill="#F980E6"/>
<path d="M276 228.197C276 218.997 269.1 205.697 245.7 205.697C213.5 205.697 212 234.897 212 234.897L225.4 238.897C225.4 238.897 222.5 215.597 245.7 215.597C257 215.597 262.3 222.497 262.3 229.297C262.3 246.097 237.4 241.797 237.4 260.797H248.4C248.4 246.297 276 246.397 276 228.197ZM236.4 284.797H249.4V270.297H236.4V284.797Z" fill="#151515"/>
</svg>
