<svg width="372" height="372" viewBox="0 0 372 372" fill="none" xmlns="http://www.w3.org/2000/svg">
<path d="M185.674 0.75293L205.574 86.172L256.648 14.8706L242.345 101.403L316.817 55.0742L270.489 129.546L357.021 115.243L285.72 166.317L371.139 186.218L285.72 206.118L357.021 257.192L270.489 242.889L316.817 317.361L242.345 271.032L256.648 357.564L205.574 286.263L185.674 371.682L165.774 286.263L114.7 357.564L129.003 271.032L54.5308 317.361L100.86 242.889L14.3271 257.192L85.6285 206.118L0.209473 186.218L85.6285 166.317L14.3271 115.243L100.86 129.546L54.5308 55.0742L129.003 101.403L114.7 14.8706L165.774 86.172L185.674 0.75293Z" fill="#151515"/>
<path d="M200.314 179.474C200.314 172.514 195.274 167.234 185.338 167.234C175.306 167.234 170.554 173.618 170.554 179.33C170.554 185.666 175.114 189.218 175.114 189.218L181.546 187.346C181.546 187.346 176.986 184.562 176.986 179.57C176.986 175.538 179.386 171.986 185.194 171.986C191.194 171.986 193.738 175.49 193.738 179.666C193.738 191.858 170.314 201.602 170.314 201.602V205.202H201.034V201.122H179.914C185.386 197.666 200.314 190.946 200.314 179.474Z" fill="#F2F2F2"/>
</svg>
