<svg width="372" height="372" viewBox="0 0 372 372" fill="none" xmlns="http://www.w3.org/2000/svg">
<path d="M186.138 0.936523L206.038 86.3556L257.112 15.0542L242.809 101.587L317.281 55.2578L270.953 129.73L357.485 115.427L286.184 166.501L371.603 186.401L286.184 206.301L357.485 257.375L270.953 243.072L317.281 317.544L242.809 271.216L257.112 357.748L206.038 286.447L186.138 371.866L166.238 286.447L115.164 357.748L129.467 271.216L54.9947 317.544L101.324 243.072L14.791 257.375L86.0925 206.301L0.673401 186.401L86.0925 166.501L14.791 115.427L101.324 129.73L54.9947 55.2578L129.467 101.587L115.164 15.0542L166.238 86.3556L186.138 0.936523Z" fill="#151515"/>
<path d="M201.498 205.049V200.969H191.418V167.753H185.178C185.178 175.049 180.33 177.257 170.778 177.257V182.009C182.682 182.009 185.13 179.033 185.13 171.833L185.178 200.969H170.778V205.049H201.498Z" fill="#F2F2F2"/>
</svg>
