<svg width="560" height="560" viewBox="0 0 560 560" fill="none" xmlns="http://www.w3.org/2000/svg">
<path d="M311.638 32.0378L323.402 149.664L403.883 63.1707L369.823 176.377L477.198 127.309L402.499 218.861L520.42 214.688L416.454 270.647L526.97 312.006L409.565 323.853L495.85 404.446L382.88 370.378L431.799 477.935L340.462 403.138L344.566 521.286L288.768 417.147L247.434 527.898L235.669 410.272L155.188 496.766L189.248 383.559L81.8735 432.627L156.573 341.075L38.6511 345.248L142.617 289.289L32.1012 247.93L149.506 236.083L63.2209 155.49L176.191 189.558L127.273 82.0008L218.609 156.798L214.505 38.65L270.303 142.789L311.638 32.0378Z" fill="#FD3C3E"/>
<path d="M314.682 259.989C315.864 250.865 310.729 236.789 287.522 233.785C255.589 229.65 250.352 258.415 250.352 258.415L263.127 264.103C263.127 264.103 263.243 240.623 286.251 243.603C297.458 245.054 301.828 252.577 300.955 259.321C298.797 275.982 274.656 268.52 272.216 287.363L283.125 288.775C284.987 274.395 312.345 278.038 314.682 259.989ZM268.142 311.035L281.035 312.705L282.897 298.325L270.004 296.656L268.142 311.035Z" fill="#151515"/>
</svg>
