<svg width="372" height="372" viewBox="0 0 372 372" fill="none" xmlns="http://www.w3.org/2000/svg">
<path d="M185.674 0.75293L205.574 86.172L256.648 14.8706L242.345 101.403L316.817 55.0742L270.489 129.546L357.021 115.243L285.72 166.317L371.139 186.218L285.72 206.118L357.021 257.192L270.489 242.889L316.817 317.361L242.345 271.032L256.648 357.564L205.574 286.263L185.674 371.682L165.774 286.263L114.7 357.564L129.003 271.032L54.5308 317.361L100.86 242.889L14.3271 257.192L85.6285 206.118L0.209473 186.218L85.6285 166.317L14.3271 115.243L100.86 129.546L54.5308 55.0742L129.003 101.403L114.7 14.8706L165.774 86.172L185.674 0.75293Z" fill="#151515"/>
<path d="M185.29 187.778C190.81 187.778 195.658 189.218 195.658 194.21C195.658 198.53 192.01 200.786 186.25 200.786C174.826 200.786 175.546 190.754 175.546 190.754L169.114 192.626C169.114 192.626 169.594 205.538 186.394 205.538C194.842 205.538 202.234 202.082 202.234 194.258C202.234 184.994 191.914 184.85 191.338 184.85C191.866 184.85 201.274 184.658 201.274 176.69C201.274 171.266 195.61 166.898 186.97 166.898C172.474 166.898 171.082 178.514 171.082 178.514L177.514 180.434C177.514 180.434 176.842 171.65 186.73 171.65C191.53 171.65 194.698 174.098 194.698 177.554C194.698 181.394 190.954 183.698 185.29 183.698H182.89V187.778H185.29Z" fill="#F2F2F2"/>
</svg>
