<svg width="590" height="97" viewBox="0 0 590 97" fill="none" xmlns="http://www.w3.org/2000/svg">
<path d="M90.7 60H94.6V49.59H107.44V47.04H94.6V39.24H108.28V36.69H90.7V60ZM111.589 60H115.489V55.65H111.589V60ZM142.626 60H146.796L135.996 36.69H129.576L118.776 60H122.916L126.246 52.59H139.296L142.626 60ZM132.276 39.24H133.326L138.156 50.04H127.416L132.276 39.24ZM150.085 60H153.985V55.65H150.085V60ZM183.762 45.93C183.762 45.93 182.802 36.27 171.462 36.27C163.182 36.27 158.472 41.34 158.472 48.36C158.472 55.35 163.482 60.42 171.762 60.42C183.462 60.42 184.392 51.21 184.392 51.21L180.372 50.04C180.372 50.04 180.192 57.45 171.762 57.45C166.122 57.45 162.582 53.49 162.582 48.36C162.582 43.2 165.822 39.24 171.462 39.24C179.442 39.24 179.742 47.13 179.742 47.13L183.762 45.93ZM188.903 60H192.803V55.65H188.903V60ZM195.49 39.24H205.39V60H209.2V39.24H219.1V36.69H195.49V39.24ZM221.804 60H225.704V55.65H221.804V60Z" fill="#151515"/>
<path d="M458.716 26.5996L458.967 27.6749L459.61 26.7773L468.687 14.1053L466.145 29.4842L465.965 30.5735L466.902 29.9903L480.138 21.7566L471.904 34.9921L471.321 35.9296L472.41 35.7495L487.789 33.2075L475.117 42.2846L474.22 42.9276L475.295 43.1781L490.476 46.7148L475.295 50.2516L474.22 50.5021L475.117 51.1451L487.789 60.2222L472.41 57.6802L471.321 57.5001L471.904 58.4376L480.138 71.6731L466.902 63.4394L465.965 62.8562L466.145 63.9454L468.687 79.3244L459.61 66.6524L458.967 65.7548L458.716 66.8301L455.18 82.0112L451.643 66.8301L451.392 65.7548L450.749 66.6524L441.672 79.3244L444.214 63.9454L444.394 62.8562L443.457 63.4394L430.221 71.6731L438.455 58.4376L439.038 57.5001L437.949 57.6802L422.57 60.2222L435.242 51.1451L436.14 50.5021L435.064 50.2516L419.883 46.7148L435.064 43.1781L436.14 42.9276L435.242 42.2846L422.57 33.2075L437.949 35.7495L439.038 35.9296L438.455 34.9921L430.221 21.7566L443.457 29.9903L444.394 30.5735L444.214 29.4842L441.672 14.1053L450.749 26.7773L451.392 27.6749L451.643 26.5996L455.18 11.4185L458.716 26.5996Z" fill="#151515" stroke="black"/>
<path d="M363.893 16.1408C364.3 14.2077 367.06 14.2077 367.466 16.1408C368.008 18.7195 371.473 19.2177 372.72 16.8962C373.655 15.1559 376.303 15.9335 376.148 17.9028C375.942 20.5298 379.126 21.9841 380.977 20.1079C382.364 18.7014 384.686 20.1935 383.982 22.0395C383.044 24.502 385.69 26.7945 387.994 25.5156C389.721 24.5569 391.528 26.6426 390.334 28.2157C388.74 30.3142 390.633 33.2593 393.204 32.6813C395.131 32.248 396.277 34.7584 394.688 35.9312C392.567 37.4956 393.554 40.8546 396.183 41.0243C398.154 41.1516 398.547 43.8833 396.692 44.5607C394.216 45.4644 394.216 48.9653 396.692 49.8689C398.547 50.5464 398.154 53.2781 396.183 53.4053C393.554 53.575 392.567 56.9341 394.688 58.4985C396.277 59.6713 395.131 62.1817 393.204 61.7484C390.633 61.1704 388.74 64.1155 390.334 66.214C391.528 67.7871 389.721 69.8728 387.994 68.9141C385.69 67.6351 383.044 69.9277 383.982 72.3902C384.686 74.2362 382.364 75.7283 380.977 74.3218C379.126 72.4456 375.942 73.8999 376.148 76.5269C376.303 78.4962 373.655 79.2738 372.72 77.5335C371.473 75.2119 368.008 75.7102 367.466 78.2889C367.06 80.222 364.3 80.222 363.893 78.2889C363.351 75.7102 359.886 75.2119 358.639 77.5335C357.705 79.2738 355.056 78.4962 355.211 76.5269C355.417 73.8999 352.233 72.4456 350.383 74.3218C348.996 75.7283 346.674 74.2362 347.377 72.3902C348.315 69.9277 345.669 67.6351 343.365 68.9141C341.638 69.8728 339.831 67.7871 341.026 66.214C342.619 64.1155 340.727 61.1704 338.156 61.7484C336.229 62.1817 335.082 59.6713 336.672 58.4985C338.792 56.9341 337.806 53.575 335.176 53.4053C333.205 53.2781 332.812 50.5464 334.668 49.8689C337.143 48.9653 337.143 45.4644 334.668 44.5607C332.812 43.8833 333.205 41.1516 335.176 41.0243C337.806 40.8546 338.792 37.4956 336.672 35.9312C335.082 34.7584 336.229 32.248 338.156 32.6813C340.727 33.2593 342.619 30.3142 341.026 28.2157C339.831 26.6426 341.638 24.5569 343.365 25.5156C345.669 26.7945 348.315 24.502 347.377 22.0395C346.674 20.1935 348.996 18.7014 350.383 20.1079C352.233 21.9841 355.417 20.5298 355.211 17.9028C355.056 15.9335 357.705 15.1559 358.639 16.8962C359.886 19.2177 363.351 18.7195 363.893 16.1408Z" fill="#151515" stroke="black"/>
<rect x="0.663781" y="36.5258" width="51.5324" height="51.5324" transform="rotate(-24.839 0.663781 36.5258)" fill="#151515" stroke="black"/>
<path d="M505.866 51.3622L556.28 16.464L561.296 77.5725L505.866 51.3622Z" fill="#151515" stroke="#151515"/>
<ellipse cx="280.998" cy="46.7148" rx="36.657" ry="23.577" transform="rotate(44.4436 280.998 46.7148)" fill="#151515"/>
</svg>
