<?xml version="1.0" encoding="utf-8"?>
<!-- Generator: Adobe Illustrator 24.2.1, SVG Export Plug-In . SVG Version: 6.00 Build 0)  -->
<svg version="1.1" id="Livello_1" xmlns="http://www.w3.org/2000/svg" xmlns:xlink="http://www.w3.org/1999/xlink" x="0px" y="0px"
	 viewBox="0 0 1320 500" style="enable-background:new 0 0 1320 500;" xml:space="preserve">
<style type="text/css">
	.st0{fill:#F2F2F2;stroke:#151515;stroke-width:3;}
</style>
<g id="Livello_1">
<g id="concl_1">

		<rect x="883" y="63.2" transform="matrix(0.9075 -0.4201 0.4201 0.9075 -6.0277 472.4481)" class="st0" width="373.4" height="373.4"/>
	<path d="M947.5,252.8c0,0-1.2-11.6-14.8-11.6c-9.9,0-15.6,6.1-15.6,14.5c0,8.4,6,14.5,15.9,14.5c14,0,15.2-11.1,15.2-11.1l-4.8-1.4
		c0,0-0.2,8.9-10.3,8.9c-6.8,0-11-4.8-11-10.9c0-6.2,3.9-10.9,10.7-10.9c9.6,0,9.9,9.5,9.9,9.5L947.5,252.8z M985.3,255.7
		c0-8.4-6.4-14.5-16.3-14.5c-9.9,0-16.3,6.1-16.3,14.5c0,8.4,6.4,14.5,16.3,14.5C978.9,270.2,985.3,264.1,985.3,255.7z M980.4,255.7
		c0,6.2-4.6,10.9-11.4,10.9c-6.8,0-11.4-4.8-11.4-10.9c0-6.2,4.6-10.9,11.4-10.9C975.7,244.8,980.4,249.6,980.4,255.7z
		 M1017.7,241.7h-4.7v23.1l-16.6-23.1h-5.8v28h4.7v-23.1l16.6,23.1h5.8V241.7z M1053.5,252.8c0,0-1.2-11.6-14.8-11.6
		c-9.9,0-15.6,6.1-15.6,14.5c0,8.4,6,14.5,15.9,14.5c14,0,15.2-11.1,15.2-11.1l-4.8-1.4c0,0-0.2,8.9-10.3,8.9c-6.8,0-11-4.8-11-10.9
		c0-6.2,3.9-10.9,10.7-10.9c9.6,0,9.9,9.5,9.9,9.5L1053.5,252.8z M1059.6,269.7h20.7v-3.1h-16v-24.9h-4.7V269.7z M1105.4,241.7v16.4
		c0,7.3-3.3,8.5-8.6,8.5c-5.3,0-8.6-1.2-8.6-8.5v-16.4h-4.7v16.4c0,8.1,4.5,12.1,13.2,12.1c8.8,0,13.2-4,13.2-12.1v-16.4H1105.4z
		 M1125.8,252.6c-3.1-0.7-4.9-1.6-4.9-3.7c0-2.4,2.4-4,6.2-4c8.4,0,7.9,6.1,7.9,6.1l4.8-1.3c0,0-0.3-8.4-12.5-8.4
		c-7.8,0-11.3,3.8-11.3,8c0,3.3,2.3,6,7.1,7.1l6.8,1.6c4.1,1,6.3,1.8,6.3,4.5c0,2.3-2.7,4.2-7.2,4.2c-10.4,0-9.5-7.8-9.5-7.8
		l-4.8,1.4c0.2,3.8,3.5,10,14.4,10c6.8,0,12-2.7,12-8c0-3.6-2.1-6.7-8.2-8.1L1125.8,252.6z M1145.9,241.7v28h4.7v-28H1145.9z
		 M1188.6,255.7c0-8.4-6.4-14.5-16.3-14.5s-16.3,6.1-16.3,14.5c0,8.4,6.4,14.5,16.3,14.5S1188.6,264.1,1188.6,255.7z M1183.7,255.7
		c0,6.2-4.6,10.9-11.4,10.9c-6.8,0-11.4-4.8-11.4-10.9c0-6.2,4.6-10.9,11.4-10.9C1179.1,244.8,1183.7,249.6,1183.7,255.7z
		 M1221,241.7h-4.7v23.1l-16.6-23.1h-5.8v28h4.7v-23.1l16.6,23.1h5.8V241.7z"/>
</g>
<g id="concl_2">
		<rect x="171.2" y="41.3" transform="matrix(0.3648 -0.9311 0.9311 0.3648 -21.4744 468.3393)" class="st0" width="322.6" height="417.3"/>
	<path d="M243,226h5l-13-28h-7.7l-13,28h5l4-8.9H239L243,226z M230.6,201.1h1.3l5.8,13h-12.9L230.6,201.1z M279,198h-4.7v23.1
		L257.7,198h-5.8v28h4.7v-23.1l16.6,23.1h5.8V198z M317,212c0-8.4-6.4-14.5-16.3-14.5s-16.3,6.1-16.3,14.5c0,8.4,6.4,14.5,16.3,14.5
		S317,220.4,317,212z M312.1,212c0,6.2-4.6,10.9-11.4,10.9c-6.8,0-11.4-4.8-11.4-10.9c0-6.2,4.6-10.9,11.4-10.9
		C307.5,201.1,312.1,205.8,312.1,212z M316.6,201.1h11.9V226h4.6v-24.9H345V198h-28.3V201.1z M370.5,226h4.7v-28h-4.7v12.4h-17.6
		V198h-4.7v28h4.7v-12.5h17.6V226z M381.7,226h22.1v-3.1h-17.5v-9.4h15.4v-3.1h-15.4v-9.4h16.4V198h-21.1V226z M408.5,198v28h4.7
		v-12.8h4.7c5.9,0,7.8,1.2,8.6,4.3c1.5,6.4,1.8,7.8,2.4,8.5h4.9c-0.5-0.7-0.9-1.9-2.8-9.3c-0.8-3.2-3.8-4.5-6.4-4.8
		c4.9,0,8.5-2.1,8.5-6.3c0-5.1-3.9-7.6-12.6-7.6H408.5z M413.2,210.1v-9h7.2c4.3,0,7.6,0.9,7.6,4.5c0,3.6-3.3,4.5-7.6,4.5H413.2z
		 M214,268.1c0,0-1.2-11.6-14.8-11.6c-9.9,0-15.6,6.1-15.6,14.5c0,8.4,6,14.5,15.9,14.5c14,0,15.2-11.1,15.2-11.1l-4.8-1.4
		c0,0-0.2,8.9-10.3,8.9c-6.8,0-11-4.8-11-10.9c0-6.2,3.9-10.9,10.7-10.9c9.6,0,9.9,9.5,9.9,9.5L214,268.1z M251.7,271
		c0-8.4-6.4-14.5-16.3-14.5c-9.9,0-16.3,6.1-16.3,14.5c0,8.4,6.4,14.5,16.3,14.5C245.3,285.5,251.7,279.4,251.7,271z M246.8,271
		c0,6.2-4.6,10.9-11.4,10.9c-6.8,0-11.4-4.8-11.4-10.9c0-6.2,4.6-10.9,11.4-10.9C242.2,260.1,246.8,264.8,246.8,271z M284.1,257
		h-4.7v23.1L262.9,257h-5.8v28h4.7v-23.1l16.6,23.1h5.8V257z M299.9,267.9c-3.1-0.7-4.9-1.6-4.9-3.7c0-2.4,2.4-4,6.2-4
		c8.4,0,7.9,6.1,7.9,6.1l4.8-1.3c0,0-0.3-8.4-12.5-8.4c-7.8,0-11.3,3.8-11.3,8c0,3.3,2.3,6,7.1,7.1l6.8,1.6c4.1,1,6.3,1.8,6.3,4.5
		c0,2.3-2.7,4.2-7.2,4.2c-10.4,0-9.5-7.8-9.5-7.8l-4.8,1.4c0.2,3.8,3.5,10,14.4,10c6.8,0,12-2.7,12-8c0-3.6-2.1-6.7-8.2-8.1
		L299.9,267.9z M319.9,257v28h4.7v-12.8h7.2c8.6,0,12.6-2.4,12.6-7.6c0-5.1-3.9-7.6-12.6-7.6H319.9z M324.6,269.1v-9h7.2
		c4.3,0,7.6,0.9,7.6,4.5c0,3.6-3.3,4.5-7.6,4.5H324.6z M348.3,257v28h4.7v-28H348.3z M359.5,257v28h4.7v-12.8h4.7
		c5.9,0,7.8,1.2,8.6,4.3c1.5,6.4,1.8,7.8,2.4,8.5h4.9c-0.5-0.7-0.9-1.9-2.8-9.3c-0.8-3.2-3.8-4.5-6.4-4.8c4.9,0,8.5-2.1,8.5-6.3
		c0-5.1-3.9-7.6-12.6-7.6H359.5z M364.2,269.1v-9h7.2c4.3,0,7.6,0.9,7.6,4.5c0,3.6-3.3,4.5-7.6,4.5H364.2z M416.1,285h5l-13-28h-7.7
		l-13,28h5l4-8.9h15.7L416.1,285z M403.7,260.1h1.3l5.8,13h-12.9L403.7,260.1z M454.4,268.1c0,0-1.2-11.6-14.8-11.6
		c-9.9,0-15.6,6.1-15.6,14.5c0,8.4,6,14.5,15.9,14.5c14,0,15.2-11.1,15.2-11.1l-4.8-1.4c0,0-0.2,8.9-10.3,8.9c-6.8,0-11-4.8-11-10.9
		c0-6.2,3.9-10.9,10.7-10.9c9.6,0,9.9,9.5,9.9,9.5L454.4,268.1z M466,271.4V285h4.7v-13.6l12.6-14.4h-5.4l-9.6,10.9l-9.6-10.9h-5.4
		L466,271.4z"/>
</g>
</g>
</svg>
