<svg id="Layer_1" data-name="Layer 1" xmlns="http://www.w3.org/2000/svg" viewBox="0 0 1160 1161">
  <ellipse cx="579.70271" cy="580.49468" rx="443.29572" ry="690.89342" transform="translate(-240.68073 579.93468) rotate(-45)" fill="#f2f2f2"/>
  <g style="isolation: isolate">
    <g style="isolation: isolate">
      <path d="M418.15479,398.66963c24.00146,0,34.90234,6.70118,34.90234,21.002,0,11.90039-10.00049,17.60058-23.50147,17.60058,7.3003.90039,15.501,4.30078,17.80079,13.30078,5.30078,20.40137,6.20068,23.80176,7.70068,25.80176h-13.501c-1.5-2-2.3999-5.90039-6.6001-23.60156-2.10009-8.80078-7.30078-12.001-23.80175-12.001H398.15381v35.60254h-13.001V398.66963Zm0,33.60254c12.001,0,21.20166-2.60058,21.20166-12.60058,0-10.001-9.20069-12.501-21.20166-12.501h-20.001v25.10156Z"/>
      <path d="M470.05273,398.66963h12.001v9.60059h-12.001Zm0,22.20215h12.001v55.50293h-12.001Z"/>
      <path d="M518.15234,457.37374c-3.10009.39941-7.30029,1.7998-7.30029,6,0,3.60058,2.8999,5.501,8.60059,5.501h19.001c17.30127,0,22.30127,7.40039,22.30127,14.90039,0,9.90039-8.60058,15.90137-29.40185,15.90137H518.35254c-18.501,0-22.30127-7.40039-22.30127-12.60156,0-7.2002,7.80029-11.40039,17.40088-11.40039,0,0-15.40088-.39942-15.40088-9.90039,0-7.501,10.70068-9.2002,15.40088-9.60059-10.10059-3.2002-14.60108-10.10059-14.60108-17.30078,0-10.001,8.60059-19.40137,28.60205-19.40137,8.8003,0,15.40088,1.79981,20.001,4.7002-4.80029-8.60059-1.20019-14.70118,12.90088-12.90039l2.40039,8.90039c-10.70068-1.90039-14.70117,2.89941-11.40088,7.20019a16.19012,16.19012,0,0,1,4.7002,11.501c0,10-8.60059,19.30078-28.30176,19.30078A54.70452,54.70452,0,0,1,518.15234,457.37374Zm2.40039,19.001s-11.60107,0-11.60107,8.7002c0,6.30078,4.90039,8.501,19.90137,8.501,13.20068,0,19.00146-2.20019,19.00146-8.501,0-4.2002-2.60058-6.79981-10.30078-7.40039Zm6.90039-25.70117c11.60059,0,15.70069-5.70117,15.70069-11.80078,0-6.30078-4.1001-11.90137-15.70069-11.90137s-15.80126,5.60059-15.80126,11.90137C511.65186,444.97237,515.85254,450.67354,527.45312,450.67354Z"/>
      <path d="M590.85156,457.37374c-3.09961.39941-7.30078,1.7998-7.30078,6,0,3.60058,2.90039,5.501,8.60156,5.501h19c17.30176,0,22.30176,7.40039,22.30176,14.90039,0,9.90039-8.60058,15.90137-29.40137,15.90137h-13.001c-18.501,0-22.30127-7.40039-22.30127-12.60156,0-7.2002,7.80029-11.40039,17.40088-11.40039,0,0-15.40088-.39942-15.40088-9.90039,0-7.501,10.70068-9.2002,15.40088-9.60059-10.10059-3.2002-14.60108-10.10059-14.60108-17.30078,0-10.001,8.6001-19.40137,28.602-19.40137,8.80078,0,15.40039,1.79981,20.001,4.7002-4.7998-8.60059-1.2002-14.70118,12.90137-12.90039l2.40039,8.90039c-10.70117-1.90039-14.70117,2.89941-11.40137,7.20019a16.19012,16.19012,0,0,1,4.7002,11.501c0,10-8.60059,19.30078-28.30176,19.30078A54.70443,54.70443,0,0,1,590.85156,457.37374Zm2.40039,19.001s-11.60156,0-11.60156,8.7002c0,6.30078,4.90039,8.501,19.90234,8.501,13.2002,0,19.001-2.20019,19.001-8.501,0-4.2002-2.60059-6.79981-10.30078-7.40039Zm6.90039-25.70117c11.60059,0,15.70118-5.70117,15.70118-11.80078,0-6.30078-4.10059-11.90137-15.70118-11.90137s-15.80078,5.60059-15.80078,11.90137C584.35156,444.97237,588.55176,450.67354,600.15234,450.67354Z"/>
      <path d="M673.252,477.7751c-16.20117,0-30.80273-10.40136-30.80273-29.20215,0-16.60058,11.20117-29.10156,30.80273-29.10156,31.20117,0,28.40137,30.60156,28.40137,30.60156l-46.40332-1c.2002,12.70118,8.40039,19.80176,19.50195,19.80176,16,0,16-14.60156,16-14.60156l12.40137,3.60059S699.65332,477.7751,673.252,477.7751Zm-.70117-49.40332c-9.2998,0-15.09961,5.80078-16.80078,14.60059l33.20312-.5S688.252,428.37178,672.55078,428.37178Z"/>
      <path d="M762.85156,399.77022a71.44663,71.44663,0,0,0,12-1.10059v77.70508h-6.7998L764.252,463.17354s-3.70117,14.60156-21.30175,14.60156c-16.60059,0-27.80176-12.10058-27.80176-29.10254,0-17.001,11.20117-29.20117,27.80176-29.20117,15.001,0,19.90136,11.7002,19.90136,11.7002Zm2.5,48.90234c0-11-6.60058-20.30078-18.60156-20.30078-11.80078,0-18.80078,8.30078-18.80078,20.30078,0,12.001,7,20.20215,18.80078,20.20215C758.751,468.87471,765.35156,459.67354,765.35156,448.67256Z"/>
      <path d="M270.3584,518.66963c24.00146,0,34.90234,6.70118,34.90234,21.002s-10.90088,21.10058-34.90234,21.10058h-20.001v35.603h-13.001V518.66963Zm0,33.60254c12.001,0,21.20117-2.60058,21.20117-12.60058,0-10.001-9.20019-12.501-21.20117-12.501h-20.001v25.10156Z"/>
      <path d="M328.25586,596.3752h-12.001V540.87178h5.8003l5.10058,16.501s1.8999-17.90137,17.20069-17.90137c9.20068,0,12.10107,6.29981,12.10107,13.60059a32.82265,32.82265,0,0,1-2.00049,11.80078l-12.40039,3.60058a47.16619,47.16619,0,0,0,2.1001-12.80078c0-4.80078-1.6001-7.30078-4.90039-7.30078-7.70069,0-11.00049,11.90039-11.00049,15.10059Z"/>
      <path d="M395.25635,597.77559c-16.20117,0-30.80176-10.40234-30.80176-29.20264,0-16.60058,11.20068-29.10156,30.80176-29.10156,31.20166,0,28.40185,30.60156,28.40185,30.60156l-46.40283-1c.19971,12.70069,8.40039,19.80225,19.501,19.80225,16.001,0,16.001-14.602,16.001-14.602l12.40088,3.60059S421.6582,597.77559,395.25635,597.77559Zm-.7002-49.40381c-9.30029,0-15.10058,5.80078-16.80078,14.60059l33.20215-.5S410.25732,548.37178,394.55615,548.37178Z"/>
      <path d="M461.55469,548.37178c-8.10059,0-11.50049,3.10059-11.50049,7.10059,0,3.20019,3.6001,5.7998,11.20068,7.10058l13.60059,2.39942c12.40088,2.20019,17.001,8.10058,17.001,15.40088,0,10.70117-11.00049,17.40234-24.70118,17.40234-29.102,0-32.00195-19.90185-32.00195-19.90185l12.40039-3.60059s-1.7998,14.602,19.70117,14.602c7.50049,0,11.80078-3.30078,11.80078-7.50195,0-3.69971-2.80029-6.49951-11.60058-8.1001l-12.20069-2.2002c-12.40087-2.20019-17.001-8.2998-17.001-15.001,0-10.5,10.40039-16.60059,23.50146-16.60059,25.40137,0,27.00147,16.70117,27.00147,16.70117l-12.40088,3.59961S477.55566,548.37178,461.55469,548.37178Z"/>
      <path d="M504.85205,518.66963h12.001v9.60059h-12.001Zm0,22.20215h12.001V596.3752h-12.001Z"/>
      <path d="M579.55371,519.77022a71.45111,71.45111,0,0,0,12.001-1.10059V596.3752h-6.80078L580.9541,583.174s-3.70019,14.60156-21.30127,14.60156c-16.60107,0-27.80176-12.10156-27.80176-29.103,0-17.001,11.20069-29.20117,27.80176-29.20117,15.00049,0,19.90088,11.7002,19.90088,11.7002Zm2.501,48.90234c0-11-6.60108-20.30078-18.60157-20.30078-11.80078,0-18.80126,8.30078-18.80126,20.30078,0,12.00147,7.00048,20.20264,18.80126,20.20264C575.45361,588.8752,582.05469,579.67354,582.05469,568.67256Z"/>
      <path d="M637.35156,597.77559c-16.20117,0-30.80078-10.40234-30.80078-29.20264,0-16.60058,11.2002-29.10156,30.80078-29.10156,31.20215,0,28.40235,30.60156,28.40235,30.60156l-46.40235-1c.19922,12.70069,8.40039,19.80225,19.5,19.80225,16.002,0,16.002-14.602,16.002-14.602l12.40039,3.60059S663.75391,597.77559,637.35156,597.77559Zm-.69922-49.40381c-9.30078,0-15.10156,5.80078-16.80078,14.60059l33.20117-.5S652.35352,548.37178,636.65234,548.37178Z"/>
      <path d="M727.05273,562.17256c0-9.30078-5.70117-13.80078-15.70117-13.80078-15.10156,0-17.10156,11.60059-17.10156,15.001V596.3752h-12V540.87178h5.7998l5.10059,16.501s1.40039-17.90137,22.60156-17.90137c16.5,0,23.30078,8.5,23.30078,22.501V596.3752h-12Z"/>
      <path d="M750.04688,540.87178h12.90136V528.27022l11.501-8v20.60156H797.25v7.5H774.44922v27.90137c0,8.70166,3.2998,12.602,9.70019,12.602a13.41237,13.41237,0,0,0,12.70118-8.00195l2.39941,8.90039s-5.2998,8.00195-17.60059,8.00195c-11.90136,0-19.20117-6.30078-19.20117-20.20166V548.37178H750.04688Z"/>
      <path d="M810.24805,518.66963h12v9.60059h-12Zm0,22.20215h12V596.3752h-12Z"/>
      <path d="M892.15039,588.8752c4.90039,0,7.09961-5.00195,7.09961-5.00195l2.40039,8.90039s-3.70019,5.00195-13.001,5.00195c-6.20019,0-12.40039-3.10156-12.40039-12.90234v-9.49951s-8.001,22.40185-24.60156,22.40185c-8.20019,0-13.40137-5.30078-13.40137-12.20117,0-9.30127,8.20118-22.20166,38.00293-25.60205,0,0,1-11.60059-11.90136-11.60059-13,0-15.70118,11.2002-15.70118,11.2002l-12.40039-3.59961s5.40039-16.501,27.70215-16.501c16.60059,0,24.70117,8.90039,24.40137,20.30078L887.75,583.07442C887.64941,586.57442,888.94922,588.8752,892.15039,588.8752Zm-35.90234,0c10.59961,0,20.20117-17.80225,20.001-22.00244v-3.5c-22.30175,5.70019-25.30175,14.80078-25.30175,19.70166C850.94727,586.87325,852.94727,588.8752,856.24805,588.8752Z"/>
      <path d="M910.64648,519.77022a69.92356,69.92356,0,0,0,12-1.10059V596.3752h-12Z"/>
      <path d="M347.55371,638.67012h58.60352v8.5H360.55469v26.00195h42.80273v8.5H360.55469v26.20118h48.50293v8.50195H347.55371Z"/>
      <path d="M422.05322,639.76973a70.00286,70.00286,0,0,0,12.001-1.09961V716.3752h-12.001Z"/>
      <path d="M479.854,717.77559c-16.20117,0-30.80175-10.40234-30.80175-29.20312,0-16.59961,11.20068-29.10157,30.80175-29.10157,31.20166,0,28.40186,30.60157,28.40186,30.60157l-46.40283-1c.1997,12.70117,8.40039,19.80273,19.501,19.80273,16.001,0,16.001-14.60156,16.001-14.60156l12.40088,3.59961S506.25586,717.77559,479.854,717.77559Zm-.70019-49.4043c-9.30029,0-15.10059,5.80078-16.80078,14.60157l33.20215-.5S494.855,668.37129,479.15381,668.37129Z"/>
      <path d="M582.45508,697.87325s-3.60059,19.90234-29.90235,19.90234c-16.20117,0-30.80175-10.40234-30.80175-29.20312,0-16.59961,11.30078-29.10157,30.30175-29.10157,22.70118,0,28.30176,15.002,28.80176,25.502l-12.40088,3.59961c.8003-9.9004-3.30029-20.20118-16.40088-20.20118-11.40087,0-17.501,8.40039-17.501,20.20118,0,13.002,8.20019,20.30273,19.501,20.30273,15.90088,0,16.001-14.60156,16.001-14.60156Z"/>
      <path d="M590.44922,660.87129h12.90039V648.26973l11.501-8v20.60156h22.80175v7.5H614.85059v27.90235c0,8.70117,3.2998,12.60156,9.70019,12.60156a13.41086,13.41086,0,0,0,12.70117-8.00195l2.40039,8.90039s-5.30078,8.00195-17.60156,8.00195c-11.90039,0-19.20117-6.30078-19.20117-20.20117V668.37129H590.44922Z"/>
      <path d="M650.65039,638.67012h12v9.59961h-12Zm0,22.20117h12V716.3752h-12Z"/>
      <path d="M709.15039,659.4709c19.80078,0,31.50195,12.80078,31.50195,29.10157,0,16.40234-11.70117,29.20312-31.50195,29.20312s-31.50195-12.80078-31.50195-29.20312C677.64844,672.27168,689.34961,659.4709,709.15039,659.4709Zm0,49.4043c11.40039,0,18.70117-8.30078,18.70117-20.30273,0-12-7.30078-20.20118-18.70117-20.20118-11.60156,0-18.70117,8.20118-18.70117,20.20118C690.44922,700.57442,697.54883,708.8752,709.15039,708.8752Z"/>
      <path d="M800.45117,682.17207c0-9.30078-5.70019-13.80078-15.70117-13.80078-15.10059,0-17.10059,11.60157-17.10059,15.002V716.3752h-12.001V660.87129h5.80078l5.09961,16.502s1.40039-17.90235,22.60156-17.90235c16.501,0,23.30176,8.5,23.30176,22.502V716.3752h-12.001Z"/>
    </g>
  </g>
</svg>
