<svg width="460" height="464" viewBox="0 0 460 464" fill="none" xmlns="http://www.w3.org/2000/svg">
<path d="M220.413 9.33398C222.594 -1.02799 237.407 -1.02799 239.588 9.33398L245.679 38.2686C248.136 49.9377 263.83 52.1891 269.476 41.687L283.482 15.6385C288.5 6.30476 302.71 10.4827 301.88 21.0329L299.563 50.5095C298.629 62.4002 313.055 68.9733 321.432 60.4878L342.217 39.4356C349.668 31.8892 362.119 39.9019 358.349 49.7878L347.812 77.4183C343.561 88.5657 355.551 98.9313 365.981 93.1478L391.862 78.7976C401.14 73.653 410.826 84.8452 404.42 93.2692L386.517 116.815C379.294 126.314 387.874 139.635 399.514 137.021L428.394 130.536C438.745 128.211 444.885 141.673 436.361 147.955L412.541 165.509C402.934 172.589 407.406 187.787 419.314 188.554L448.853 190.458C459.436 191.141 461.539 205.783 451.583 209.413L423.777 219.553C412.565 223.642 412.565 239.483 423.777 243.572L451.583 253.712C461.539 257.342 459.436 271.984 448.854 272.667L419.314 274.571C407.406 275.338 402.934 290.536 412.541 297.617L436.361 315.17C444.885 321.452 438.745 334.914 428.394 332.589L399.514 326.104C387.874 323.49 379.294 336.811 386.517 346.31L404.42 369.856C410.826 378.28 401.14 389.472 391.862 384.327L365.981 369.977C355.551 364.194 343.561 374.559 347.812 385.707L358.349 413.337C362.119 423.223 349.668 431.236 342.217 423.689L321.432 402.637C313.055 394.152 298.629 400.725 299.563 412.616L301.88 442.092C302.71 452.642 288.5 456.82 283.482 447.487L269.476 421.438C263.83 410.936 248.136 413.187 245.679 424.856L239.588 453.791C237.407 464.153 222.594 464.153 220.413 453.791L214.322 424.856C211.866 413.187 196.172 410.936 190.525 421.438L176.52 447.487C171.502 456.82 157.292 452.642 158.121 442.092L160.438 412.616C161.373 400.725 146.947 394.152 138.569 402.637L117.784 423.689C110.334 431.236 97.8823 423.223 101.652 413.337L112.19 385.707C116.441 374.559 104.451 364.194 94.0204 369.977L68.1396 384.327C58.8614 389.472 49.1761 378.28 55.5814 369.856L73.485 346.31C80.7077 336.811 72.1272 323.49 60.4876 326.104L31.6076 332.589C21.2564 334.914 15.1168 321.452 23.641 315.17L47.4605 297.617C57.068 290.536 52.5953 275.338 40.6875 274.571L11.1481 272.667C0.565559 271.984 -1.53689 257.342 8.4188 253.712L36.2246 243.572C47.4367 239.483 47.4367 223.642 36.2246 219.553L8.41882 209.413C-1.53687 205.783 0.565584 191.141 11.1481 190.458L40.6875 188.554C52.5953 187.787 57.068 172.589 47.4605 165.509L23.641 147.955C15.1168 141.673 21.2564 128.211 31.6076 130.536L60.4875 137.021C72.1272 139.635 80.7077 126.314 73.485 116.815L55.5814 93.2692C49.1761 84.8452 58.8614 73.653 68.1396 78.7976L94.0203 93.1478C104.451 98.9313 116.441 88.5657 112.19 77.4183L101.652 49.7878C97.8823 39.9019 110.334 31.8892 117.784 39.4356L138.569 60.4878C146.947 68.9733 161.373 62.4002 160.438 50.5095L158.121 21.0329C157.292 10.4826 171.502 6.30478 176.52 15.6385L190.525 41.687C196.172 52.189 211.866 49.9377 214.322 38.2686L220.413 9.33398Z" stroke="black" stroke-width="3"/>
</svg>
