<svg width="469" height="471" viewBox="0 0 469 471" fill="none" xmlns="http://www.w3.org/2000/svg">
<path d="M258.201 108.588L258.952 111.821L260.882 109.121L321.71 24.0097L304.675 127.306L304.135 130.577L306.948 128.823L395.647 73.519L340.464 162.424L338.719 165.236L341.984 164.695L445.053 147.62L360.122 208.596L357.437 210.523L360.656 211.275L462.403 235.033L360.656 258.791L357.437 259.543L360.122 261.47L445.053 322.446L341.984 305.371L338.719 304.83L340.464 307.642L395.647 396.547L306.948 341.243L304.135 339.489L304.675 342.76L321.71 446.056L260.882 360.945L258.952 358.245L258.201 361.478L234.5 463.441L210.799 361.478L210.048 358.245L208.118 360.945L147.29 446.056L164.325 342.76L164.865 339.489L162.052 341.243L73.3534 396.547L128.536 307.642L130.281 304.83L127.016 305.371L23.9469 322.446L108.878 261.47L111.563 259.543L108.344 258.791L6.59673 235.033L108.344 211.275L111.563 210.523L108.878 208.596L23.9469 147.62L127.016 164.695L130.281 165.236L128.536 162.424L73.3533 73.519L162.052 128.823L164.865 130.577L164.325 127.306L147.29 24.0097L208.118 109.121L210.048 111.821L210.799 108.588L234.5 6.62519L258.201 108.588Z" stroke="black" stroke-width="3"/>
</svg>
