<svg xmlns="http://www.w3.org/2000/svg" viewBox="0 0 1920 1282">
  <g id="background">
    <rect x="0.48832" y="0.79067" width="1920" height="1283" style="fill: #f2f2f2"/>
    <path d="M51.98832,140.29067v-78h78v78Z" style="fill: #bdbdbd;stroke: #000;stroke-width: 3px"/>
    <path d="M178.71832,89.48067h-3.9v19.26l-13.83-19.26h-4.8v23.31h3.9v-19.26l13.83,19.26h4.8Zm5.39,23.31h3.9v-4.35h-3.9Zm48.605-11.64c0-7.02-5.34-12.09-13.62-12.09s-13.59,5.07-13.59,12.09c0,6.99,5.31,12.06,13.59,12.06S232.71333,108.14067,232.71333,101.15067Zm-4.11,0c0,5.13-3.84,9.09-9.51,9.09-5.64,0-9.48-3.96-9.48-9.09,0-5.16,3.84-9.12,9.48-9.12C224.76332,92.03067,228.60333,95.99066,228.60333,101.15067Zm8.62,11.64h3.9v-10.41h12.84v-2.55h-12.84v-7.8h13.68v-2.55h-17.58Zm58.017-23.31h-4.17l-8.94,20.76-8.94-20.76h-4.17l10.35,23.31h5.52Zm3.302,0v23.31h3.9v-23.31Zm9.287,23.31h18.45v-2.55h-14.55v-7.86h12.84v-2.55h-12.84v-7.8h13.68v-2.55h-17.58Zm58.923-23.31h-4.17l-6.54,20.76-6.24-20.76h-4.77l-6.24,20.76-6.54-20.76h-4.17l7.95,23.31h5.52l5.85-19.26,5.88,19.26h5.52Zm11.043,9.03c-2.58-.57-4.11-1.35-4.11-3.12,0-1.98,2.01-3.36,5.16-3.36,7.02,0,6.6,5.07,6.6,5.07l4.02-1.08s-.24-6.96-10.44-6.96c-6.54,0-9.39,3.18-9.39,6.69,0,2.79,1.95,5.01,5.94,5.94l5.67,1.32c3.42.81,5.28,1.47,5.28,3.72,0,1.92-2.25,3.51-6.03,3.51-8.64,0-7.92-6.51-7.92-6.51l-4.02,1.17c.15,3.15,2.94,8.31,12.03,8.31,5.64,0,9.99-2.28,9.99-6.66,0-3.03-1.77-5.58-6.84-6.72Z" style="fill: #151515"/>
    <path d="M121.50532,72.82607a.99969.99969,0,0,0-.982-1.0174l-8.999-.1579a1,1,0,0,0-.035,1.9997l7.999.1404-.14,7.9987a.99965.99965,0,1,0,1.999.03509Zm-59.3224,57.68359,59.0174-56.98179-1.389-1.4388-59.0176,56.9826Z"/>
    <path d="M60.49072,129.77567a.99935.99935,0,0,0,.9823,1.017l8.9987.157a.99965.99965,0,1,0,.03491-1.999l-7.99881-.14.1397-7.999a1,1,0,0,0-1.9997-.035Zm59.3176-57.6887-59.0124,56.9867,1.3893,1.439,59.0131-56.987Z"/>
  </g>
  <g id="squares">
  <g data-color="#FD3C3E" id="nwo">
    <path  d="M34.49262,360.50466l61.2862-132.541,132.5405,61.286-61.286,132.541Z" style="fill: #bdbdbd;stroke: #000;stroke-width: 3px"/>
    <path d="M106.71732,312.16967l-1.996-.923,1.858-2.446,2.36,1.091.419-.907-2.16-.999,2.873-3.784-1.016-.47-2.873,3.784-3.214-1.486,2.874-3.784-1.017-.47-2.873,3.784-2.0152-.932-.4197.908,1.8149.839-1.8395,2.454-2.1603-.998-.4197.907,1.9606.907-2.8816,3.801.9984.462,2.8816-3.802,3.2315,1.495-2.8818,3.801.9798.454,2.882-3.802,2.215,1.024Zm-6.226-2.879,1.858-2.446,3.213,1.486-1.84,2.454Zm27.335,1.755-2.36-1.091-5.389,11.654-2.979-15.524-2.905-1.343-6.522,14.105,2.36,1.091,5.389-11.654,2.98,15.524,2.904,1.343Zm25.391,11.74-2.524-1.167-9.766,10.733,2.033-14.308-2.886-1.335-9.585,10.816,1.851-14.392-2.523-1.167-1.711,16.33,3.34,1.544,8.929-10.017-1.831,13.299,3.34,1.545Zm13.749,14.929c1.965-4.247.152-8.809-4.858-11.126-5.011-2.317-9.642-.735-11.607,3.513-1.955,4.23-.161,8.783,4.849,11.1C160.36132,343.51866,165.01132,341.94466,166.96632,337.71468Zm-2.487-1.149a6.33524,6.33524,0,1,1-3.202-8.18A5.99244,5.99244,0,0,1,164.47932,336.56566Z" style="fill: #151515"/>
  </g>
  <g data-color="#FD3C3E" id="mk_ultra" data-name="mk ultra">
    <path  d="M78.10162,724.62368V583.0447h141.5787v141.579Z" style="fill: #bdbdbd;stroke: #000;stroke-width: 3px"/>
    <path d="M132.68632,636.88466h-2.2l.66-3h2.6v-1h-2.38l1.02-4.64h-1.12l-1.02,4.64h-3.54l1.02-4.64h-1.12l-1.02,4.64h-2.22v1h2l-.64,3h-2.38v1h2.16l-1.02,4.66h1.1l1.02-4.66h3.56l-1.02,4.66h1.08l1.02-4.66h2.44Zm-6.86,0,.66-3h3.54l-.64,3Zm20.948,3.96-6.42-13.84h-4v15.54h2.6v-12.84l6.12,12.84h3.4l6.12-12.84v12.84h2.6v-15.54h-4Zm26.054,1.7h3l-8.2-9.34,7-6.2h-3.2l-8.04,7.36v-7.36h-2.6v15.54h2.6v-5.6l2.54-2.26Zm-51.922,17.46v9.12c0,4.04-1.82,4.72-4.76,4.72s-4.76-.68-4.76-4.72v-9.12h-2.6v9.12c0,4.48,2.48,6.7,7.36,6.7s7.36-2.22,7.36-6.7v-9.12Zm6.2,15.54h11.5v-1.7h-8.9v-13.84h-2.6Zm11.501-13.84h6.6v13.84h2.54v-13.84h6.6v-1.7h-15.74Zm17.542-1.7v15.54h2.6v-7.12006h2.6c3.3,0,4.34.64,4.76,2.4.84,3.54,1.02,4.32,1.32,4.72h2.7c-.3-.4-.48-1.08-1.54-5.16a3.82474,3.82474,0,0,0-3.56-2.66c2.7,0,4.7-1.14,4.7-3.52,0-2.86-2.18-4.2-6.98-4.2Zm2.6,6.72v-5.02h4c2.4,0,4.24.5,4.24,2.5s-1.84,2.52-4.24,2.52Zm28.873,8.82h2.78l-7.2-15.54h-4.28l-7.2,15.54h2.76l2.22-4.94h8.7Zm-6.9-13.84h.7l3.22,7.2h-7.16Z" style="fill: #151515"/>
  </g>
  <g data-color="#FD3C3E" id="ufos">
    <path  d="M99.23992,975.15065l-64.7977-164.108,164.1081-64.797,64.797,164.107Z" style="fill: #bdbdbd;stroke: #000;stroke-width: 3px"/>
    <path d="M120.93632,871.33168l-2.047.808-.488-3.033,2.419-.955-.368-.93-2.213.874-.756-4.69-1.041.411.755,4.691-3.293,1.3-.755-4.691-1.042.412.756,4.69-2.065.815.367.93,1.86-.734.507,3.025-2.214.874.367.93,2.009-.793.763,4.70905,1.023-.404-.762-4.709,3.311-1.307.762,4.70905,1.005-.397-.763-4.709,2.27-.896Zm-6.381,2.519-.488-3.032,3.293-1.301.506,3.026Zm17.437-17.507,3.349,8.483c1.484,3.757.041,5.058-2.694,6.138s-4.677,1.116-6.161-2.642l-3.349-8.483-2.418.955,3.349,8.483c1.645,4.167,4.767,5.321,9.306,3.529s6.031-4.768,4.385-8.935l-3.349-8.483Zm11.474,12.177,2.418-.955-2.549-6.455,7.962-3.144-.624-1.58105-7.962,3.144-1.91-4.837,8.483-3.349-.624-1.581-10.901,4.304Zm26.417-18.774c-1.719-4.353-6.272-6.189-11.406-4.162-5.134,2.028-7.185,6.471-5.467,10.824,1.712,4.335,6.246,6.178,11.38,4.151C169.52432,858.53267,171.59433,854.08168,169.88333,849.74666Zm-2.549,1.007a6.33489,6.33489,0,1,1-8.13-3.327A5.99294,5.99294,0,0,1,167.33432,850.75368Zm9.499-5.643c-1.74.278-2.879.169-3.313-.928-.485-1.228.424-2.57605,2.377-3.347,4.353-1.719,5.334,1.528,5.334,1.528l2.228-1.654s-1.853-4.257-8.177-1.76c-4.056,1.601-5.044,4.271-4.185,6.447.683,1.73,2.436,2.63,5.138,2.229l3.839-.569c2.319-.335,3.634-.382,4.184,1.014.471,1.18994-.535,2.727-2.879,3.652-5.358,2.116-6.505-2.097-6.505-2.097l-2.206,1.71c.864,1.916,3.857,4.433,9.494,2.207,3.497-1.381,5.636-3.86,4.564-6.576-.742-1.878-2.464-3.026-5.887-2.492Z" style="fill: #151515"/>
  </g>
  <g data-color="#FD3C3E" id="flat_earth" data-name="flat earth">
    <path  d="M51.63672,1239.42067v-242.644h242.6446v242.644Z" style="fill: #bdbdbd;stroke: #000;stroke-width: 3px"/>
    <path d="M100.70332,1117.62062h-2.2002l.66-3h2.6002v-1h-2.3802l1.02-4.64h-1.12l-1.02,4.64h-3.54l1.02-4.64h-1.12l-1.02,4.64h-2.22v1h2l-.64,3h-2.38v1h2.16l-1.02,4.66h1.1l1.02-4.66h3.56l-1.02,4.66h1.08l1.02-4.66h2.44019Zm-6.8602,0,.66-3h3.54l-.64,3Zm10.52821,5.66h2.6v-6.93994h8.56v-1.70008h-8.56v-5.2h9.12v-1.70007h-11.72Zm13.925,0h11.5v-1.69995h-8.9v-13.84009h-2.6Zm27.801,0h2.78l-7.2-15.54h-4.28l-7.2,15.54h2.76l2.22-4.93994h8.7Zm-6.9-13.84h.7l3.22,7.2h-7.16Zm7.065,0h6.6v13.84h2.54v-13.84h6.6v-1.70007h-15.74Zm26.214,13.84h12.3v-1.69995h-9.7v-5.24h8.56v-1.70008h-8.56v-5.2h9.12v-1.70007h-11.72Zm29.402,0h2.78l-7.2-15.54h-4.28l-7.2,15.54h2.76l2.22-4.93994h8.7Zm-6.9-13.84h.7l3.22,7.2h-7.16Zm11.873-1.70007v15.54h2.6v-7.12h2.6c3.3,0,4.34.64,4.76,2.4.84,3.54,1.02,4.31994,1.32,4.72h2.7c-.3-.4-.48-1.08-1.54-5.16a3.82471,3.82471,0,0,0-3.56-2.65991c2.7,0,4.7-1.14,4.7-3.52,0-2.86-2.18-4.20007-6.98-4.20007Zm2.6,6.72009v-5.02h4c2.4,0,4.24.5,4.24,2.5s-1.84,2.52-4.24,2.52Zm12.573-5.02h6.6v13.84h2.54v-13.84h6.6v-1.70007h-15.74Zm29.942,13.84h2.6v-15.54h-2.6v6.9h-9.8v-6.9h-2.6v15.54h2.6v-6.93994h9.8Z" style="fill: #151515"/>
  </g>
  <g data-color="#FD3C3E" id="illuminati">
    <path  d="M246.19532,837.35567v-510.981h510.981v510.981Z" style="fill: #bdbdbd;stroke: #000;stroke-width: 3px"/>
    <path d="M372.20732,580.55464h-4.4l1.32-6h5.2v-2h-4.76l2.04-9.28h-2.24l-2.04,9.28h-7.08l2.04-9.28h-2.24l-2.04,9.28h-4.44v2h4l-1.28,6h-4.76v2h4.32l-2.04,9.32h2.2l2.04-9.32h7.12l-2.04,9.32h2.16l2.04-9.32h4.88Zm-13.72,0,1.32-6h7.08l-1.28,6Zm21.056-19.75994v31.07995h5.2V560.7947Zm12.383,31.07995h23v-3.4h-17.8v-27.68h-5.2Zm26.601,0h23v-3.4h-17.8v-27.68h-5.2Zm50.842-31.07995v18.24c0,8.08-3.64,9.44-9.52,9.44s-9.52-1.36005-9.52-9.44v-18.24h-5.2v18.24c0,8.96,4.96,13.4,14.72,13.4s14.72-4.44,14.72-13.4v-18.24Zm33.24,27.68-12.84-27.68h-8v31.07995h5.2v-25.68l12.24,25.68h6.8l12.24-25.68v25.68h5.2V560.7947h-8Zm28.028-27.68v31.07995h5.2V560.7947Zm42.422,0h-5.2v25.68l-18.43994-25.68h-6.4v31.07995h5.2v-25.68l18.44,25.68h6.4Zm36.187,31.07995h5.56l-14.4-31.07995h-8.56006l-14.4,31.07995h5.52l4.44-9.88h17.4Zm-13.8-27.68h1.4l6.44,14.4H588.96635Zm14.13,0h13.2v27.68h5.08v-27.68h13.2v-3.4h-31.48Zm35.084-3.4v31.07995h5.2V560.7947Z" style="fill: #151515"/>
  </g>
  <g data-color="#FD3C3E" id="freebritney">
    <path  d="M375.32234,1244.21071l-70.12-322.847,322.847-70.12,70.12,322.847Z" style="fill: #bdbdbd;stroke: #000;stroke-width: 3px"/>
    <path d="M385.74232,1071.7007l-3.224.69995.012-4.6,3.811-.83-.318-1.47009-3.489.76.018-7.13-1.642.36-.018,7.13-5.189,1.12.018-7.12-1.642.36-.017,7.12012-3.255.71.319,1.46,2.931-.63.017,4.6-3.488.76.318,1.46008,3.166-.69006-.011,7.16,1.612-.35.012-7.16,5.218-1.13-.012,7.16,1.584-.35.011-7.15,3.577-.78Zm-10.055,2.18994.012-4.61,5.189-1.13.017,4.6Zm17.234,4.94007,3.811-.82007-2.21-10.17993,12.548-2.7201-.541-2.49-12.548,2.7201-1.655-7.62,13.368-2.91-.541-2.49-17.18,3.73Zm15.465-27.21009,4.947,22.78,3.812-.83-2.267-10.43006,3.811-.83c4.837-1.05005,6.565-.45008,7.741,2,2.359,4.91992,2.871,6.01,3.438,6.5l3.958-.86c-.567-.49-1.048-1.43005-3.9-7.07007-1.248-2.5-3.868-2.97-6.066-2.77,3.958-.86,6.527-3.16992,5.769-6.65991-.91-4.19006-4.533-5.46008-11.569-3.93005Zm5.951,9.02-1.599-7.36,5.864-1.27c3.518-.76,6.374-.62,7.011,2.32007.636,2.92993-1.895,4.2799-5.413,5.03991Zm23.875,8.36,18.03-3.91992-.541-2.49-14.219,3.09-1.668-7.68,12.548-2.73-.542-2.49-12.547,2.72-1.656-7.62,13.369-2.9-.542-2.49-17.179,3.7301Zm21.845-4.75,18.029-3.90991-.541-2.5-14.218,3.09-1.669-7.68,12.548-2.72-.541-2.5-12.548,2.73-1.655-7.62,13.368-2.91-.541-2.49-17.18,3.7301Zm40.929-15.66992c-1.191-5.48-6.737-4.59009-6.737-4.59009s4.782-1.59,3.82-6.0199c-.783-3.6001-4.405-4.87-11.441-3.34009l-9.675,2.1,4.948,22.78,10.261-2.23C499.19831,1055.75063,501.92231,1052.89064,500.98631,1048.58071Zm-18.082-2.83008-1.598-7.36,5.863-1.27c3.518-.76989,6.374-.62,7.011,2.31006.637,2.93994-1.895,4.28-5.413,5.04993Zm.541,2.49,6.45-1.3999c3.518-.76,6.374-.62,7.075,2.61.7,3.22-1.832,4.56995-5.35,5.34l-6.449,1.4Zm18.387-16.91992,4.948,22.78,3.811-.82007-2.267-10.43994,3.811-.83008c4.838-1.04993,6.566-.43994,7.742,2,2.358,4.93,2.87,6.01,3.437,6.5l3.958-.86c-.567-.49-1.047-1.42993-3.9-7.06994-1.24694-2.49-3.868-2.9701-6.065-2.77,3.957-.86,6.526-3.16,5.768-6.65-.91-4.18994-4.532-5.46-11.568-3.93994Zm5.951,9.03-1.598-7.36011,5.863-1.2699c3.518-.77,6.374-.62,7.011,2.30994.637,2.93005-1.895,4.28-5.413,5.04Zm18.928-14.43006,4.948,22.78,3.811-.83008-4.948-22.7799Zm6.979,1.09,9.67395-2.1,4.406,20.29,3.723-.81006-4.406-20.28,9.675-2.11-.542-2.49-23.072,5.01Zm47.189-12.85-3.811.82,4.087,18.83-17.602-15.89-4.691,1.02,4.948,22.78,3.811-.83008-4.088-18.81994,17.603,15.88,4.69-1.01Zm10.214,21.63,18.03-3.91-.541-2.5-14.219,3.09009-1.668-7.68,12.54706-2.72-.541-2.5-12.547,2.73-1.656-7.62,13.369-2.91-.54205-2.49-17.179,3.73Zm27.389-17.52,2.4,11.05,3.811-.83008-2.4-11.04993,7.743-13.96-4.397.95-5.869,10.58-9.728-7.18994-4.397.96Z" style="fill: #151515"/>
  </g>
  <g data-color="#FD3C3E" id="cryptids">
    <path  d="M735.73033,1214.39064v-217.614h217.612v217.614Z" style="fill: #bdbdbd;stroke: #000;stroke-width: 3px"/>
    <path d="M786.09532,1104.38063h-2.2l.66-3h2.6v-1h-2.38l1.02-4.64h-1.12l-1.02,4.64h-3.54l1.02-4.64h-1.12l-1.02,4.64h-2.22v1h2l-.64,3h-2.38v1h2.16l-1.02,4.66h1.1l1.02-4.66h3.56l-1.02,4.66h1.08l1.02-4.66h2.44Zm-6.86,0,.66-3h3.54l-.64,3Zm26.788-3.72s-.64-6.43994-8.2-6.43994c-5.52,0-8.66,3.38-8.66,8.05994,0,4.66,3.34,8.04,8.86,8.04,7.8,0,8.42-6.14,8.42-6.14l-2.68-.78s-.12,4.94007-5.74,4.94007a5.82138,5.82138,0,0,1-6.12-6.06006c0-3.43994,2.16-6.08,5.92-6.08,5.32,0,5.52,5.26,5.52,5.26Zm3.428-6.16v15.54h2.6v-7.12h2.6c3.3,0,4.34.64,4.76,2.4.84,3.53991,1.02,4.31994,1.32,4.72h2.7c-.3-.4-.48-1.08-1.54-5.16a3.82477,3.82477,0,0,0-3.56-2.65991c2.7,0,4.7-1.14,4.7-3.52,0-2.86-2.18-4.20007-6.98-4.20007Zm2.6,6.72009v-5.02h4c2.4,0,4.24.5,4.24,2.5s-1.84,2.52-4.24,2.52Zm19.792,1.27991v7.54h2.6v-7.54l7.02-8h-3l-5.31995,6.06006-5.32-6.06006h-3Zm11.611-8v15.54h2.6v-7.12h4c4.8,0,6.98-1.36,6.98-4.22s-2.18-4.20007-6.98-4.20007Zm2.6,6.72009v-5.02h4c2.4,0,4.24.5,4.24,2.5s-1.84,2.52-4.24,2.52Zm11.382-5.02h6.6v13.84h2.54v-13.84h6.6v-1.70007h-15.74Zm17.542-1.70007v15.54h2.6v-15.54Zm13.191,0h-7v15.54h7c5.19995,0,8.46-2.96,8.46-7.76C896.62931,1097.46071,893.3693,1094.50063,888.16935,1094.50063Zm-4.4,1.70007h3.2c4.4,0,6.92,2.08,6.92,6.08s-2.52,6.06006-6.92,6.06006h-3.2Zm21.017,4.31995c-1.72-.38-2.74-.9-2.74-2.08,0-1.32007,1.34-2.24,3.44-2.24,4.68,0,4.4,3.38,4.4,3.38l2.68-.7201s-.16-4.63989-6.96-4.63989c-4.36,0-6.26,2.12-6.26,4.46,0,1.86,1.30005,3.34,3.96,3.96l3.78.88c2.28.54,3.52.98,3.52,2.48,0,1.28-1.5,2.34009-4.02,2.34009-5.76,0-5.28-4.34009-5.28-4.34009l-2.68.78c.1,2.1,1.96,5.54,8.02,5.54,3.76,0,6.66-1.52,6.66-4.44007,0-2.02-1.18-3.72-4.56-4.48Z" style="fill: #151515"/>
  </g>
  <g data-color="#FD3C3E" id="_5g" data-name="5g">
    <path  d="M822.68132,880.54567l50.281-29.03,29.03,50.281-50.281,29.03Z" style="fill: #bdbdbd;stroke: #000;stroke-width: 3px"/>
    <path d="M858.05833,882.20967l-.825-1.429,2.196-.696.975,1.688.65-.375-.893-1.546,3.396-1.077-.42-.728-3.396,1.078-1.327-2.299,3.396-1.078-.42-.727-3.396,1.077-.833-1.442-.649.375.75,1.299-2.189.71-.892-1.546-.65.375.81,1.403-3.40906,1.085.41205.71405,3.41-1.085,1.335,2.312-3.41,1.085.405.702,3.41-1.085.915,1.585Zm-2.572-4.456,2.196-.696,1.327,2.29895-2.188.709Zm8.459,15.492a4.08976,4.08976,0,0,0,1.359-5.686,3.43071,3.43071,0,0,0-2.91-2.01l3.86-1.414,3.098,5.365,1.104-.638-3.93-6.807-5.742,2.085.998,1.728a3.47089,3.47089,0,0,1,1.853,1.771c.9,1.558.58105,3.076-.718,3.826s-2.786.275-3.686-1.284c-1.785-3.092,1.05-4.451,1.05-4.451l-1.511-1.449s-3.42,2.14794-.825,6.64294C859.44529,893.52266,861.73631,894.52065,863.94529,893.24568Zm10.368,10.638s3.448-2.787.741-7.477c-2.07-3.585-5.443-4.35706-8.483-2.60206a5.735,5.735,0,0,0-2.2,8.25c1.8,3.117,4.336,2.58905,4.336,2.58905l-1.949,1.125.975,1.689,5.119-2.955-3.173-5.495-1.104.637,2.197,3.806a3.76384,3.76384,0,0,1-4.965-1.879,4.55742,4.55742,0,0,1,7.96106-4.422,3.945,3.945,0,0,1-.98,5.293Z" style="fill: #151515"/>
  </g>
  <g data-color="#FD3C3E" id="anti_vaxxers" data-name="anti vaxxers">
    <path  d="M795.62132,763.43166v-157.721h157.721v157.721Z" style="fill: #bdbdbd;stroke: #000;stroke-width: 3px"/>
    <path d="M849.11033,667.55068h-2.2l.66-3h2.6v-1h-2.38l1.02-4.64h-1.12l-1.02,4.64h-3.54l1.02-4.64h-1.12l-1.02,4.64h-2.22v1h2l-.64,3h-2.38v1h2.16l-1.02,4.66h1.1l1.02-4.66h3.56l-1.02,4.66h1.08l1.02-4.66h2.44Zm-6.86,0,.66-3h3.54l-.64,3Zm25.02795,5.66h2.78l-7.2-15.54h-4.28l-7.2,15.54h2.76l2.22-4.94h8.7Zm-6.9-13.84h.7l3.22,7.2h-7.16Zm26.893-1.7h-2.6v12.84l-9.22-12.84h-3.2v15.54h2.6v-12.84l9.22,12.84h3.2Zm1.793,1.7h6.6v13.84h2.54v-13.84h6.6v-1.7h-15.74Zm17.542-1.7v15.54h2.6v-15.54Zm-72.728,33h-2.78l-5.96,13.84-5.96-13.84h-2.78l6.9,15.54h3.68Zm13.693,15.54h2.78l-7.2-15.54h-4.28l-7.2,15.54h2.76l2.22-4.94h8.7Zm-6.9-13.84h.7l3.22,7.2h-7.16Zm10.273,13.84h3l5.32-6.06,5.32,6.06h3l-6.82-7.78,6.82-7.76h-3l-5.32,6.06-5.32-6.06h-3l6.82,7.76Zm17.031,0h3l5.32-6.06,5.32,6.06h3l-6.82-7.78,6.82-7.76h-3l-5.32,6.06-5.32-6.06h-3l6.82,7.76Zm18.631,0h12.3v-1.7h-9.7v-5.24h8.56v-1.7h-8.56v-5.2h9.12v-1.7h-11.72Zm14.903-15.54v15.54h2.6v-7.12h2.6c3.3,0,4.34.64,4.76,2.4.84,3.54,1.02,4.32,1.32,4.72h2.69995c-.3-.4-.48-1.08-1.54-5.16a3.82491,3.82491,0,0,0-3.56-2.66c2.7,0,4.7-1.13995,4.7-3.52,0-2.86-2.18-4.2-6.98005-4.2Zm2.6,6.72v-5.02h4c2.4,0,4.24006.5,4.24006,2.5s-1.84,2.52-4.24006,2.52Zm19.53205-.69995c-1.72-.38-2.74-.9-2.74-2.08,0-1.32,1.34-2.24,3.44-2.24,4.68,0,4.4,3.38,4.4,3.38l2.68-.72s-.16-4.64-6.96-4.64c-4.36,0-6.26,2.12-6.26,4.46,0,1.86,1.3,3.34,3.96,3.96l3.78.88c2.28.54,3.52.98,3.52,2.48,0,1.28-1.5,2.34-4.02,2.34-5.76,0-5.28-4.34-5.28-4.34l-2.68.78c.1,2.1,1.96,5.54,8.02,5.54,3.76,0,6.66-1.52,6.66-4.44,0-2.02-1.18-3.72-4.56-4.48Z" style="fill: #151515"/>
  </g>
  <g data-color="#FD3C3E" id="chemtrails">
    <path  d="M776.2993,499.12065l85.557-45.319,45.319,85.557-85.557,45.319Z" style="fill: #bdbdbd;stroke: #000;stroke-width: 3px"/>
    <path d="M807.24131,537.60164l-.972.515-.411-1.48,1.149-.608-.234-.442-1.052.557-.635-2.289-.495.262.636,2.289-1.565.828-.635-2.289-.495.263.636,2.288-.981.52.234.442.883-.468.42,1.475-1.052.557.234.442.955-.506.64,2.298.486-.257-.64-2.298,1.573-.83295.64,2.298.477-.253-.64-2.298,1.078-.571Zm-3.031,1.606-.411-1.48,1.564-.829.42,1.475Zm10.965-7.913a3.7765,3.7765,0,0,0-5.13-.927c-2.439,1.292-3.035,3.52-1.94,5.588,1.09,2.059,3.357,2.771,5.796,1.479,3.447-1.825,2.284-4.683,2.284-4.683l-1.367.282a2.61217,2.61217,0,0,1-1.38,3.526,2.91024,2.91024,0,0,1-4.122-1.245,2.83284,2.83284,0,0,1,1.192-4.072,2.70339,2.70339,0,0,1,3.67,1.032Zm9.189.43994,1.149-.609-3.637-6.866-1.149.609,1.615,3.048-4.33,2.294-1.615-3.049-1.149.609,3.637,6.866,1.149-.609-1.625-3.066,4.331-2.294Zm2.736-1.45,5.435-2.879-.398-.751-4.286,2.271-1.226-2.316,3.782-2.003-.398-.751-3.782,2.003-1.217-2.297,4.03-2.135-.398-.751-5.179,2.743Zm10.791-6.677-6.076-4.613-1.767.936,3.637,6.866,1.149-.608-3.005-5.673,5.709,4.241,1.502-.796-.301-7.106,3.005,5.67395,1.14905-.60894-3.637-6.866-1.767.936Zm2.555-8.223,2.916-1.545,3.24,6.116,1.122-.595-3.239-6.115,2.916-1.545-.398-.751-6.955,3.684Zm7.353-4.857,3.637,6.867,1.149-.609-1.666-3.146,1.149-.608c1.458-.77305,2.067-.733,2.664-.054,1.19995,1.368,1.462,1.67,1.688,1.777l1.193-.632c-.226-.107-.465-.365-1.888-1.92a1.91291,1.91291,0,0,0-2.195-.342c1.193-.632,1.81-1.603,1.253-2.655-.67-1.264-1.947-1.346-4.068-.222Zm2.722,2.361-1.17505-2.218,1.767-.936c1.061-.562,1.991-.771,2.459.112.468.884-.223,1.544-1.284,2.106Zm14.821-2.86,1.229-.651-6.819-5.181-1.891,1.002.456,8.551,1.219-.646-.175-2.702,3.844-2.036Zm-6.288-4.5.31-.164,3.108,2.427-3.164,1.676Zm4.848-3.53,3.637,6.866,1.149-.608-3.637-6.867Zm6.373,5.417,5.081-2.691-.398-.752-3.93194,2.083-3.239-6.115-1.149.609Zm5.929-8.527c-.849.235-1.422.244-1.698-.278-.309-.583.068-1.303.996-1.795,2.068-1.095,2.73505.464,2.73505.464l1.016-.945s-1.15705-2.013-4.161-.421c-1.927,1.02-2.27,2.401-1.723,3.435.436.822,1.357,1.172,2.677.823l1.876-.496c1.134-.295,1.785-.391,2.136.272.299.566-.115,1.385-1.229,1.975-2.545,1.348-3.348-.682-3.348-.682l-1.002.972c.536.904,2.163,1.989,4.84.571,1.661-.88,2.587-2.23,1.904-3.521-.473-.892-1.392-1.367-3.064-.912Z" style="fill: #151515"/>
  </g>
  <g data-color="#FD3C3E" id="reptilians">
    <path  d="M904.0413,444.83766l-119.96295-119.963,119.96295-119.962,119.967,119.962Z" style="fill: #bdbdbd;stroke: #000;stroke-width: 3px"/>
    <path d="M855.90232,371.61867l-1.556,1.556-1.654-2.588,1.838-1.839-.707-.707-1.683,1.683-2.56-4.002-.79095.792,2.559,4.002-2.503,2.503-2.56-4.002-.792.792,2.56,4.002-1.57,1.57.707.707,1.415-1.414,1.668,2.574-1.68195,1.683.707.707,1.527-1.528,2.574,4.017.778-.778-2.574-4.016,2.517-2.518,2.574,4.017.764-.764-2.574-4.016,1.725-1.726Zm-4.851,4.851-1.654-2.588,2.503-2.503,1.669,2.574Zm.458-14.431,10.989,10.989,1.838-1.839-5.034-5.034,1.83795-1.839c2.334-2.333,3.522-2.616,5.063-1.668,3.097,1.909,3.776,2.333,4.271,2.404l1.909-1.909c-.495-.071-1.103-.425-4.737-2.56a3.82528,3.82528,0,0,0-4.399.636c1.90906-1.909,2.518-4.129.835-5.812-2.023-2.023-4.512-1.429-7.906,1.966Zm6.591,2.914-3.55-3.55,2.828-2.828c1.697-1.697,3.352-2.645,4.766-1.231s.481,3.083-1.216,4.78Zm16.399-3.927,8.698-8.697-1.202-1.202-6.859,6.859-3.706-3.705,6.053-6.053-1.202-1.202-6.053,6.053-3.677-3.677,6.449-6.449-1.202-1.202-8.287,8.287Zm-.451-21.526,10.989,10.989,1.838-1.839-5.034-5.034,2.828-2.829c3.394-3.394,3.974-5.897,1.952-7.919-2.023-2.023-4.512-1.429-7.906,1.966Zm6.591,2.914-3.55-3.55,2.828-2.828c1.697-1.697,3.352-2.645,4.766-1.231s.481,3.083-1.216,4.78Zm4.498-11.598,4.667-4.667,9.786,9.787,1.796-1.796-9.786-9.787,4.667-4.667-1.203-1.202-11.129,11.13Zm11.202-13.606,10.988,10.988,1.839-1.838-10.98895-10.989Zm15.366,6.61,8.132-8.131-1.202-1.202-6.293,6.293-9.787-9.786-1.838,1.838Zm-1.583-20.393,10.988,10.988,1.839-1.838-10.989-10.989Zm25.619-3.643,1.966-1.965-16.08-5.898-3.026,3.027,5.897,16.079,1.952-1.951-1.923-5.063,6.151-6.152Zm-14.665-4.907.495-.495,7.368,2.814-5.063,5.063Zm17.814-20.218-1.839,1.838,9.08,9.08-15.599-2.56-2.263,2.263,10.989,10.988,1.83795-1.838-9.079-9.08,15.599,2.56,2.262-2.263Zm10.446-1.933c-1.485.948-2.574,1.301-3.408.467-.934-.933-.637-2.532.848-4.016,3.31-3.31,5.50195-.722,5.50195-.722l1.38605-2.404s-3.395-3.168-8.203,1.641c-3.083,3.083-2.927,5.925-1.273,7.58,1.316,1.315,3.281,1.442,5.601,0l3.295-2.051c1.994-1.23,3.182-1.796,4.242-.735.906.905.594,2.715-1.188,4.497-4.072,4.073-6.802.665-6.802.665l-1.343,2.446c1.555,1.414,5.303,2.532,9.588-1.753,2.659-2.659,3.635-5.784,1.57-7.849-1.429-1.429-3.465-1.796-6.392.056Z" style="fill: #151515"/>
  </g>
  <g data-color="#FD3C3E" id="hollow_earth" data-name="hollow earth">
    <path  d="M1076.76835,289.37065l33.5-70.479,70.48,33.5-33.5,70.479Z" style="fill: #bdbdbd;stroke: #000;stroke-width: 3px"/>
    <path d="M1109.59831,251.42667l-.99-.473.94006-1.213,1.16992.558.22-.451-1.08-.511,1.46-1.876-.5-.241-1.46,1.877-1.6-.76,1.46-1.877-.51-.24-1.46,1.876-1-.476-.21.451.8999.43-.92993,1.217-1.08008-.511-.21.452.97.463-1.46,1.886.5.236,1.46-1.885,1.61011.764-1.46008,1.885.48.232,1.47009-1.885,1.1.523Zm-3.1-1.473.95-1.213,1.59009.76-.93,1.217Zm9.14,7.478,1.17993.558,3.33008-7.018-1.17-.558-1.48,3.116-4.43-2.104,1.4801-3.116-1.17-.558-3.34,7.018,1.17993.558,1.49-3.134,4.42,2.104Zm12.39,1.59c1-2.114.12-4.404-2.37-5.589-2.5-1.185-4.82007-.418-5.83008,1.695-1,2.104-.12,4.391,2.37,5.575C1124.68827,261.88765,1127.02836,261.12566,1128.02836,259.02165Zm-1.24-.588a3.16914,3.16914,0,1,1-1.56006-4.107A2.99275,2.99275,0,0,1,1126.78837,258.43367Zm.92993,4.737,5.19007,2.469.37-.768-4.02-1.91,2.97-6.25-1.17993-.558Zm6.01,2.855,5.19007,2.469.36-.768-4.02-1.91,2.97-6.25-1.17-.558Zm15.59,3.116c1-2.113.12-4.404-2.37-5.589-2.5-1.185-4.81994-.418-5.81994,1.695-1,2.105-.13,4.391,2.36,5.576S1148.31828,271.24565,1149.31828,269.14168Zm-1.24-.588a3.16908,3.16908,0,1,1-1.55994-4.107A2.99366,2.99366,0,0,1,1148.07829,268.55367Zm14.83008,2.739-1.26-.596-4.94007,5.314,1.09009-7.143-1.43-.683-4.85,5.357,1-7.185-1.26-.597-.94006,8.155,1.66.79,4.52-4.961-.99,6.639,1.66992.79Zm-57.19007.246,5.56006,2.64.36-.768-4.38-2.082,1.13-2.366,3.86,1.837.37-.768-3.87-1.837,1.12-2.348,4.12,1.957.36-.767-5.29-2.516Zm13.28,6.311,1.26.596.08-8.563-1.92993-.918-6.59009,5.472,1.25.592,2.06006-1.754,3.92993,1.867Zm-.15-7.731.32007.15-.09009,3.943-3.23-1.537Zm5.73,1.781-3.33,7.017,1.17005.558,1.5299-3.215,1.17.558c1.49.708,1.81994,1.221,1.64,2.106a9.57063,9.57063,0,0,0-.42,2.414l1.22.58a10.60266,10.60266,0,0,1,.41-2.661,1.91367,1.91367,0,0,0-1.04-1.965c1.2201.579,2.37012.494,2.88-.581.62-1.291-.08-2.364-2.25-3.395Zm-.27,3.592,1.08008-2.267,1.80993.859c1.08008.515,1.8,1.136,1.37,2.039-.41992.903-1.37.743-2.44995.228Zm6.76.432,2.9801,1.417-2.97009,6.25,1.14.545,2.98-6.25,2.98,1.417.36011-.768-7.11011-3.379Zm10.55005,12.677,1.17.558,3.34-7.018-1.18006-.558-1.48,3.116-4.41992-2.103,1.48-3.116-1.18-.558-3.33,7.017,1.16992.558,1.49-3.134,4.43006,2.104Z" style="fill: #151515"/>
  </g>
  <g data-color="#FD3C3E" id="lochness_monster" data-name="lochness monster">
    <path  d="M1380.94828,326.55767l-27.1499-84.204,84.19995-27.152,27.15,84.203Z" style="fill: #bdbdbd;stroke: #000;stroke-width: 3px"/>
    <path d="M1376.15837,272.61968l-1.04.337-.15-1.529,1.24-.399-.15991-.476-1.13.366-.23011-2.365-.5299.172.23,2.364-1.69007.544-.22-2.365-.54.172.23011,2.365-1.06006.34.16.476.94995-.307.15,1.526-1.13.365.16.476,1.02-.331.23,2.374.5299-.169-.23-2.374,1.69007-.546.23,2.374.51-.166-.23-2.374,1.16992-.375Zm-3.26,1.052-.15-1.529,1.68994-.543.15,1.526Zm5.88,1.078,5.47-1.765-.26-.809-4.24,1.366-2.12-6.586-1.24.399Zm13.48-8.425c-.72-2.227-2.93005-3.289-5.56006-2.442-2.62.847-3.78991,2.998-3.06994,5.225.71,2.218,2.92,3.283,5.54,2.436C1391.79838,270.69667,1392.97831,268.54167,1392.25834,266.32466Zm-1.30005.42a3.1704,3.1704,0,1,1-3.94995-1.92A3.00075,3.00075,0,0,1,1390.95829,266.74468Zm10.22-4.148a3.77427,3.77427,0,0,0-4.88989-1.806c-2.63.847-3.6001,2.937-2.88,5.164.71,2.218,2.81994,3.314,5.44995,2.467,3.71-1.197,3.06006-4.214,3.06006-4.214l-1.39.04a2.61392,2.61392,0,0,1-1.98,3.232,2.91056,2.91056,0,0,1-3.84009-1.945,2.83642,2.83642,0,0,1,1.88-3.802,2.70643,2.70643,0,0,1,3.44006,1.656Zm8.9701,2.035,1.24-.399-2.38-7.395-1.24.399,1.05994,3.284-4.66992,1.504-1.06006-3.284-1.23.399,2.38,7.395,1.24-.399-1.06994-3.302,4.66992-1.504Zm7.71-10.65-1.23.399,1.97,6.11-6.36-4.695-1.52.491,2.38,7.395,1.24-.399-1.97-6.11,6.35,4.695,1.53-.491Zm4.1,6.844,5.85-1.888-.25989-.809-4.62012,1.489-.79992-2.494,4.06994-1.314-.26-.809-4.06994,1.314-.80005-2.474,4.34009-1.4-.26-.809-5.58008,1.799Zm8.08008-7.609c-.87.083-1.44006-.008-1.62-.57-.20008-.628.28991-1.271,1.28991-1.594,2.23-.718,2.62.934,2.62.934l1.16-.754s-.79-2.184-4.02-1.14c-2.08.669-2.66,1.969-2.29992,3.083.28991.885,1.13,1.39,2.49,1.277l1.93994-.162c1.17-.093,1.82007-.073,2.05.64.2.609-.35,1.344-1.55,1.731-2.74.884-3.17993-1.255-3.17993-1.255l-1.15.782c.37.984,1.78,2.336,4.65991,1.406,1.79-.577,2.94007-1.746,2.49012-3.135-.31006-.961-1.13-1.589-2.86011-1.432Zm7.76-2.5c-.88.083-1.45007-.008-1.63-.569-.20008-.628.29992-1.272,1.29992-1.594,2.22-.718,2.61.933,2.61.933l1.16-.754s-.79-2.183-4.02-1.14c-2.08.669-2.65,1.97-2.29992,3.083.28991.885,1.13989,1.39,2.5,1.277l1.92993-.161c1.17-.093,1.82995-.074,2.06006.64.18994.609-.36,1.343-1.56006,1.73-2.74.884-3.17993-1.255-3.17993-1.255l-1.15.783c.37.984,1.78,2.335,4.65991,1.405,1.79-.577,2.94007-1.745,2.49012-3.135-.31006-.961-1.13-1.589-2.86011-1.432Zm-49.65,37.98-5.18006-5.601-1.9.614,2.38,7.395,1.24-.399-1.97-6.11,4.88,5.171,1.62-.522.94007-7.049,1.97,6.11,1.24-.399-2.39-7.395-1.9.614Zm14.08-7.726c-.72-2.227-2.92993-3.289-5.55005-2.442-2.62988.847-3.79992,2.999-3.07995,5.226.72,2.218,2.92,3.283,5.55,2.436C1401.76835,285.34368,1402.94828,283.18868,1402.22831,280.97066Zm-1.30005.421a3.17029,3.17029,0,1,1-3.94995-1.921A3.00011,3.00011,0,0,1,1400.92826,281.39168Zm8.69007-6.889-1.24.399,1.97,6.11-6.36-4.695-1.52.491,2.38,7.395,1.24-.399-1.97-6.11,6.36,4.695,1.52-.491Zm5.09,1.521c-.88.083-1.44995-.007-1.63-.569-.19995-.628.30005-1.272,1.30005-1.594,2.22-.718,2.61.933,2.61.933l1.16-.753s-.78-2.184-4.02-1.14c-2.07007.669-2.65,1.969-2.29,3.083.28.885,1.13,1.389,2.49,1.276l1.93005-.161c1.16992-.093,1.83-.074,2.05994.64.19006.609-.36,1.344-1.55994,1.73-2.74.884-3.18005-1.255-3.18005-1.255l-1.15.783c.37012.984,1.78,2.335,4.67005,1.405,1.78-.577,2.93-1.745,2.48-3.134-.30994-.962-1.13-1.59-2.85-1.433Zm3.77-3.487,3.14-1.013,2.13,6.586,1.21-.389-2.13-6.587,3.14-1.012-.26-.809-7.49,2.415Zm10.47,3.894,5.86-1.887-.25989-.809-4.62012,1.488-.79992-2.493,4.06994-1.314-.26-.809-4.06994,1.314-.80005-2.475,4.34009-1.399-.26-.809-5.58008,1.798Zm4.71009-9.682,2.39,7.395,1.23-.399-1.09009-3.388,1.24-.399c1.57007-.506,2.16-.361,2.63.412a9.52815,9.52815,0,0,0,1.3501,2.043l1.28991-.414c-.21-.144-.3999-.44-1.5299-2.219a1.90866,1.90866,0,0,0-2.1001-.72c1.29-.414,2.06006-1.263,1.70007-2.396-.44006-1.361-1.68005-1.664-3.97-.927Zm2.26989,2.799-.76989-2.389,1.8999-.613c1.15-.369,2.1001-.413,2.4.539.31006.951-.48,1.481-1.63,1.849Z" style="fill: #151515"/>
  </g>
  <g data-color="#FD3C3E" id="wayfair">
    <path  d="M1570.3383,242.55367l61.47,24.25-24.25,61.479-61.47-24.25Z" style="fill: #bdbdbd;stroke: #000;stroke-width: 3px"/>
    <path d="M1566.87834,276.75566l-.92-.363.77-1.147,1.09.429.16-.418-.99-.393,1.18994-1.774-.47-.185-1.18994,1.774-1.48-.585,1.18994-1.774-.47-.185-1.19006,1.774-.92993-.366-.17.418.84.331-.75989,1.15-1-.393-.16.418.9.357-1.20007,1.782.47.182,1.19006-1.782,1.49.587-1.18994,1.783.44995.178,1.18994-1.782,1.03.403Zm-2.87-1.133.77-1.146,1.48.584-.76,1.15Zm16.24,1.628-1.16-.459-4.11,5.074.54-6.48-1.33008-.526-4.0299,5.107.46-6.513-1.16-.459-.35,7.38,1.54.608,3.76-4.731-.48011,6.022,1.54.608Zm3.59,8.935,1.17.459-.45007-7.695-1.78992-.706-5.58008,5.316,1.15.456,1.75-1.702,3.64,1.437Zm-.6-6.933.29.115.15991,3.546-2.99-1.182Zm4.93994,4.996-1.24,3.156,1.08008.429,1.25-3.156,4.26-2.19-1.26-.495-3.22,1.658-1.2301-3.415-1.26-.495Zm3.62012,5.073,1.09.429,1.14-2.905,3.58,1.414.29-.712-3.59009-1.413.86011-2.177,3.81994,1.506.28-.712-4.91-1.935Zm11.8999,4.694,1.16.459-.44995-7.694-1.79-.707-5.58,5.316,1.15991.456,1.74-1.701,3.64,1.436Zm-.61-6.933.30005.115.16,3.546-3-1.182Zm5.25,1.249-2.55994,6.505,1.09.429,2.55993-6.505Zm2.6,1.022-2.56994,6.505,1.09.429,1.17-2.98,1.09.429c1.38.545,1.71.985,1.6,1.791a8.77851,8.77851,0,0,0-.23,2.194l1.13.446a9.91778,9.91778,0,0,1,.21-2.415,1.72831,1.72831,0,0,0-1.04992-1.701c1.13.446,2.15.299,2.54992-.698.4701-1.197-.22-2.118-2.23-2.91Zm-.0299,3.242.82995-2.101,1.68006.66c1,.397,1.68994.91,1.36,1.747-.33008.837-1.19006.751-2.19006.355Z" style="fill: #151515"/>
  </g>
  <g data-color="#FD3C3E" id="area_51" data-name="area 51">
    <path  d="M1006.17832,1236.50063v-880.542h880.54v880.542Z" style="fill: #bdbdbd;stroke: #000;stroke-width: 3px"/>
    <path d="M1242.02836,792.81868h-8.80005l2.64-12h10.4v-4h-9.52l4.08-18.56h-4.48l-4.08,18.56h-14.16l4.08-18.56h-4.48l-4.08,18.56h-8.88v4h8l-2.56006,12h-9.51989v4h8.63989l-4.08,18.64h4.4l4.08-18.64h14.24l-4.08,18.64h4.31994l4.08008-18.64h9.76Zm-27.44006,0,2.64-12h14.16l-2.56006,12Zm100.11,22.64h11.12l-28.79993-62.16h-17.12l-28.8,62.16h11.04l8.88-19.76h34.79993Zm-27.6-55.36h2.8l12.88,28.8h-28.64Zm47.49-6.8v62.16h10.4v-28.48h10.4c13.19995,0,17.36,2.56,19.03991,9.6,3.36011,14.16,4.08008,17.28,5.28,18.88h10.80005c-1.20007-1.6-1.92-4.32-6.16-20.64-1.84-7.2-8.4-9.92-14.24-10.64,10.80005,0,18.80005-4.56,18.80005-14.08,0-11.44-8.7201-16.8-27.92005-16.8Zm10.4,26.88v-20.08h16c9.6,0,16.96,2,16.96,10s-7.36,10.08-16.96,10.08Zm57.49,35.28h49.19995v-6.80005h-38.79992v-20.96h34.24v-6.80005h-34.24v-20.8h36.48v-6.8h-46.88Zm117.61,0h11.12l-28.79992-62.16h-17.12l-28.80005,62.16h11.04l8.88-19.76h34.79992Zm-27.6-55.36h2.80005l12.88,28.8h-28.64Zm134.18006,34.96c0-12.8-10.7201-21.44-22.64-21.44-12.96008,0-17.04,8.08-17.04,8.08l3.76-21.6h33.04v-6.8h-41.92l-5.68006,32.08h10.64s3.68005-3.84,13.12-3.84c9.6001,0,15.76,5.52,15.76,13.52s-6.15991,13.6-15.76,13.6c-19.03991,0-17.76-16.72-17.76-16.72l-10.72,3.12s.80005,21.52,28.48,21.52C1615.94828,816.57869,1626.66838,808.65865,1626.66838,795.05867Zm64.7799,20.4v-6.80005h-16.79992v-55.36h-10.4c0,12.16-8.07995,15.84-24,15.84v7.92c19.84,0,23.92005-4.96,23.92005-16.96l.07995,48.56h-24v6.80005Z" style="fill: #151515"/>
  </g>
    </g>
</svg>
