<?xml version="1.0" encoding="utf-8"?>
<!-- Generator: Adobe Illustrator 24.2.1, SVG Export Plug-In . SVG Version: 6.00 Build 0)  -->
<svg version="1.1" id="Livello_1" xmlns="http://www.w3.org/2000/svg" xmlns:xlink="http://www.w3.org/1999/xlink" x="0px" y="0px"
	 viewBox="0 0 1920 2205.5" style="enable-background:new 0 0 1920 2205.5;" xml:space="preserve">
<style type="text/css">
	.st0{fill:#FD3C3E;}
	.st1{fill:#151515;}
	.st2{fill:none;stroke:#FFFFFF;stroke-width:1.0105;stroke-miterlimit:10;}
	.st3{fill:#FFFFFF;}
	.st4{font-family:'SportingGrotesque-Regular';}
	.st5{font-size:60px;}
</style>
<path class="st0" d="M325.2,100.3c3-14.5,23.7-14.5,26.7,0c2.6,12.5,19.4,14.9,25.4,3.6c7-13,26.8-7.2,25.6,7.5
	c-1,12.7,14.4,19.7,23.3,10.7c10.4-10.5,27.7,0.6,22.5,14.4c-4.5,11.9,8.2,23,19.4,16.8c12.9-7.2,26.4,8.4,17.5,20.2
	c-7.7,10.1,1.4,24.4,13.9,21.6c14.4-3.2,23,15.5,11.1,24.3c-10.2,7.6-5.5,23.8,7.2,24.6c14.7,1,17.7,21.4,3.8,26.4
	c-12,4.4-12,21.3,0,25.6c13.9,5.1,10.9,25.5-3.8,26.4c-12.7,0.8-17.5,17-7.2,24.6c11.9,8.8,3.3,27.5-11.1,24.3
	c-12.4-2.8-21.6,11.4-13.9,21.6c8.9,11.8-4.6,27.4-17.5,20.2c-11.1-6.2-23.9,4.9-19.4,16.8c5.3,13.8-12.1,25-22.5,14.4
	c-8.9-9.1-24.3-2-23.3,10.7c1.2,14.7-18.6,20.5-25.6,7.5c-6-11.2-22.8-8.8-25.4,3.6c-3,14.5-23.7,14.5-26.7,0
	c-2.6-12.5-19.4-14.9-25.4-3.6c-7,13-26.8,7.2-25.6-7.5c1-12.7-14.4-19.7-23.3-10.7c-10.4,10.5-27.7-0.6-22.5-14.4
	c4.5-11.9-8.2-23-19.4-16.8c-12.9,7.2-26.4-8.4-17.5-20.2c7.7-10.1-1.4-24.4-13.9-21.6c-14.4,3.2-23-15.5-11.1-24.3
	c10.2-7.6,5.5-23.8-7.2-24.6c-14.7-1-17.7-21.4-3.8-26.4c12-4.4,12-21.3,0-25.6c-13.9-5.1-10.9-25.5,3.8-26.4
	c12.7-0.8,17.5-17,7.2-24.6c-11.9-8.8-3.3-27.5,11.1-24.3c12.4,2.8,21.6-11.4,13.9-21.6c-8.9-11.8,4.6-27.4,17.5-20.2
	c11.1,6.2,23.9-4.9,19.4-16.8c-5.3-13.8,12.1-25,22.5-14.4c8.9,9.1,24.3,2,23.3-10.7c-1.2-14.7,18.6-20.5,25.6-7.5
	C305.8,115.1,322.6,112.7,325.2,100.3z"/>
<path class="st1" d="M286,299.5l7.5,1.4l8.2-45.1l-7.5-1.4l-3.6,20l-28.4-5.2l3.6-20l-7.5-1.4l-8.2,45.1l7.5,1.4l3.7-20.1l28.4,5.2
	L286,299.5z M304,302.7l35.7,6.5l0.9-4.9l-28.2-5.1l2.8-15.2l24.8,4.5l0.9-4.9l-24.8-4.5l2.7-15.1l26.5,4.8l0.9-4.9l-34-6.2
	L304,302.7z M367,291.6l-4,21.9l7.5,1.4l4-21.9l24.6-19.5l-8.7-1.6l-18.6,14.8l-12.2-20.4l-8.7-1.6L367,291.6z M404.3,274.4
	l-5.1,31.3l6.4,1.2l6.3-31.1L404.3,274.4z M396.1,319.5l7.5,1.4l1.5-8.4l-7.5-1.4L396.1,319.5z"/>
<path class="st0" d="M1605.2,1737.3c3-14.5,23.7-14.5,26.7,0c2.6,12.5,19.4,14.9,25.4,3.6c7-13,26.8-7.2,25.6,7.5
	c-1,12.7,14.4,19.7,23.3,10.7c10.4-10.5,27.7,0.6,22.5,14.4c-4.5,11.9,8.2,23,19.4,16.8c12.9-7.2,26.4,8.4,17.5,20.2
	c-7.7,10.1,1.4,24.4,13.9,21.6c14.4-3.2,23,15.5,11.1,24.3c-10.2,7.6-5.5,23.8,7.2,24.6c14.7,1,17.7,21.4,3.8,26.4
	c-12,4.4-12,21.3,0,25.6c13.9,5.1,10.9,25.5-3.8,26.4c-12.7,0.8-17.5,17-7.2,24.6c11.9,8.8,3.3,27.5-11.1,24.3
	c-12.4-2.8-21.6,11.4-13.9,21.6c8.9,11.8-4.6,27.4-17.5,20.2c-11.1-6.2-23.9,4.9-19.4,16.8c5.3,13.8-12.1,25-22.5,14.4
	c-8.9-9.1-24.3-2-23.3,10.7c1.2,14.7-18.6,20.5-25.6,7.5c-6-11.2-22.8-8.8-25.4,3.6c-3,14.5-23.7,14.5-26.7,0
	c-2.6-12.5-19.4-14.9-25.4-3.6c-7,13-26.8,7.2-25.6-7.5c1-12.7-14.4-19.7-23.3-10.7c-10.4,10.5-27.7-0.6-22.5-14.4
	c4.5-11.9-8.2-23-19.4-16.8c-12.9,7.2-26.4-8.4-17.5-20.2c7.7-10.1-1.4-24.4-13.9-21.6c-14.4,3.2-23-15.5-11.1-24.3
	c10.2-7.6,5.5-23.8-7.2-24.6c-14.7-1-17.7-21.4-3.8-26.4c12-4.4,12-21.3,0-25.6c-13.9-5.1-10.9-25.5,3.8-26.4
	c12.7-0.8,17.5-17,7.2-24.6c-11.9-8.8-3.3-27.5,11.1-24.3c12.4,2.8,21.6-11.4,13.9-21.6c-8.9-11.8,4.6-27.4,17.5-20.2
	c11.1,6.2,23.9-4.9,19.4-16.8c-5.3-13.8,12.1-25,22.5-14.4c8.9,9.1,24.3,2,23.3-10.7c-1.2-14.7,18.6-20.5,25.6-7.5
	C1585.8,1752.1,1602.6,1749.7,1605.2,1737.3z"/>
<path class="st1" d="M1572.1,1948.6l7.6-0.8l-4.9-45.6l-7.6,0.8l2.2,20.2l-28.7,3l-2.2-20.2l-7.6,0.8l4.9,45.6l7.6-0.8l-2.1-20.3
	l28.7-3L1572.1,1948.6z M1590.3,1946.6l36.1-3.9l-0.5-5l-28.5,3.1l-1.6-15.4l25.1-2.7l-0.5-5l-25.1,2.7l-1.7-15.2l26.8-2.9l-0.5-5
	l-34.4,3.7L1590.3,1946.6z M1647.6,1918.1l2.4,22.1l7.6-0.8l-2.4-22.1l18.1-25.7l-8.8,0.9l-13.7,19.5l-17.5-16.1l-8.8,0.9
	L1647.6,1918.1z M1678.5,1891.1l4,31.5l6.5-0.7l-2.8-31.6L1678.5,1891.1z M1683.4,1936.7l7.6-0.8l-0.9-8.5l-7.6,0.8L1683.4,1936.7z"
	/>
<rect class="st2" width="1920" height="2205.5"/>
<text transform="matrix(1 0 0 1 615.3208 515.1582)" class="st3 st4 st5">HELLO STRANGER!</text>
<text transform="matrix(1 0 0 1 403.7208 587.1582)" class="st3 st4 st5">HOW DID YOU END UP HERE?</text>
<g>
	<path class="st3" d="M649.4,1587h-11l-11.8-38.5l-11.7,38.5h-11l-15.9-46.6h8.3l13.1,41.5l12.5-41.5h9.5l12.5,41.5l13.1-41.5h8.3
		L649.4,1587z"/>
	<path class="st3" d="M671.9,1540.4H707v5.1h-27.4v15.6h25.7v5.1h-25.7v15.7h29.1v5.1h-36.9V1540.4z"/>
	<path class="st3" d="M716.6,1540.4h7.8v41.5h26.7v5.1h-34.5V1540.4z"/>
	<path class="st3" d="M756.5,1540.4h7.8v41.5H791v5.1h-34.5V1540.4z"/>
	<path class="st3" d="M804.2,1585.5c0,7.4-4.8,12.1-4.8,12.1l-5.3-1.6c0,0,5.3-3.2,6.5-9h-4.3v-8.7h7.8V1585.5z"/>
	<path class="st3" d="M886.1,1587h-9.6l-27.7-38.5v38.5H841v-46.6h9.6l27.7,38.5v-38.5h7.8V1587z"/>
	<path class="st3" d="M896.9,1540.4H932v5.1h-27.4v15.6h25.7v5.1h-25.7v15.7h29.1v5.1h-36.9V1540.4z"/>
	<path class="st3" d="M969.1,1587h-11l-20.7-46.6h8.3l17.9,41.5l17.9-41.5h8.3L969.1,1587z"/>
	<path class="st3" d="M996.4,1540.4h35.2v5.1h-27.4v15.6h25.7v5.1h-25.7v15.7h29.1v5.1h-36.9V1540.4z"/>
	<path class="st3" d="M1060.9,1540.4c14.4,0,20.9,4,20.9,12.6c0,7.1-6,10.6-14.1,10.6c4.4,0.5,9.3,2.6,10.7,8
		c3.2,12.2,3.7,14.3,4.6,15.5h-8.1c-0.9-1.2-1.4-3.5-4-14.2c-1.3-5.3-4.4-7.2-14.3-7.2h-7.8v21.4h-7.8v-46.6H1060.9z M1060.9,1560.6
		c7.2,0,12.7-1.6,12.7-7.6c0-6-5.5-7.5-12.7-7.5h-12v15.1H1060.9z"/>
	<path class="st3" d="M1142.6,1540.4h12v46.6h-7.8v-38.5l-18.4,38.5h-10.2l-18.4-38.5v38.5h-7.8v-46.6h12l19.3,41.5L1142.6,1540.4z"
		/>
	<path class="st3" d="M1173.2,1540.4v46.6h-7.8v-46.6H1173.2z"/>
	<path class="st3" d="M1229,1587h-9.6l-27.7-38.5v38.5h-7.8v-46.6h9.6l27.7,38.5v-38.5h7.8V1587z"/>
	<path class="st3" d="M1286.2,1563.8c0,14.4-9.8,23.3-25.4,23.3h-21v-46.6h21C1276.4,1540.4,1286.2,1549.3,1286.2,1563.8z
		 M1247.6,1582h9.6c13.2,0,20.8-6.2,20.8-18.2c0-12-7.6-18.2-20.8-18.2h-9.6V1582z"/>
	<path class="st3" d="M1302.4,1540.4l-0.6,32.2h-6.6l-0.6-32.2H1302.4z M1294.6,1578.3h7.8v8.7h-7.8V1578.3z"/>
	<path class="st3" d="M499.5,1659h-21v-46.6h19.8c14.4,0,20.9,4,20.9,11.4c0,9.1-10,10.1-10,10.1s11.2,0.6,11.2,11.8
		C520.4,1654.6,513.9,1659,499.5,1659z M498.3,1632.6c7.2,0,12.7-1.6,12.7-7.6c0-6-5.5-7.5-12.7-7.5h-12v15.1H498.3z M486.3,1654
		h13.2c7.2,0,12.7-1.6,12.7-8.2s-5.5-8.1-12.7-8.1h-13.2V1654z"/>
	<path class="st3" d="M573.6,1612.4v27.4c0,13.4-7.4,20.1-22.1,20.1c-14.6,0-22.1-6.7-22.1-20.1v-27.4h7.8v27.4
		c0,12.1,5.5,14.2,14.3,14.2c8.8,0,14.3-2,14.3-14.2v-27.4H573.6z"/>
	<path class="st3" d="M579,1612.4h47.2v5.1h-19.8v41.5h-7.6v-41.5H579V1612.4z"/>
	<path class="st3" d="M685,1633.1c10.1,2.3,13.7,7.4,13.7,13.4c0,8.8-8.7,13.3-20,13.3c-18.2,0-23.8-10.3-24.1-16.6l8-2.3
		c0,0-1.4,13,15.8,13c7.6,0,12.1-3.2,12.1-7c0-4.5-3.7-5.8-10.6-7.4l-11.3-2.6c-8-1.9-11.9-6.3-11.9-11.9c0-7,5.7-13.4,18.8-13.4
		c20.4,0,20.9,13.9,20.9,13.9l-8,2.2c0,0,0.8-10.1-13.2-10.1c-6.3,0-10.3,2.8-10.3,6.7c0,3.5,3.1,5.1,8.2,6.2L685,1633.1z"/>
	<path class="st3" d="M714.3,1612.4v46.6h-7.8v-46.6H714.3z"/>
	<path class="st3" d="M770.2,1659h-9.6l-27.7-38.5v38.5h-7.8v-46.6h9.6l27.7,38.5v-38.5h7.8V1659z"/>
	<path class="st3" d="M821.7,1633.3c0,0-0.6-15.8-16.6-15.8c-11.3,0-17.8,7.9-17.8,18.2c0,10.3,7.1,18.2,18.4,18.2
		c16.9,0,17.2-14.8,17.2-14.8l8,2.3c0,0-1.9,18.4-25.3,18.4c-16.6,0-26.6-10.1-26.6-24.1c0-14,9.4-24.2,26-24.2
		c22.7,0,24.6,19.3,24.6,19.3L821.7,1633.3z"/>
	<path class="st3" d="M840,1612.4h35.2v5.1h-27.4v15.6h25.7v5.1h-25.7v15.7h29.1v5.1H840V1612.4z"/>
	<path class="st3" d="M905.9,1612.4h9l16,18.2l16-18.2h9l-21.1,24v22.6H927v-22.6L905.9,1612.4z"/>
	<path class="st3" d="M980,1659.9c-16.6,0-27.2-10.1-27.2-24.1c0-14,10.6-24.2,27.2-24.2c16.6,0,27.2,10.1,27.2,24.2
		C1007.3,1649.8,996.6,1659.9,980,1659.9z M980,1617.5c-11.3,0-19,7.9-19,18.2c0,10.3,7.7,18.2,19,18.2c11.3,0,19-7.9,19-18.2
		C999.1,1625.5,991.4,1617.5,980,1617.5z"/>
	<path class="st3" d="M1060.4,1612.4v27.4c0,13.4-7.4,20.1-22.1,20.1c-14.6,0-22.1-6.7-22.1-20.1v-27.4h7.8v27.4
		c0,12.1,5.5,14.2,14.3,14.2c8.8,0,14.3-2,14.3-14.2v-27.4H1060.4z"/>
	<path class="st3" d="M1079,1618.1c0,7.4-4.8,12.1-4.8,12.1l-5.3-1.6c0,0,5.3-3.2,6.5-9h-4.3v-8.7h7.8V1618.1z"/>
	<path class="st3" d="M1109.6,1612.4c14.4,0,20.9,4,20.9,12.6c0,7.1-6,10.6-14.1,10.6c4.4,0.5,9.3,2.6,10.7,8
		c3.2,12.2,3.7,14.3,4.6,15.5h-8.1c-0.9-1.2-1.4-3.5-4-14.2c-1.3-5.3-4.4-7.2-14.3-7.2h-7.8v21.4h-7.8v-46.6H1109.6z M1109.6,1632.6
		c7.2,0,12.7-1.6,12.7-7.6c0-6-5.5-7.5-12.7-7.5h-12v15.1H1109.6z"/>
	<path class="st3" d="M1140.8,1612.4h35.2v5.1h-27.4v15.6h25.7v5.1h-25.7v15.7h29.1v5.1h-36.9V1612.4z"/>
	<path class="st3" d="M1248.7,1638.2h-29.4v20.8h-7.8v-46.6h7.8v20.7h29.4v-20.7h7.8v46.6h-7.8V1638.2z"/>
	<path class="st3" d="M1267.3,1612.4h35.2v5.1h-27.4v15.6h25.7v5.1h-25.7v15.7h29.1v5.1h-36.9V1612.4z"/>
	<path class="st3" d="M1331.8,1612.4c14.4,0,20.9,4,20.9,12.6c0,7.1-6,10.6-14.1,10.6c4.4,0.5,9.3,2.6,10.7,8
		c3.2,12.2,3.7,14.3,4.6,15.5h-8.1c-0.9-1.2-1.4-3.5-4-14.2c-1.3-5.3-4.4-7.2-14.3-7.2h-7.8v21.4h-7.8v-46.6H1331.8z M1331.8,1632.6
		c7.2,0,12.7-1.6,12.7-7.6c0-6-5.5-7.5-12.7-7.5h-12v15.1H1331.8z"/>
	<path class="st3" d="M1363,1612.4h35.2v5.1h-27.4v15.6h25.7v5.1h-25.7v15.7h29.1v5.1H1363V1612.4z"/>
	<path class="st3" d="M1415.5,1657.5c0,7.4-4.8,12.1-4.8,12.1l-5.3-1.6c0,0,5.3-3.2,6.5-9h-4.3v-8.7h7.8V1657.5z"/>
	<path class="st3" d="M297.3,1716.2h-26.1l-6.7,14.8h-8.3l21.6-46.6h12.8l21.6,46.6H304L297.3,1716.2z M273.6,1711.1h21.5l-9.7-21.6
		h-2.1L273.6,1711.1z"/>
	<path class="st3" d="M338.7,1684.4c14.4,0,20.9,4,20.9,12.6c0,7.1-6,10.6-14.1,10.6c4.4,0.5,9.3,2.6,10.7,8
		c3.2,12.2,3.7,14.3,4.6,15.5h-8.1c-0.9-1.2-1.4-3.5-4-14.2c-1.3-5.3-4.4-7.2-14.3-7.2h-7.8v21.4h-7.8v-46.6H338.7z M338.7,1704.6
		c7.2,0,12.7-1.6,12.7-7.6c0-6-5.5-7.5-12.7-7.5h-12v15.1H338.7z"/>
	<path class="st3" d="M369.9,1684.4H405v5.1h-27.4v15.6h25.7v5.1h-25.7v15.7h29.1v5.1h-36.9V1684.4z"/>
	<path class="st3" d="M459.6,1731H450l-27.7-38.5v38.5h-7.8v-46.6h9.6l27.7,38.5v-38.5h7.8V1731z"/>
	<path class="st3" d="M478.2,1690.1c0,7.4-4.8,12.1-4.8,12.1l-5.3-1.6c0,0,5.3-3.2,6.5-9h-4.3v-8.7h7.8V1690.1z"/>
	<path class="st3" d="M483.6,1684.4h47.2v5.1h-19.8v41.5h-7.6v-41.5h-19.8V1684.4z"/>
	<path class="st3" d="M557.5,1684.4h9l16,18.2l16-18.2h9l-21.1,24v22.6h-7.8v-22.6L557.5,1684.4z"/>
	<path class="st3" d="M631.6,1731.9c-16.6,0-27.2-10.1-27.2-24.1c0-14,10.6-24.2,27.2-24.2c16.6,0,27.2,10.1,27.2,24.2
		C658.8,1721.8,648.2,1731.9,631.6,1731.9z M631.6,1689.5c-11.3,0-19,7.9-19,18.2c0,10.3,7.7,18.2,19,18.2c11.3,0,19-7.9,19-18.2
		C650.6,1697.5,642.9,1689.5,631.6,1689.5z"/>
	<path class="st3" d="M712,1684.4v27.4c0,13.4-7.4,20.1-22.1,20.1c-14.6,0-22.1-6.7-22.1-20.1v-27.4h7.8v27.4
		c0,12.1,5.5,14.2,14.3,14.2c8.8,0,14.3-2,14.3-14.2v-27.4H712z"/>
	<path class="st3" d="M789.6,1705.3c0,0-0.6-15.8-16.6-15.8c-11.3,0-17.8,7.9-17.8,18.2c0,10.3,7.1,18.2,18.4,18.2
		c16.9,0,17.2-14.8,17.2-14.8l8,2.3c0,0-1.9,18.4-25.3,18.4c-16.6,0-26.6-10.1-26.6-24.1c0-14,9.4-24.2,26-24.2
		c22.7,0,24.6,19.3,24.6,19.3L789.6,1705.3z"/>
	<path class="st3" d="M852,1684.4v27.4c0,13.4-7.4,20.1-22.1,20.1c-14.6,0-22.1-6.7-22.1-20.1v-27.4h7.8v27.4
		c0,12.1,5.5,14.2,14.3,14.2c8.8,0,14.3-2,14.3-14.2v-27.4H852z"/>
	<path class="st3" d="M882.6,1684.4c14.4,0,20.9,4,20.9,12.6c0,7.1-6,10.6-14.1,10.6c4.4,0.5,9.3,2.6,10.7,8
		c3.2,12.2,3.7,14.3,4.6,15.5h-8.1c-0.9-1.2-1.4-3.5-4-14.2c-1.3-5.3-4.4-7.2-14.3-7.2h-7.8v21.4h-7.8v-46.6H882.6z M882.6,1704.6
		c7.2,0,12.7-1.6,12.7-7.6c0-6-5.5-7.5-12.7-7.5h-12v15.1H882.6z"/>
	<path class="st3" d="M921.6,1684.4v46.6h-7.8v-46.6H921.6z"/>
	<path class="st3" d="M957.7,1731.9c-16.6,0-27.2-10.1-27.2-24.1c0-14,10.6-24.2,27.2-24.2c16.6,0,27.2,10.1,27.2,24.2
		C985,1721.8,974.3,1731.9,957.7,1731.9z M957.7,1689.5c-11.3,0-19,7.9-19,18.2c0,10.3,7.7,18.2,19,18.2c11.3,0,19-7.9,19-18.2
		C976.8,1697.5,969.1,1689.5,957.7,1689.5z"/>
	<path class="st3" d="M1038.1,1684.4v27.4c0,13.4-7.4,20.1-22.1,20.1s-22.1-6.7-22.1-20.1v-27.4h7.8v27.4c0,12.1,5.5,14.2,14.3,14.2
		s14.3-2,14.3-14.2v-27.4H1038.1z"/>
	<path class="st3" d="M1076.3,1705.1c10.1,2.3,13.7,7.4,13.7,13.4c0,8.8-8.7,13.3-20,13.3c-18.2,0-23.8-10.3-24.1-16.6l8-2.3
		c0,0-1.4,13,15.8,13c7.6,0,12.1-3.2,12.1-7c0-4.5-3.7-5.8-10.6-7.4l-11.3-2.6c-8-1.9-11.9-6.3-11.9-11.9c0-7,5.7-13.4,18.8-13.4
		c20.4,0,20.9,13.9,20.9,13.9l-8,2.2c0,0,0.8-10.1-13.2-10.1c-6.3,0-10.3,2.8-10.3,6.7c0,3.5,3.1,5.1,8.2,6.2L1076.3,1705.1z"/>
	<path class="st3" d="M1118.4,1684.4h47.2v5.1h-19.8v41.5h-7.6v-41.5h-19.8V1684.4z"/>
	<path class="st3" d="M1192.2,1731.9c-16.6,0-27.2-10.1-27.2-24.1c0-14,10.6-24.2,27.2-24.2c16.6,0,27.2,10.1,27.2,24.2
		C1219.5,1721.8,1208.8,1731.9,1192.2,1731.9z M1192.2,1689.5c-11.3,0-19,7.9-19,18.2c0,10.3,7.7,18.2,19,18.2
		c11.3,0,19-7.9,19-18.2C1211.2,1697.5,1203.6,1689.5,1192.2,1689.5z"/>
	<path class="st3" d="M1300.9,1707.8c0,14.4-9.8,23.3-25.4,23.3h-21v-46.6h21C1291.1,1684.4,1300.9,1693.3,1300.9,1707.8z
		 M1262.3,1726h9.6c13.2,0,20.8-6.2,20.8-18.2c0-12-7.6-18.2-20.8-18.2h-9.6V1726z"/>
	<path class="st3" d="M1317.7,1684.4v46.6h-7.8v-46.6H1317.7z"/>
	<path class="st3" d="M1355.8,1705.1c10.1,2.3,13.7,7.4,13.7,13.4c0,8.8-8.7,13.3-20,13.3c-18.2,0-23.8-10.3-24.1-16.6l8-2.3
		c0,0-1.4,13,15.8,13c7.6,0,12.1-3.2,12.1-7c0-4.5-3.7-5.8-10.6-7.4l-11.3-2.6c-8-1.9-11.9-6.3-11.9-11.9c0-7,5.7-13.4,18.8-13.4
		c20.4,0,20.9,13.9,20.9,13.9l-8,2.2c0,0,0.8-10.1-13.2-10.1c-6.3,0-10.3,2.8-10.3,6.7c0,3.5,3.1,5.1,8.2,6.2L1355.8,1705.1z"/>
	<path class="st3" d="M1418.1,1705.3c0,0-0.6-15.8-16.6-15.8c-11.3,0-17.8,7.9-17.8,18.2c0,10.3,7.1,18.2,18.4,18.2
		c16.9,0,17.2-14.8,17.2-14.8l8,2.3c0,0-1.9,18.4-25.3,18.4c-16.6,0-26.6-10.1-26.6-24.1c0-14,9.4-24.2,26-24.2
		c22.7,0,24.6,19.3,24.6,19.3L1418.1,1705.3z"/>
	<path class="st3" d="M1461.7,1731.9c-16.6,0-27.2-10.1-27.2-24.1c0-14,10.6-24.2,27.2-24.2c16.6,0,27.2,10.1,27.2,24.2
		C1489,1721.8,1478.3,1731.9,1461.7,1731.9z M1461.7,1689.5c-11.3,0-19,7.9-19,18.2c0,10.3,7.7,18.2,19,18.2c11.3,0,19-7.9,19-18.2
		C1480.8,1697.5,1473.1,1689.5,1461.7,1689.5z"/>
	<path class="st3" d="M1521.3,1731h-11l-20.7-46.6h8.3l17.9,41.5l17.9-41.5h8.3L1521.3,1731z"/>
	<path class="st3" d="M1548.6,1684.4h35.2v5.1h-27.4v15.6h25.7v5.1h-25.7v15.7h29.1v5.1h-36.9V1684.4z"/>
	<path class="st3" d="M1613.1,1684.4c14.4,0,20.9,4,20.9,12.6c0,7.1-6,10.6-14.1,10.6c4.4,0.5,9.3,2.6,10.7,8
		c3.2,12.2,3.7,14.3,4.6,15.5h-8.1c-0.9-1.2-1.4-3.5-4-14.2c-1.3-5.3-4.4-7.2-14.3-7.2h-7.8v21.4h-7.8v-46.6H1613.1z M1613.1,1704.6
		c7.2,0,12.7-1.6,12.7-7.6c0-6-5.5-7.5-12.7-7.5h-12v15.1H1613.1z"/>
	<path class="st3" d="M515.9,1803h-11l-11.8-38.5l-11.7,38.5h-11l-15.9-46.6h8.3l13.1,41.5l12.5-41.5h9.5l12.5,41.5l13.1-41.5h8.3
		L515.9,1803z"/>
	<path class="st3" d="M575.6,1782.2h-29.4v20.8h-7.8v-46.6h7.8v20.7h29.4v-20.7h7.8v46.6h-7.8V1782.2z"/>
	<path class="st3" d="M631,1788.2h-26.1l-6.7,14.8H590l21.6-46.6h12.8L646,1803h-8.3L631,1788.2z M607.2,1783.1h21.5l-9.7-21.6H617
		L607.2,1783.1z"/>
	<path class="st3" d="M638.2,1756.4h47.2v5.1h-19.8v41.5H658v-41.5h-19.8V1756.4z"/>
	<path class="st3" d="M774.1,1803h-11l-11.8-38.5l-11.7,38.5h-11l-15.9-46.6h8.3l13.1,41.5l12.5-41.5h9.5l12.5,41.5l13.1-41.5h8.3
		L774.1,1803z"/>
	<path class="st3" d="M796.6,1756.4h35.2v5.1h-27.4v15.6h25.7v5.1h-25.7v15.7h29.1v5.1h-36.9V1756.4z"/>
	<path class="st3" d="M904.5,1782.2h-29.4v20.8h-7.8v-46.6h7.8v20.7h29.4v-20.7h7.8v46.6h-7.8V1782.2z"/>
	<path class="st3" d="M960,1788.2h-26.1l-6.7,14.8h-8.3l21.6-46.6h12.8L975,1803h-8.3L960,1788.2z M936.2,1783.1h21.5l-9.7-21.6
		h-2.1L936.2,1783.1z"/>
	<path class="st3" d="M1000.1,1803h-11l-20.7-46.6h8.3l17.9,41.5l17.9-41.5h8.3L1000.1,1803z"/>
	<path class="st3" d="M1027.4,1756.4h35.2v5.1h-27.4v15.6h25.7v5.1h-25.7v15.7h29.1v5.1h-36.9V1756.4z"/>
	<path class="st3" d="M1092.8,1756.4h47.2v5.1h-19.8v41.5h-7.6v-41.5h-19.8V1756.4z"/>
	<path class="st3" d="M1166.5,1803.9c-16.6,0-27.2-10.1-27.2-24.1c0-14,10.6-24.2,27.2-24.2c16.6,0,27.2,10.1,27.2,24.2
		C1193.8,1793.8,1183.1,1803.9,1166.5,1803.9z M1166.5,1761.5c-11.3,0-19,7.9-19,18.2c0,10.3,7.7,18.2,19,18.2
		c11.3,0,19-7.9,19-18.2C1185.6,1769.5,1177.9,1761.5,1166.5,1761.5z"/>
	<path class="st3" d="M1223.4,1756.4h47.2v5.1h-19.8v41.5h-7.6v-41.5h-19.8V1756.4z"/>
	<path class="st3" d="M1276,1756.4h35.2v5.1h-27.4v15.6h25.7v5.1h-25.7v15.7h29.1v5.1H1276V1756.4z"/>
	<path class="st3" d="M1320.7,1756.4h7.8v41.5h26.7v5.1h-34.5V1756.4z"/>
	<path class="st3" d="M1360.6,1756.4h7.8v41.5h26.7v5.1h-34.5V1756.4z"/>
	<path class="st3" d="M1420.6,1788.7h-6.6c0-11.4,14.9-8.8,14.9-18.9c0-4.1-3.2-8.2-10-8.2c-13.9,0-12.2,14-12.2,14l-8-2.4
		c0,0,0.9-17.5,20.2-17.5c14,0,18.2,8,18.2,13.5C1437.1,1780,1420.6,1780,1420.6,1788.7z M1413.4,1794.3h7.8v8.7h-7.8V1794.3z"/>
</g>
</svg>
