<svg width="621" height="459" viewBox="0 0 621 459" fill="none" xmlns="http://www.w3.org/2000/svg">
<path d="M571.817 316.376C559.08 354.585 518.559 379.876 462.655 389.517C406.82 399.147 336.038 393.068 263.58 368.914C191.123 344.76 130.851 307.152 91.9617 265.947C53.0244 224.69 35.7834 180.145 48.5204 141.935C61.2575 103.726 101.778 78.4352 157.683 68.7938C213.517 59.1643 284.3 65.2432 356.757 89.3969C429.215 113.55 489.487 151.159 528.376 192.364C567.313 233.621 584.554 278.166 571.817 316.376Z" fill="#C4C4C4" stroke="#151515" stroke-width="3"/>
<path d="M142.864 246.816C147.088 246.816 156.976 242.112 156.976 229.104C156.976 217.104 145.984 208.896 133.888 208.896C118.672 208.896 107.728 219.168 107.728 234.144C107.728 248.352 118.144 258.144 133.504 258.144C142.624 258.144 150.064 254.16 154.864 247.248H151.84C148.096 252.528 140.992 255.744 134.032 255.744C120.352 255.744 111.04 247.2 111.04 233.616C111.04 220.608 121.984 211.344 133.36 211.344C144.688 211.344 154.528 218.208 154.528 230.16C154.528 235.92 151.216 240.336 147.904 242.736C146.368 243.84 145.36 244.32 144.448 244.32C143.392 244.32 143.248 243.36 143.488 242.256L148.432 220.176H145.168L141.376 225.12C141.376 225.12 140.512 219.504 133.312 219.504C125.344 219.504 116.608 226.512 116.608 237.168C116.608 242.256 119.296 247.488 126.736 247.488C134.752 247.488 138.4 240.48 138.4 240.48C138.4 245.232 139.408 246.816 142.864 246.816ZM129.52 243.216C125.056 243.216 122.848 240 122.848 236.16C122.848 228.768 128.32 223.776 133.984 223.776C139.744 223.776 141.712 228.24 140.32 233.52C138.88 238.8 134.56 243.216 129.52 243.216ZM189.207 242.736L173.799 209.52H164.199V246.816H170.439V216L185.127 246.816H193.287L207.975 216V246.816H214.215V209.52H204.615L189.207 242.736ZM222.84 246.816H252.36V242.736H229.08V230.16H249.624V226.08H229.08V213.6H250.968V209.52H222.84V246.816ZM275.405 209.52H258.605V246.816H275.405C287.885 246.816 295.709 239.712 295.709 228.192C295.709 216.624 287.885 209.52 275.405 209.52ZM264.845 213.6H272.525C283.085 213.6 289.133 218.592 289.133 228.192C289.133 237.792 283.085 242.736 272.525 242.736H264.845V213.6ZM302.902 209.52V246.816H309.142V209.52L302.902 209.52ZM352.561 246.816L359.233 246.816L341.953 209.52H331.681L314.401 246.816H321.025L326.353 234.96H347.233L352.561 246.816ZM336.001 213.6H337.681L345.409 230.88H328.225L336.001 213.6ZM418.227 209.52H411.555L401.091 242.736L391.107 209.52H383.475L373.491 242.736L363.027 209.52H356.355L369.075 246.816H377.907L387.267 216L396.675 246.816H405.507L418.227 209.52ZM423.511 209.52V246.816H429.751V209.52H423.511ZM450.755 223.968C446.627 223.056 444.179 221.808 444.179 218.976C444.179 215.808 447.395 213.6 452.435 213.6C463.667 213.6 462.995 221.712 462.995 221.712L469.427 219.984C469.427 219.984 469.043 208.848 452.723 208.848C442.259 208.848 437.699 213.936 437.699 219.552C437.699 224.016 440.819 227.568 447.203 229.056L456.275 231.168C461.747 232.464 464.723 233.52 464.723 237.12C464.723 240.192 461.123 242.736 455.075 242.736C441.251 242.736 442.403 232.32 442.403 232.32L435.971 234.192C436.211 239.232 440.675 247.488 455.219 247.488C464.243 247.488 471.203 243.84 471.203 236.832C471.203 231.984 468.371 227.904 460.259 226.08L450.755 223.968ZM477.465 246.816H506.985V242.736H483.705V230.16H504.249V226.08H483.705V213.6H505.593V209.52H477.465V246.816Z" fill="black"/>
</svg>
