<svg id="Livello_1" data-name="Livello 1" xmlns="http://www.w3.org/2000/svg" viewBox="0 0 355.48 262.07">
  <g>
    <path d="M341.73,221.63c-12,24.26-41.26,37.49-79.62,38.83s-85.18-9.23-131.57-32.08S47.2,174.79,24.92,143.62-4.77,81.1,7.18,56.84,48.43,19.35,86.79,18,172,27.24,218.36,50.09,301.71,103.68,324,134.85,353.67,197.38,341.73,221.63Z" fill="#151515" stroke="#151515" stroke-width="3"/>
    <path d="M348.3,205.23c-11.95,24.25-41.26,37.49-79.62,38.82S183.5,234.83,137.11,212,53.77,158.39,31.49,127.22,1.8,64.69,13.75,40.44,55,3,93.36,1.61s85.19,9.23,131.57,32.07,83.35,53.6,105.62,84.77S360.24,181,348.3,205.23Z" fill="#e9e9e9" stroke="#151515" stroke-width="3"/>
    <path d="M125.43,112.77h4.17L118.8,89.46h-6.42l-10.8,23.31h4.14l3.33-7.41h13ZM115.08,92h1l4.83,10.8H110.22Zm17.81,20.76h17.25v-2.55H136.79V89.46h-3.9Zm20,0h18.45v-2.55H156.74v-7.86h12.84V99.81H156.74V92h13.68V89.46H152.84Zm30.1-14.28c-2.58-.57-4.11-1.35-4.11-3.12,0-2,2-3.36,5.16-3.36,7,0,6.6,5.07,6.6,5.07l4-1.08s-.24-7-10.44-7c-6.54,0-9.39,3.18-9.39,6.69,0,2.79,1.95,5,5.94,5.94l5.67,1.32c3.42.81,5.28,1.47,5.28,3.72,0,1.92-2.25,3.51-6,3.51-8.64,0-7.92-6.51-7.92-6.51l-4,1.17c.15,3.15,2.94,8.31,12,8.31,5.64,0,10-2.28,10-6.66,0-3-1.77-5.58-6.84-6.72Zm24.43,0c-2.58-.57-4.11-1.35-4.11-3.12,0-2,2-3.36,5.16-3.36,7,0,6.6,5.07,6.6,5.07L219,96s-.24-7-10.44-7c-6.54,0-9.39,3.18-9.39,6.69,0,2.79,1.95,5,5.94,5.94l5.67,1.32c3.42.81,5.28,1.47,5.28,3.72,0,1.92-2.25,3.51-6,3.51-8.64,0-7.92-6.51-7.92-6.51l-4,1.17c.15,3.15,2.94,8.31,12,8.31,5.64,0,10-2.28,10-6.66,0-3-1.77-5.58-6.84-6.72Zm16.69-9v23.31H228V89.46Zm31,23.31h4.17l-10.8-23.31h-6.42l-10.8,23.31h4.14l3.33-7.41h13.05ZM244.75,92h1.05l4.83,10.8H239.89Zm-137.2,47.45v23.31h3.9V152.09h3.9c5,0,6.51,1,7.14,3.6,1.26,5.31,1.53,6.48,2,7.08h4.05c-.45-.6-.72-1.62-2.31-7.74-.69-2.7-3.15-3.72-5.34-4,4,0,7-1.71,7-5.28,0-4.29-3.27-6.3-10.47-6.3Zm3.9,10.08V142h6c3.6,0,6.36.75,6.36,3.75s-2.76,3.78-6.36,3.78Zm47.28,1.59c0-7-5.34-12.09-13.62-12.09s-13.59,5.07-13.59,12.09,5.31,12.06,13.59,12.06S158.73,158.12,158.73,151.13Zm-4.11,0c0,5.13-3.84,9.09-9.51,9.09s-9.48-4-9.48-9.09,3.84-9.12,9.48-9.12S154.62,146,154.62,151.13Zm19.12-11.67h-10.5v23.31h10.5c7.8,0,12.69-4.44,12.69-11.64S181.54,139.46,173.74,139.46Zm-6.6,2.55h4.8c6.6,0,10.38,3.12,10.38,9.12s-3.78,9.09-10.38,9.09h-4.8Zm23.79,20.76h17.25v-2.55H194.83V139.46h-3.9Zm19.95,0h18.45v-2.55H214.78v-7.86h12.84v-2.55H214.78V142h13.68v-2.55H210.88Zm22.35-23.31v23.31h3.9V152.09H241c4.95,0,6.51,1,7.14,3.6,1.26,5.31,1.53,6.48,2,7.08h4c-.45-.6-.72-1.62-2.31-7.74-.69-2.7-3.15-3.72-5.34-4,4,0,7-1.71,7-5.28,0-4.29-3.27-6.3-10.47-6.3Zm3.9,10.08V142h6c3.6,0,6.36.75,6.36,3.75s-2.76,3.78-6.36,3.78Z" fill="#151515"/>
  </g>
</svg>
