<svg id="Livello_1" data-name="Livello 1" xmlns="http://www.w3.org/2000/svg" viewBox="0 0 443.77 450.01">
  <g>
    <path d="M223.81,111l1.15,3.11,1.58-2.91L274,23.62l-3.83,99.54-.12,3.31,2.57-2.09L349.92,61.6l-41.63,90.5-1.38,3,3.17-1,95.48-28.4-73.1,67.68L330,195.69l3.3.34,99.08,10.3L339,240.88,335.87,242l2.92,1.58L426.39,291l-99.55-3.83-3.31-.13,2.09,2.57L388.4,367l-90.5-41.63-3-1.38.94,3.17,28.41,95.48-67.68-73.09-2.25-2.43L254,350.4l-10.29,99.08-34.56-93.43L208,353l-1.57,2.91L159,443.46l3.83-99.54.12-3.31-2.57,2.08L83,405.48,124.64,315l1.39-3-3.18.94L27.37,341.32l73.1-67.68,2.43-2.25-3.3-.34L.52,260.75,94,226.2l3.11-1.15-2.91-1.58L6.54,176l99.55,3.83,3.31.13-2.09-2.57L44.53,100.08,135,141.72l3,1.38-.95-3.18-28.4-95.48,67.68,73.1,2.25,2.43.34-3.29,10.29-99.09Z" fill="#151515" stroke="#151515" stroke-width="3"/>
    <path d="M234.65,94l1.14,3.11,1.58-2.91L284.8,6.54,281,106.09l-.13,3.31,2.57-2.09,77.35-62.78L319.13,135l-1.39,3,3.18-.95,95.48-28.4-73.1,67.68-2.43,2.25,3.29.34,99.09,10.29-93.43,34.56L346.71,225l2.91,1.58L437.22,274l-99.54-3.83-3.31-.12,2.09,2.57,62.78,77.34-90.5-41.63-3-1.38.95,3.17,28.4,95.48-67.68-73.1L265.15,330l-.34,3.3-10.3,99.08L220,339l-1.15-3.11-1.58,2.92-47.43,87.6,3.83-99.55.13-3.31-2.57,2.09L93.85,388.4l41.63-90.5,1.38-3-3.17.94L38.21,324.25l73.09-67.68,2.43-2.25-3.29-.35L11.36,243.68l93.43-34.56,3.1-1.15L105,206.4,17.38,159l99.54,3.83,3.31.12-2.08-2.57L55.36,83l90.5,41.63,3,1.39-.94-3.18L119.52,27.37l67.68,73.1,2.25,2.43.34-3.3L200.09.52Z" fill="#e9e9e9" stroke="#151515" stroke-width="3"/>
    <path d="M180.21,184s-1-9.66-12.3-9.66c-8.28,0-13,5.07-13,12.09s5,12.06,13.29,12.06c11.7,0,12.63-9.21,12.63-9.21l-4-1.17s-.18,7.41-8.61,7.41a8.73,8.73,0,0,1-9.18-9.09c0-5.16,3.24-9.12,8.88-9.12,8,0,8.28,7.89,8.28,7.89Zm5.14,14.07H203.8v-2.55H189.25v-7.86h12.84v-2.55H189.25v-7.8h13.68v-2.55H185.35ZM232.1,184s-1-9.66-12.3-9.66c-8.28,0-13,5.07-13,12.09s5,12.06,13.29,12.06c11.7,0,12.63-9.21,12.63-9.21l-4-1.17s-.18,7.41-8.61,7.41a8.73,8.73,0,0,1-9.18-9.09c0-5.16,3.24-9.12,8.88-9.12,8,0,8.28,7.89,8.28,7.89Zm5.14-9.24V198.1h3.9V174.79Zm9.28,23.31h17.25v-2.55H250.42V174.79h-3.9Zm20-23.31V198.1h3.9V174.79Zm31,23.31h4.17l-10.8-23.31h-6.42l-10.8,23.31h4.14l3.33-7.41h13.05Zm-10.35-20.76h1l4.83,10.8H282.3ZM141.51,233.13s-1.38-8.76-12.21-8.76c-8.28,0-13,5.07-13,12.09s4.71,12.06,12.09,12.06c7.2,0,8.82-4.92,8.82-4.92v4.5h3.9V236.28H128.43v2.55h8.79s-.45,6.72-8.22,6.72c-5.34,0-8.58-4-8.58-9.09s3.24-9.12,8.88-9.12a7.89,7.89,0,0,1,8.19,7Zm27,15h4.17l-10.8-23.31h-6.42l-10.8,23.31h4.14l3.33-7.41h13Zm-10.35-20.76h1l4.83,10.8H153.25Zm17.81,20.76h18.45v-2.55H179.82v-7.86h12.84v-2.55H179.82v-7.8H193.5v-2.55H175.92Zm19.65-20.76h9.9V248.1h3.81V227.34h9.9v-2.55H195.57Zm43.55,20.76h4.17l-10.8-23.31h-6.42l-10.8,23.31h4.14l3.33-7.41h13Zm-10.35-20.76h1l4.83,10.8H223.91Zm17.81-2.55V248.1h3.9V237.42h3.9c4.95,0,6.51,1,7.14,3.6,1.26,5.31,1.53,6.48,2,7.08h4.05c-.45-.6-.72-1.62-2.31-7.74-.69-2.7-3.15-3.72-5.34-4,4.05,0,7.05-1.71,7.05-5.28,0-4.29-3.27-6.3-10.47-6.3Zm3.9,10.08v-7.53h6c3.6,0,6.36.75,6.36,3.75s-2.76,3.78-6.36,3.78ZM272,248.1h18.45v-2.55H275.94v-7.86h12.84v-2.55H275.94v-7.8h13.68v-2.55H272Zm22.36,0h17.25v-2.55H298.3V224.79h-3.9Zm20,0H331.6v-2.55H318.25V224.79h-3.9Zm19.95-23.31V248.1h3.9V224.79Z" fill="#151515"/>
  </g>
</svg>
