<svg id="Livello_1" data-name="Livello 1" xmlns="http://www.w3.org/2000/svg" viewBox="0 0 264.31 270.74">
  <g>
    <path d="M118.77,22.5c1.78-8.48,13.87-8.48,15.65,0A10,10,0,0,0,153,25.17c4.09-7.63,15.7-4.22,15,4.41a10,10,0,0,0,17.09,7.8c6.08-6.16,16.25.38,13.17,8.47a10,10,0,0,0,14.2,12.3C220.07,54,228,63.09,222.75,70a10,10,0,0,0,10.16,15.81c8.44-1.9,13.46,9.1,6.5,14.24a10,10,0,0,0,5.29,18c8.64.56,10.36,12.53,2.23,15.5a10,10,0,0,0,0,18.79c8.13,3,6.41,14.93-2.23,15.49a10,10,0,0,0-5.29,18c7,5.14,1.94,16.14-6.5,14.24a10,10,0,0,0-10.16,15.8c5.24,6.9-2.68,16-10.25,11.83A10,10,0,0,0,198.3,240c3.08,8.09-7.09,14.62-13.17,8.46A10,10,0,0,0,168,256.3c.68,8.63-10.93,12-15,4.42a10,10,0,0,0-18.6,2.67c-1.78,8.47-13.87,8.47-15.65,0a10,10,0,0,0-18.6-2.67c-4.09,7.62-15.7,4.21-15-4.42a10,10,0,0,0-17.09-7.8c-6.07,6.16-16.25-.37-13.17-8.46a10,10,0,0,0-14.2-12.31c-7.56,4.21-15.48-4.93-10.25-11.83a10,10,0,0,0-10.15-15.8c-8.45,1.9-13.47-9.1-6.51-14.24a10,10,0,0,0-5.29-18c-8.64-.56-10.36-12.53-2.23-15.49a10,10,0,0,0,0-18.79c-8.13-3-6.41-14.94,2.23-15.5a10,10,0,0,0,5.29-18c-7-5.14-1.94-16.14,6.51-14.24A10,10,0,0,0,30.44,70c-5.23-6.89,2.69-16,10.25-11.83a10,10,0,0,0,14.2-12.3c-3.08-8.09,7.1-14.63,13.17-8.47a10,10,0,0,0,17.09-7.8c-.68-8.63,10.93-12,15-4.41A10,10,0,0,0,118.77,22.5Z" fill="#151515" stroke="#000" stroke-width="2"/>
    <path d="M129.89,7.35c1.78-8.47,13.88-8.47,15.66,0A10,10,0,0,0,164.14,10c4.1-7.63,15.7-4.22,15,4.41a10,10,0,0,0,17.08,7.8c6.08-6.16,16.26.38,13.18,8.47A10,10,0,0,0,223.62,43c7.57-4.2,15.49,4.94,10.25,11.83A10,10,0,0,0,244,70.64c8.44-1.89,13.47,9.11,6.5,14.25a10,10,0,0,0,5.29,18c8.64.56,10.36,12.53,2.23,15.5a10,10,0,0,0,0,18.78c8.13,3,6.41,14.94-2.23,15.5a10,10,0,0,0-5.29,18c7,5.13,1.94,16.14-6.5,14.24a10,10,0,0,0-10.16,15.8c5.24,6.89-2.68,16-10.25,11.83a10,10,0,0,0-14.19,12.3c3.08,8.09-7.1,14.63-13.18,8.47a10,10,0,0,0-17.08,7.8c.67,8.63-10.93,12-15,4.41a10,10,0,0,0-18.59,2.68c-1.78,8.47-13.88,8.47-15.66,0a10,10,0,0,0-18.59-2.68c-4.1,7.63-15.7,4.22-15-4.41a10,10,0,0,0-17.09-7.8c-6.08,6.16-16.25-.38-13.17-8.47a10,10,0,0,0-14.2-12.3c-7.57,4.2-15.49-4.94-10.25-11.83A10,10,0,0,0,31.41,185c-8.45,1.9-13.47-9.11-6.5-14.24a10,10,0,0,0-5.3-18c-8.63-.56-10.36-12.53-2.22-15.5a10,10,0,0,0,0-18.78c-8.14-3-6.41-14.94,2.22-15.5a10,10,0,0,0,5.3-18c-7-5.14-1.95-16.14,6.5-14.25a10,10,0,0,0,10.16-15.8C36.33,48,44.25,38.81,51.82,43A10,10,0,0,0,66,30.71c-3.08-8.09,7.09-14.63,13.17-8.47a10,10,0,0,0,17.09-7.8c-.68-8.63,10.92-12,15-4.41A10,10,0,0,0,129.89,7.35Z" fill="#e9e9e9" stroke="#000" stroke-width="2"/>
    <path d="M71.7,135.09s-1-9.66-12.3-9.66c-8.28,0-13,5.07-13,12.09s5,12.06,13.29,12.06c11.7,0,12.63-9.21,12.63-9.21l-4-1.17s-.18,7.41-8.61,7.41a8.73,8.73,0,0,1-9.18-9.09c0-5.16,3.24-9.12,8.88-9.12,8,0,8.28,7.89,8.28,7.89Zm31.45,2.43c0-7-5.34-12.09-13.62-12.09s-13.59,5.07-13.59,12.09,5.31,12.06,13.59,12.06S103.15,144.51,103.15,137.52Zm-4.11,0c0,5.13-3.84,9.09-9.51,9.09s-9.48-4-9.48-9.09,3.84-9.12,9.48-9.12S99,132.36,99,137.52Zm31.15-11.67h-3.9v19.26l-13.83-19.26h-4.8v23.31h3.9V129.9l13.83,19.26h4.8ZM160,135.09s-1-9.66-12.3-9.66c-8.28,0-13,5.07-13,12.09s5,12.06,13.29,12.06c11.7,0,12.63-9.21,12.63-9.21l-4-1.17s-.18,7.41-8.61,7.41a8.73,8.73,0,0,1-9.18-9.09c0-5.16,3.24-9.12,8.88-9.12,8,0,8.28,7.89,8.28,7.89Zm5.15,14.07h18.44v-2.55H169v-7.86h12.84V136.2H169v-7.8h13.68v-2.55H165.12Zm22.35-23.31v23.31h3.9V138.48h6c7.2,0,10.47-2,10.47-6.33s-3.27-6.3-10.47-6.3Zm3.9,10.08V128.4h6c3.6,0,6.36.75,6.36,3.75s-2.76,3.78-6.36,3.78Zm17.07-7.53h9.9v20.76h3.81V128.4h9.9v-2.55H208.44Z" fill="#151515"/>
  </g>
</svg>
