<svg width="493" height="493" viewBox="0 0 493 493" fill="none" xmlns="http://www.w3.org/2000/svg">
<path d="M233.144 63.5211C236.183 49.068 256.817 49.068 259.856 63.5211C262.475 75.9776 279.214 78.3842 285.236 67.1702C292.224 54.1587 312.022 59.9721 310.866 74.6959C309.87 87.3856 325.252 94.4105 334.19 85.3475C344.56 74.8318 361.919 85.9875 356.662 99.7892C352.131 111.684 364.911 122.758 376.04 116.58C388.953 109.412 402.465 125.007 393.533 136.768C385.834 146.905 394.976 161.131 407.395 158.339C421.805 155.099 430.376 173.869 418.492 182.637C408.249 190.194 413.013 206.42 425.716 207.239C440.454 208.19 443.391 228.615 429.517 233.68C417.56 238.045 417.56 254.955 429.517 259.32C443.391 264.385 440.454 284.81 425.716 285.761C413.013 286.58 408.249 302.806 418.492 310.363C430.376 319.131 421.805 337.901 407.395 334.661C394.976 331.869 385.834 346.095 393.533 356.232C402.465 367.993 388.953 383.588 376.04 376.42C364.911 370.242 352.131 381.316 356.662 393.211C361.919 407.012 344.56 418.168 334.19 407.652C325.252 398.589 309.87 405.614 310.866 418.304C312.022 433.028 292.224 438.841 285.236 425.83C279.214 414.616 262.475 417.022 259.856 429.479C256.817 443.932 236.183 443.932 233.144 429.479C230.525 417.022 213.786 414.616 207.764 425.83C200.776 438.841 180.978 433.028 182.134 418.304C183.13 405.614 167.748 398.589 158.81 407.652C148.44 418.168 131.081 407.013 136.338 393.211C140.869 381.316 128.089 370.242 116.96 376.42C104.047 383.588 90.5346 367.993 99.4674 356.232C107.166 346.095 98.0236 331.869 85.6049 334.661C71.1954 337.901 62.6236 319.131 74.5082 310.363C84.751 302.806 79.9867 286.58 67.2844 285.761C52.5459 284.81 49.6093 264.385 63.4828 259.32C75.4397 254.955 75.4397 238.045 63.4828 233.68C49.6093 228.615 52.5459 208.19 67.2844 207.239C79.9867 206.42 84.751 190.194 74.5082 182.637C62.6236 173.869 71.1954 155.099 85.6049 158.339C98.0236 161.131 107.166 146.905 99.4674 136.768C90.5346 125.007 104.047 109.412 116.96 116.58C128.089 122.758 140.869 111.684 136.338 99.7892C131.081 85.9875 148.44 74.8318 158.81 85.3475C167.748 94.4105 183.13 87.3856 182.134 74.6959C180.978 59.9721 200.776 54.1587 207.764 67.1702C213.786 78.3842 230.525 75.9776 233.144 63.5211Z" fill="#FD3C3E"/>
<path d="M193.99 262.711L201.536 264.085L209.749 218.984L202.203 217.609L198.556 237.635L170.114 232.456L173.761 212.43L166.215 211.056L158.002 256.157L165.548 257.531L169.216 237.39L197.658 242.569L193.99 262.711ZM211.966 265.984L247.664 272.485L248.562 267.551L220.41 262.424L223.18 247.217L248.023 251.741L248.922 246.807L224.078 242.283L226.826 227.191L253.295 232.011L254.194 227.077L220.179 220.883L211.966 265.984ZM274.932 254.842L270.947 276.725L278.493 278.099L282.478 256.216L307.08 236.708L298.373 235.122L279.73 249.898L267.493 229.499L258.786 227.913L274.932 254.842ZM312.278 237.654L307.183 268.93L313.568 270.093L319.824 239.028L312.278 237.654ZM304.065 282.756L311.611 284.13L313.144 275.713L305.598 274.339L304.065 282.756Z" fill="#151515"/>
</svg>
