<svg id="Livello_1" data-name="Livello 1" xmlns="http://www.w3.org/2000/svg" viewBox="0 0 295.82 304.24">
  <g>
    <rect x="36.89" y="50.23" width="217.12" height="217.12" transform="translate(-53.25 75.79) rotate(-24.84)" fill="#151515" stroke="#000" stroke-width="2"/>
    <rect x="41.81" y="36.89" width="217.12" height="217.12" transform="translate(-47.19 76.62) rotate(-24.84)" fill="#e9e9e9" stroke="#000" stroke-width="2"/>
    <path d="M82.88,154.38h3.9V144H99.62v-2.55H86.78v-7.8h13.68v-2.55H82.88Zm20.89,0h3.9V150h-3.9Zm31,0H139l-10.8-23.31h-6.42L111,154.38h4.14l3.33-7.41h13Zm-10.35-20.76h1l4.83,10.8H119.59Zm17.81,20.76h3.9V150h-3.9Zm33.68-14.07s-1-9.66-12.3-9.66c-8.28,0-13,5.07-13,12.09s5,12.06,13.29,12.06c11.7,0,12.63-9.21,12.63-9.21l-4-1.17s-.18,7.41-8.61,7.41a8.73,8.73,0,0,1-9.18-9.09c0-5.16,3.24-9.12,8.88-9.12,8,0,8.28,7.89,8.28,7.89Zm5.14,14.07H185V150h-3.9Zm6.59-20.76h9.9v20.76h3.81V133.62h9.9v-2.55H187.67ZM214,154.38h3.9V150H214Z" fill="#151515"/>
  </g>
</svg>
