<svg id="Livello_1" data-name="Livello 1" xmlns="http://www.w3.org/2000/svg" viewBox="0 0 312.13 312.23">
  <g>
    <path d="M139.88,20.58c2-9.61,15.74-9.61,17.77,0a12.07,12.07,0,0,0,22.45,3.23c4.65-8.65,17.81-4.78,17,5a12.08,12.08,0,0,0,20.64,9.42c6.89-7,18.44.43,14.94,9.6A12.08,12.08,0,0,0,249.87,62.7c8.58-4.77,17.57,5.6,11.63,13.42a12.08,12.08,0,0,0,12.26,19.09c9.58-2.16,15.28,10.32,7.38,16.15a12.08,12.08,0,0,0,6.39,21.77c9.8.63,11.76,14.21,2.53,17.58a12.08,12.08,0,0,0,0,22.69c9.23,3.37,7.27,16.95-2.53,17.58a12.08,12.08,0,0,0-6.39,21.77c7.9,5.83,2.2,18.31-7.38,16.15A12.08,12.08,0,0,0,261.5,248c5.94,7.82-3.05,18.19-11.63,13.42a12.08,12.08,0,0,0-17.15,14.86c3.5,9.18-8.05,16.59-14.94,9.6a12.08,12.08,0,0,0-20.64,9.42c.77,9.8-12.39,13.66-17,5a12.07,12.07,0,0,0-22.45,3.23c-2,9.61-15.75,9.61-17.77,0a12.07,12.07,0,0,0-22.45-3.23c-4.65,8.65-17.81,4.79-17-5a12.08,12.08,0,0,0-20.64-9.42c-6.9,7-18.44-.42-14.94-9.6a12.08,12.08,0,0,0-17.15-14.86C39.08,266.18,30.09,255.81,36,248A12.08,12.08,0,0,0,23.77,228.9c-9.59,2.16-15.28-10.32-7.38-16.15A12.08,12.08,0,0,0,10,191c-9.8-.63-11.76-14.21-2.53-17.58a12.08,12.08,0,0,0,0-22.69c-9.23-3.37-7.27-17,2.53-17.58a12.08,12.08,0,0,0,6.39-21.77c-7.9-5.83-2.21-18.31,7.38-16.15A12.08,12.08,0,0,0,36,76.12c-5.94-7.82,3-18.19,11.63-13.42A12.08,12.08,0,0,0,64.81,47.84c-3.5-9.17,8-16.59,14.94-9.6a12.08,12.08,0,0,0,20.64-9.42c-.77-9.79,12.39-13.66,17-5A12.07,12.07,0,0,0,139.88,20.58Z" fill="#151515" stroke="#151515" stroke-width="3"/>
    <path d="M154.49,8.71c2-9.61,15.74-9.61,17.76,0a12.07,12.07,0,0,0,22.45,3.23c4.65-8.66,17.81-4.79,17,5a12.08,12.08,0,0,0,20.64,9.42c6.9-7,18.44.43,14.94,9.61a12.07,12.07,0,0,0,17.15,14.85c8.58-4.76,17.57,5.61,11.63,13.43a12.07,12.07,0,0,0,12.26,19.08c9.59-2.15,15.29,10.33,7.38,16.16a12.08,12.08,0,0,0,6.39,21.77c9.8.63,11.76,14.21,2.53,17.58a12.07,12.07,0,0,0,0,22.68c9.23,3.37,7.27,16.95-2.53,17.58a12.08,12.08,0,0,0-6.39,21.77c7.91,5.83,2.21,18.31-7.38,16.16a12.07,12.07,0,0,0-12.26,19.08c5.94,7.82-3.05,18.19-11.63,13.43a12.07,12.07,0,0,0-17.15,14.85c3.5,9.18-8,16.6-14.94,9.61a12.08,12.08,0,0,0-20.64,9.42c.77,9.79-12.39,13.66-17,5a12.07,12.07,0,0,0-22.45,3.23c-2,9.61-15.74,9.61-17.76,0A12.08,12.08,0,0,0,132,288.42c-4.65,8.66-17.81,4.79-17-5A12.08,12.08,0,0,0,94.35,274c-6.89,7-18.44-.43-14.94-9.61a12.07,12.07,0,0,0-17.15-14.85c-8.58,4.76-17.57-5.61-11.63-13.43A12.07,12.07,0,0,0,38.37,217c-9.58,2.15-15.28-10.33-7.38-16.16A12.08,12.08,0,0,0,24.6,179.1c-9.8-.63-11.76-14.21-2.53-17.58a12.07,12.07,0,0,0,0-22.68c-9.23-3.37-7.27-17,2.53-17.58A12.08,12.08,0,0,0,31,99.49c-7.9-5.83-2.2-18.31,7.38-16.16A12.07,12.07,0,0,0,50.63,64.25c-5.94-7.82,3-18.19,11.63-13.43A12.07,12.07,0,0,0,79.41,36c-3.5-9.18,8-16.6,14.94-9.61A12.08,12.08,0,0,0,115,16.94c-.77-9.79,12.39-13.66,17-5A12.08,12.08,0,0,0,154.49,8.71Z" fill="#e9e9e9" stroke="#151515" stroke-width="3"/>
    <path d="M129.78,123.65s-1.38-8.76-12.21-8.76c-8.28,0-13,5.07-13,12.09S109.29,139,116.67,139c7.2,0,8.82-4.92,8.82-4.92v4.5h3.9V126.8H116.7v2.55h8.79s-.45,6.72-8.22,6.72c-5.34,0-8.58-4-8.58-9.09s3.24-9.12,8.88-9.12a7.89,7.89,0,0,1,8.19,7Zm5.21-8.34v23.31h3.9V115.31Zm27.46,0V129c0,6.06-2.73,7.08-7.14,7.08s-7.14-1-7.14-7.08V115.31h-3.9V129c0,6.72,3.72,10,11,10s11-3.33,11-10V115.31Zm9.3,23.31H189v-2.55H175.65V115.31h-3.9Zm20-23.31v23.31h3.9V115.31Zm31,23.31h4.17l-10.8-23.31h-6.42l-10.8,23.31H203l3.33-7.41h13Zm-10.35-20.76h1.05l4.83,10.8H207.53ZM105.68,182c0-5.61-5.61-5.91-5.61-5.91s5-.54,5-5.07c0-3.69-3.27-5.7-10.47-5.7h-9.9v23.31h10.5C102.41,188.62,105.68,186.4,105.68,182Zm-17.07-6.6v-7.53h6c3.6,0,6.36.75,6.36,3.75s-2.76,3.78-6.36,3.78Zm0,2.55h6.6c3.6,0,6.36.75,6.36,4.05s-2.76,4.08-6.36,4.08h-6.6Zm43.31,10.68h4.17l-10.8-23.31h-6.42l-10.8,23.31h4.14l3.33-7.41h13Zm-10.35-20.76h1.05l4.83,10.8H116.71Zm17.81-2.55v23.31h3.9V177.94h3.9c4.95,0,6.51,1,7.14,3.6,1.26,5.31,1.53,6.48,2,7.08h4c-.45-.6-.72-1.62-2.31-7.74-.69-2.7-3.15-3.72-5.34-4,4.05,0,7.05-1.71,7.05-5.28,0-4.29-3.27-6.3-10.47-6.3Zm3.9,10.08v-7.53h6c3.6,0,6.36.75,6.36,3.75s-2.76,3.78-6.36,3.78Zm43.31,13.23h4.17L180,165.31h-6.42l-10.8,23.31h4.14l3.33-7.41h13Zm-10.35-20.76h1l4.83,10.8H171.38Zm17.81,20.76H211.3v-2.55H198V165.31h-3.9Zm30.45-23.31H214v23.31h10.5c7.8,0,12.69-4.44,12.69-11.64S232.3,165.31,224.5,165.31Zm-6.6,2.55h4.8c6.6,0,10.38,3.12,10.38,9.12s-3.78,9.09-10.38,9.09h-4.8Zm23.79-2.55v23.31h3.9V165.31Z" fill="#151515"/>
  </g>
</svg>
