<svg id="Livello_1" data-name="Livello 1" xmlns="http://www.w3.org/2000/svg" viewBox="0 0 282.11 306.38">
  <g>
    <path d="M3,178.13,244.92,10.65,269,303.91Z" fill="#151515" stroke="#151515" stroke-width="3"/>
    <path d="M14.4,170.19,256.33,2.71,280.4,296Z" fill="#e9e9e9" stroke="#151515" stroke-width="3"/>
    <path d="M153.36,148.1h4.17l-10.8-23.31h-6.42l-10.8,23.31h4.14l3.33-7.41H150ZM143,127.34h1.05l4.83,10.8H138.15Zm17.81,20.76h17.25v-2.55H164.72V124.79h-3.9Zm20-23.31V148.1h3.9V124.79Zm31,23.31H216l-10.8-23.31h-6.42L188,148.1h4.14l3.33-7.41h13Zm-10.35-20.76h1l4.83,10.8H196.6Zm-79.3,70.76h4.5l-12.3-14,10.5-9.3h-4.8l-12.06,11v-11h-3.9V198.1H108v-8.4l3.81-3.39Zm29.56,0h4.17l-10.8-23.31h-6.42l-10.8,23.31H132l3.33-7.41h13Zm-10.35-20.76h1l4.83,10.8H136.51Zm36-2.55v13.68c0,6.06-2.73,7.08-7.14,7.08s-7.14-1-7.14-7.08V174.79h-3.9v13.68c0,6.72,3.72,10.05,11,10.05s11-3.33,11-10.05V174.79ZM213,186.46c0-7-5.34-12.09-13.62-12.09s-13.59,5.07-13.59,12.09,5.31,12.06,13.59,12.06S213,193.45,213,186.46Zm-4.11,0c0,5.13-3.84,9.09-9.51,9.09s-9.48-4-9.48-9.09,3.84-9.12,9.48-9.12S208.86,181.3,208.86,186.46Zm8.62,11.64h18.45v-2.55H221.38v-7.86h12.84v-2.55H221.38v-7.8h13.68v-2.55H217.48Zm22.36,0h17.25v-2.55H243.74V174.79h-3.9Z" fill="#151515"/>
  </g>
</svg>
