<svg id="Livello_1" data-name="Livello 1" xmlns="http://www.w3.org/2000/svg" viewBox="0 0 252.08 288.42">
  <g>
    <path d="M2,170.06,226.5,14.65l22.33,272.13Z" fill="#151515" stroke="#151515" stroke-width="2"/>
    <path d="M4.1,157.22,228.6,1.81l22.34,272.13Z" fill="#e9e9e9" stroke="#151515" stroke-width="2"/>
    <path d="M96.88,144.89h9.9v20.76h3.81V144.89h9.9v-2.55H96.88Zm26.32,20.76h18.45V163.1H127.1v-7.86h12.84v-2.55H127.1v-7.8h13.68v-2.55H123.2Zm44.1,0h4.17l-10.8-23.31h-6.42l-10.8,23.31h4.14l3.33-7.41H164ZM157,144.89H158l4.83,10.8H152.09Zm33.44,18.21-9.63-20.76h-6v23.31h3.9V146.39l9.18,19.26h5.1l9.18-19.26v19.26H206V142.34h-6Z" fill="#151515"/>
  </g>
</svg>
