<svg id="Livello_1" data-name="Livello 1" xmlns="http://www.w3.org/2000/svg" viewBox="0 0 304.13 260.06">
  <g>
    <path d="M281.29,224.33C265.71,247.91,236.63,259.52,202,259s-74.67-13-111.87-37.63-64.45-56.52-78.45-88.19-14.71-63,.87-86.58S57.2,11.46,91.85,11.93s74.67,13,111.87,37.64,64.45,56.52,78.45,88.19S296.88,200.76,281.29,224.33Z" fill="#151515" stroke="#000" stroke-width="2"/>
    <path d="M291.6,213.41C276,237,246.93,248.6,212.29,248.13s-74.67-13-111.87-37.64S36,154,22,122.3s-14.72-63,.87-86.58S67.51.54,102.15,1s74.67,13,111.87,37.64,64.45,56.52,78.45,88.19S307.19,189.84,291.6,213.41Z" fill="#e9e9e9" stroke="#000" stroke-width="2"/>
    <path d="M57,115.66V139h3.9V128.29h3.9c4.95,0,6.51,1,7.14,3.6,1.26,5.31,1.53,6.48,2,7.08h4c-.45-.6-.72-1.62-2.31-7.74-.69-2.7-3.15-3.72-5.34-4,4,0,7-1.71,7-5.28,0-4.29-3.27-6.3-10.47-6.3Zm3.9,10.08v-7.53h6c3.6,0,6.36.75,6.36,3.75s-2.76,3.78-6.36,3.78ZM82.44,139h18.45v-2.55H86.34v-7.86H99.18V126H86.34v-7.8H100v-2.55H82.44Zm30.1-14.28c-2.58-.57-4.11-1.35-4.11-3.12,0-2,2-3.36,5.16-3.36,7,0,6.6,5.07,6.6,5.07l4-1.08s-.24-7-10.44-7c-6.54,0-9.39,3.18-9.39,6.69,0,2.79,2,5,5.94,5.94l5.67,1.32c3.42.81,5.28,1.47,5.28,3.72,0,1.92-2.25,3.51-6,3.51-8.64,0-7.92-6.51-7.92-6.51l-4,1.17c.15,3.15,2.94,8.31,12,8.31,5.64,0,10-2.28,10-6.66,0-3-1.77-5.58-6.84-6.72ZM129.23,139h18.45v-2.55H133.13v-7.86H146V126H133.13v-7.8h13.68v-2.55H129.23Zm44.11,0h4.17l-10.8-23.31h-6.42L149.49,139h4.14l3.33-7.41h13ZM163,118.21h1l4.83,10.8H158.13Zm17.8-2.55V139h3.9V128.29h3.9c4.95,0,6.51,1,7.14,3.6,1.26,5.31,1.53,6.48,2,7.08h4c-.45-.6-.72-1.62-2.31-7.74-.69-2.7-3.15-3.72-5.34-4,4,0,7-1.71,7-5.28,0-4.29-3.27-6.3-10.47-6.3Zm3.9,10.08v-7.53h6c3.6,0,6.36.75,6.36,3.75s-2.76,3.78-6.36,3.78Zm45.37-.84s-1-9.66-12.3-9.66c-8.28,0-13,5.07-13,12.09s5,12.06,13.29,12.06c11.7,0,12.63-9.21,12.63-9.21l-4-1.17s-.18,7.41-8.61,7.41a8.73,8.73,0,0,1-9.18-9.09c0-5.16,3.24-9.12,8.88-9.12,8,0,8.28,7.89,8.28,7.89ZM253.8,139h3.9V115.66h-3.9V126H239.1V115.66h-3.9V139h3.9V128.56h14.7Z" fill="#151515"/>
  </g>
</svg>
