<svg id="Livello_1" data-name="Livello 1" xmlns="http://www.w3.org/2000/svg" viewBox="0 0 312.14 312.23">
  <g>
    <path d="M139.88,20.58c2-9.61,15.75-9.61,17.77,0a12.07,12.07,0,0,0,22.45,3.23c4.65-8.65,17.81-4.79,17,5a12.08,12.08,0,0,0,20.64,9.43c6.89-7,18.44.42,14.94,9.6A12.08,12.08,0,0,0,249.87,62.7c8.58-4.77,17.57,5.6,11.63,13.42a12.08,12.08,0,0,0,12.26,19.09c9.58-2.16,15.28,10.32,7.38,16.15a12.08,12.08,0,0,0,6.39,21.77c9.8.63,11.76,14.21,2.53,17.58a12.08,12.08,0,0,0,0,22.69c9.23,3.36,7.27,16.95-2.53,17.58a12.07,12.07,0,0,0-6.39,21.76c7.9,5.84,2.2,18.32-7.38,16.16A12.08,12.08,0,0,0,261.5,248c5.94,7.82-3.05,18.19-11.63,13.42a12.08,12.08,0,0,0-17.15,14.86c3.5,9.17-8.05,16.59-14.94,9.6a12.08,12.08,0,0,0-20.64,9.42c.77,9.79-12.39,13.66-17,5a12.07,12.07,0,0,0-22.45,3.23c-2,9.61-15.75,9.61-17.77,0a12.07,12.07,0,0,0-22.45-3.23c-4.65,8.65-17.81,4.78-17-5a12.08,12.08,0,0,0-20.64-9.42c-6.9,7-18.44-.43-14.94-9.6a12.08,12.08,0,0,0-17.15-14.86C39.08,266.18,30.09,255.81,36,248A12.08,12.08,0,0,0,23.77,228.9c-9.58,2.16-15.28-10.32-7.38-16.16A12.07,12.07,0,0,0,10,191c-9.8-.63-11.76-14.22-2.53-17.58a12.08,12.08,0,0,0,0-22.69c-9.23-3.37-7.27-17,2.53-17.58a12.08,12.08,0,0,0,6.39-21.77c-7.9-5.83-2.2-18.31,7.38-16.15A12.08,12.08,0,0,0,36,76.12c-5.94-7.82,3-18.19,11.63-13.42A12.08,12.08,0,0,0,64.81,47.84c-3.5-9.18,8-16.59,14.94-9.6a12.08,12.08,0,0,0,20.64-9.43c-.77-9.79,12.39-13.65,17-5A12.07,12.07,0,0,0,139.88,20.58Z" fill="#151515" stroke="#151515" stroke-width="3"/>
    <path d="M154.49,8.71c2-9.61,15.74-9.61,17.76,0a12.08,12.08,0,0,0,22.46,3.23c4.64-8.66,17.81-4.79,17,5a12.07,12.07,0,0,0,20.63,9.42c6.9-7,18.44.43,15,9.61a12.07,12.07,0,0,0,17.14,14.85c8.59-4.76,17.57,5.61,11.63,13.43a12.07,12.07,0,0,0,12.27,19.08c9.58-2.15,15.28,10.33,7.38,16.16a12.08,12.08,0,0,0,6.39,21.77c9.8.63,11.75,14.21,2.53,17.58a12.07,12.07,0,0,0,0,22.68c9.22,3.37,7.27,16.95-2.53,17.58a12.08,12.08,0,0,0-6.39,21.77c7.9,5.83,2.2,18.31-7.38,16.16a12.07,12.07,0,0,0-12.27,19.08c5.94,7.82-3,18.19-11.63,13.43a12.07,12.07,0,0,0-17.14,14.85c3.49,9.18-8.05,16.6-15,9.61a12.07,12.07,0,0,0-20.63,9.42c.77,9.79-12.4,13.66-17,5a12.08,12.08,0,0,0-22.46,3.23c-2,9.61-15.74,9.61-17.76,0A12.08,12.08,0,0,0,132,288.42c-4.64,8.66-17.81,4.79-17-5A12.07,12.07,0,0,0,94.36,274c-6.9,7-18.44-.43-15-9.61a12.07,12.07,0,0,0-17.14-14.85c-8.59,4.76-17.57-5.61-11.63-13.43A12.07,12.07,0,0,0,38.37,217c-9.58,2.15-15.28-10.33-7.38-16.16A12.08,12.08,0,0,0,24.6,179.1c-9.8-.63-11.75-14.21-2.53-17.58a12.07,12.07,0,0,0,0-22.68c-9.22-3.37-7.27-17,2.53-17.58A12.08,12.08,0,0,0,31,99.49c-7.9-5.83-2.2-18.31,7.38-16.16A12.07,12.07,0,0,0,50.64,64.25c-5.94-7.82,3-18.19,11.63-13.43A12.07,12.07,0,0,0,79.41,36c-3.49-9.18,8-16.6,15-9.61A12.07,12.07,0,0,0,115,16.94c-.77-9.79,12.4-13.66,17-5A12.08,12.08,0,0,0,154.49,8.71Z" fill="#e9e9e9" stroke="#151515" stroke-width="3"/>
    <path d="M77.66,121.5H73.49l-8.94,20.76L55.61,121.5H51.44l10.35,23.31h5.52ZM98.2,144.81h4.17L91.57,121.5H85.15l-10.8,23.31h4.14l3.33-7.41H94.87ZM87.85,124.05H88.9l4.83,10.8H83Zm17.81,20.76h17.25v-2.55H109.56V121.5h-3.9Zm20,0h18.45v-2.55H129.51V134.4h12.84v-2.55H129.51v-7.8h13.68V121.5H125.61Zm44.88-23.31h-3.9v19.26L152.76,121.5H148v23.31h3.9V125.55l13.83,19.26h4.8Zm2.69,2.55h9.9v20.76h3.81V124.05h9.9V121.5H173.18Zm26.31-2.55v23.31h3.9V121.5Zm31.82,0h-3.9v19.26L213.58,121.5h-4.8v23.31h3.9V125.55l13.83,19.26h4.8Zm27.14,23.31h4.17l-10.8-23.31H245.4l-10.8,23.31h4.14l3.33-7.41h13.05ZM248.1,124.05h1.05l4.83,10.8H243.24ZM72.86,171.5v23.31h3.9V184.13h6c7.2,0,10.47-2,10.47-6.33s-3.27-6.3-10.47-6.3Zm3.9,10.08v-7.53h6c3.6,0,6.36.75,6.36,3.75s-2.76,3.78-6.36,3.78Zm37.92,13.23h4.17l-10.8-23.31h-6.42l-10.8,23.31H95l3.33-7.41h13Zm-10.35-20.76h1l4.83,10.8H99.47Zm17.8,20.76h17.25v-2.55H126V171.5h-3.9Zm20,0h17.25v-2.55H146V171.5h-3.9Zm41.7,0H188l-10.8-23.31h-6.42l-10.8,23.31h4.14l3.33-7.41h13.05Zm-10.35-20.76h1.05l4.83,10.8H168.58Zm42.2,6.69s-1-9.66-12.3-9.66c-8.28,0-13,5.07-13,12.09s5,12.06,13.29,12.06c11.7,0,12.63-9.21,12.63-9.21l-4-1.17s-.18,7.41-8.61,7.41a8.73,8.73,0,0,1-9.18-9.09c0-5.16,3.24-9.12,8.88-9.12,8,0,8.28,7.89,8.28,7.89Zm29.53,0s-1-9.66-12.3-9.66c-8.28,0-13,5.07-13,12.09s5,12.06,13.29,12.06c11.7,0,12.63-9.21,12.63-9.21l-4-1.17s-.18,7.41-8.61,7.41a8.73,8.73,0,0,1-9.18-9.09c0-5.16,3.24-9.12,8.88-9.12,8,0,8.28,7.89,8.28,7.89Zm5.14-9.24v23.31h3.9V171.5Z" fill="#151515"/>
  </g>
</svg>
