<svg id="Livello_1" data-name="Livello 1" xmlns="http://www.w3.org/2000/svg" viewBox="0 0 387.83 405.33">
  <g>
    <rect x="48.79" y="70.79" width="285.75" height="285.75" transform="translate(-72.02 100.28) rotate(-24.84)" fill="#151515" stroke="#151515" stroke-width="3"/>
    <rect x="53.29" y="48.79" width="285.75" height="285.75" transform="translate(-62.37 100.13) rotate(-24.84)" fill="#e9e9e9" stroke="#151515" stroke-width="3"/>
    <path d="M156.89,154.78h9.9v20.76h3.81V154.78h9.9v-2.55H156.89Zm26.31-2.55v23.31h3.9V152.23ZM208.12,173l-9.63-20.76h-6v23.31h3.9V156.28l9.18,19.26h5.1l9.18-19.26v19.26h3.9V152.23h-6ZM136.48,213.9c0-7-5.34-12.09-13.62-12.09s-13.59,5.07-13.59,12.09S114.58,226,122.86,226,136.48,220.89,136.48,213.9Zm-4.11,0c0,5.13-3.84,9.09-9.51,9.09s-9.48-4-9.48-9.09,3.84-9.12,9.48-9.12S132.37,208.74,132.37,213.9ZM141,225.54h17.25V223H144.89V202.23H141Zm40.92-6.63c0-5.61-5.61-5.91-5.61-5.91s5-.54,5-5.07c0-3.69-3.27-5.7-10.47-5.7h-9.9v23.31h10.5C178.64,225.54,181.91,223.32,181.91,218.91Zm-17.07-6.6v-7.53h6c3.6,0,6.36.75,6.36,3.75s-2.76,3.78-6.36,3.78Zm0,2.55h6.6c3.6,0,6.36.75,6.36,4S175,223,171.44,223h-6.6Zm21.56-12.63v23.31h3.9V214.86h3.9c5,0,6.51,1,7.14,3.6,1.26,5.31,1.53,6.48,2,7.08h4.05c-.45-.6-.72-1.62-2.31-7.74-.69-2.7-3.15-3.72-5.34-4,4.05,0,7.05-1.71,7.05-5.28,0-4.29-3.27-6.3-10.47-6.3Zm3.9,10.08v-7.53h6c3.6,0,6.36.75,6.36,3.75s-2.76,3.78-6.36,3.78Zm21.56-10.08v23.31h3.9V202.23Zm33.67,9.24s-1-9.66-12.3-9.66c-8.28,0-13,5.07-13,12.09s5,12.06,13.29,12.06c11.7,0,12.63-9.21,12.63-9.21l-4-1.17S242,223,233.53,223a8.73,8.73,0,0,1-9.18-9.09c0-5.16,3.24-9.12,8.88-9.12,8,0,8.28,7.89,8.28,7.89Zm23.75,14.07h3.9V202.23h-3.9v10.35h-14.7V202.23h-3.9v23.31h3.9V215.13h14.7Z" fill="#151515"/>
  </g>
</svg>
