<svg id="Livello_1" data-name="Livello 1" xmlns="http://www.w3.org/2000/svg" viewBox="0 0 321.99 327.06">
  <g>
    <path d="M162.88,80.65l.76,2.07,1.05-1.94L199.3,16.86l-2.79,72.63-.09,2.21,1.71-1.39L254.56,44.5l-30.37,66-.92,2,2.11-.62,69.67-20.73-53.33,49.38-1.63,1.5,2.2.23,72.29,7.51L246.41,175l-2.07.77,1.95,1.05,63.91,34.6-72.63-2.79-2.2-.09,1.39,1.72,45.8,56.43-66-30.38-2-.92.63,2.12,20.72,69.66L186.5,253.85l-1.5-1.62-.22,2.2-7.52,72.29-25.21-68.17-.76-2.07-1.06,1.94-34.6,63.91,2.79-72.62.09-2.21-1.72,1.39L60.36,294.7l30.38-66,.92-2-2.11.63L19.88,248l53.33-49.38,1.62-1.5-2.19-.23L.35,189.4l68.16-25.21,2.08-.77-2-1L4.73,127.76l72.63,2.8,2.2.08-1.39-1.71L32.37,72.5l66,30.37,2,.93-.63-2.12L79.05,32l49.38,53.33,1.5,1.62.22-2.2,7.52-72.29Z" fill="#151515" stroke="#000" stroke-width="2"/>
    <path d="M169.94,68.52l.77,2.07,1-2L206.37,4.73l-2.8,72.63-.08,2.2,1.71-1.39,56.43-45.8-30.37,66-.93,2,2.12-.63,69.66-20.72-53.33,49.38-1.62,1.5,2.2.23,72.29,7.51-68.17,25.21-2.07.76,1.94,1.06,63.92,34.6-72.63-2.79-2.21-.09,1.39,1.72,45.81,56.43-66-30.38-2-.92.63,2.11L243,295.05l-49.38-53.33-1.5-1.62-.23,2.19-7.51,72.29-25.21-68.16-.77-2.08-1,1.95L122.7,310.2l2.79-72.63.09-2.2-1.72,1.39L67.43,282.57l30.38-66,.92-2-2.12.63L27,235.88,80.28,186.5,81.9,185l-2.2-.22L7.41,177.26l68.17-25.21,2.07-.76-1.94-1L11.8,115.63l72.62,2.8,2.21.08-1.39-1.71L39.43,60.37l66,30.37,2,.92-.63-2.11L86.11,19.88l49.38,53.34,1.5,1.62.23-2.2L144.73.35Z" fill="#e9e9e9" stroke="#000" stroke-width="2"/>
    <path d="M113.13,160.11c0-7-5.34-12.09-13.62-12.09s-13.59,5.07-13.59,12.09,5.31,12.06,13.59,12.06S113.13,167.1,113.13,160.11Zm-4.11,0c0,5.13-3.84,9.09-9.51,9.09s-9.48-4-9.48-9.09S93.87,151,99.51,151,109,155,109,160.11Zm26.8-11.67v13.68c0,6.06-2.73,7.08-7.14,7.08s-7.14-1-7.14-7.08V148.44h-3.9v13.68c0,6.72,3.72,10,11,10s11-3.33,11-10V148.44Zm6.6,2.55h9.9v20.76h3.81V151H166v-2.55H142.42Zm26.32-2.55v23.31h3.9V161.07h6c7.2,0,10.47-2,10.47-6.33s-3.27-6.3-10.47-6.3Zm3.9,10.08V151h6c3.6,0,6.36.75,6.36,3.75s-2.76,3.78-6.36,3.78Zm38-10.08v13.68c0,6.06-2.73,7.08-7.14,7.08s-7.14-1-7.14-7.08V148.44h-3.9v13.68c0,6.72,3.72,10,11,10s11-3.33,11-10V148.44Zm6.6,2.55h9.9v20.76h3.81V151h9.9v-2.55H217.19Z" fill="#151515"/>
  </g>
</svg>
