<svg id="Livello_1" data-name="Livello 1" xmlns="http://www.w3.org/2000/svg" viewBox="0 0 427.91 437.17">
  <g>
    <path d="M216,109.84l1.14,3.1,1.58-2.91,45.73-84.46-3.69,96-.13,3.31,2.57-2.08,74.57-60.53-40.14,87.25-1.39,3,3.18-.95,92.05-27.38L321,189.42l-2.43,2.25,3.3.34,95.52,9.93-90.08,33.31-3.1,1.15,2.91,1.58,84.46,45.73-96-3.7-3.31-.12,2.08,2.57L374.93,357l-87.25-40.13-3-1.39.95,3.18L313,410.73l-65.25-70.47-2.25-2.43-.34,3.29-9.93,95.53-33.31-90.08-1.15-3.1-1.58,2.91-45.73,84.46,3.7-96,.12-3.31-2.57,2.09L80.15,394.17l40.13-87.25,1.39-3-3.18.94-92,27.39L96.91,267l2.43-2.25-3.29-.34L.52,254.47,90.6,221.16,93.71,220l-2.92-1.58L6.34,172.7l96,3.69,3.31.13L103.53,174,43,99.38l87.25,40.14,3,1.39-.94-3.18-27.39-92,65.25,70.47,2.25,2.43.34-3.3,9.93-95.52Z" fill="#151515" stroke="#151515" stroke-width="3"/>
    <path d="M226,90.6l1.15,3.11,1.57-2.92L274.44,6.34l-3.69,96-.13,3.31,2.57-2.09L347.76,43l-40.14,87.25-1.38,3,3.17-.94,92.06-27.39L331,170.18l-2.43,2.25,3.3.34,95.53,9.93L337.31,216l-3.11,1.14,2.91,1.58,84.46,45.73-96-3.69-3.31-.13,2.09,2.57,60.53,74.57-87.26-40.14-3-1.38.95,3.17L323,391.5,257.72,321l-2.25-2.43-.34,3.3-9.92,95.52-33.32-90.07-1.15-3.11-1.58,2.91L163.44,411.6l3.69-96,.13-3.31-2.57,2.09L90.12,374.93l40.14-87.25,1.38-3-3.17.95L36.41,313l70.47-65.25,2.43-2.25-3.29-.34-95.53-9.93,90.08-33.31,3.11-1.15-2.91-1.58L16.31,153.47l96,3.69,3.31.13-2.09-2.58L53,80.15l87.25,40.13,3,1.39-.94-3.18-27.39-92,65.25,70.47,2.25,2.43.35-3.29L192.67.52Z" fill="#e9e9e9" stroke="#151515" stroke-width="3"/>
    <path d="M193.93,165.5h-4.17l-8.94,20.76-8.94-20.76h-4.17l10.35,23.31h5.52Zm3.3,23.31h18.45v-2.55H201.13V178.4H214v-2.55H201.13v-7.8h13.68V165.5H197.23Zm22.36-23.31v23.31h3.9V178.13h3.9c5,0,6.51,1,7.14,3.6,1.26,5.31,1.53,6.48,2,7.08h4.05c-.45-.6-.72-1.62-2.31-7.74-.69-2.7-3.15-3.72-5.34-4,4.05,0,7.05-1.71,7.05-5.28,0-4.29-3.27-6.3-10.47-6.3Zm3.9,10.08v-7.53h6c3.6,0,6.36.75,6.36,3.75s-2.76,3.78-6.36,3.78Zm43.31,13.23H271l-10.8-23.31h-6.42L243,188.81h4.14l3.33-7.41h13.05Zm-10.35-20.76h1.05l4.83,10.8H251.59ZM124.52,224.53c-2.58-.57-4.11-1.35-4.11-3.12,0-2,2-3.36,5.16-3.36,7,0,6.6,5.07,6.6,5.07l4-1.08s-.24-7-10.44-7c-6.54,0-9.39,3.18-9.39,6.69,0,2.79,2,5,5.94,5.94L128,229c3.42.81,5.28,1.47,5.28,3.72,0,1.92-2.25,3.51-6,3.51-8.64,0-7.92-6.51-7.92-6.51l-4,1.17c.15,3.15,2.94,8.31,12,8.31,5.64,0,10-2.28,10-6.66,0-3-1.77-5.58-6.84-6.72ZM163,238.81h4.17l-10.8-23.31h-6.42l-10.8,23.31h4.14l3.33-7.41h13Zm-10.35-20.76h1l4.83,10.8H147.76Zm17.81,20.76h17.25v-2.55H174.33V215.5h-3.9ZM214.5,215.5h-4.17l-8.94,20.76-8.94-20.76h-4.17l10.35,23.31h5.52ZM235,238.81h4.17l-10.8-23.31H222l-10.8,23.31h4.14l3.33-7.41h13.05Zm-10.35-20.76h1.05l4.83,10.8H219.83ZM253,215.5H242.5v23.31H253c7.8,0,12.69-4.44,12.69-11.64S260.8,215.5,253,215.5Zm-6.6,2.55h4.8c6.6,0,10.38,3.12,10.38,9.12s-3.78,9.09-10.38,9.09h-4.8Zm23.78,20.76h18.45v-2.55H274.08V228.4h12.84v-2.55H274.08v-7.8h13.68V215.5H270.18Zm22.36-23.31v23.31h3.9V228.13h3.9c5,0,6.51,1,7.14,3.6,1.26,5.31,1.53,6.48,2,7.08h4.05c-.45-.6-.72-1.62-2.31-7.74-.69-2.7-3.15-3.72-5.34-4,4.05,0,7.05-1.71,7.05-5.28,0-4.29-3.27-6.3-10.47-6.3Zm3.9,10.08v-7.53h6c3.6,0,6.36.75,6.36,3.75s-2.76,3.78-6.36,3.78ZM318,215.5v23.31h3.9V215.5Z" fill="#151515"/>
  </g>
</svg>
