<svg width="898" height="898" viewBox="0 0 898 898" fill="none" xmlns="http://www.w3.org/2000/svg">
<path d="M116.698 476.193L592.002 147.169L639.293 723.307L116.698 476.193Z" fill="#C4C4C4" stroke="#151515" stroke-width="3"/>
<path d="M236.336 486.559C240.56 486.559 250.448 481.855 250.448 468.847C250.448 456.847 239.456 448.639 227.36 448.639C212.144 448.639 201.2 458.911 201.2 473.887C201.2 488.095 211.616 497.887 226.976 497.887C236.096 497.887 243.536 493.903 248.336 486.991H245.312C241.568 492.271 234.464 495.487 227.504 495.487C213.824 495.487 204.512 486.943 204.512 473.359C204.512 460.351 215.456 451.087 226.832 451.087C238.16 451.087 248 457.951 248 469.903C248 475.663 244.688 480.079 241.376 482.479C239.84 483.583 238.832 484.063 237.92 484.063C236.864 484.063 236.72 483.103 236.96 481.999L241.904 459.919H238.64L234.848 464.863C234.848 464.863 233.984 459.247 226.784 459.247C218.816 459.247 210.08 466.255 210.08 476.911C210.08 481.999 212.768 487.231 220.208 487.231C228.224 487.231 231.872 480.223 231.872 480.223C231.872 484.975 232.88 486.559 236.336 486.559ZM222.992 482.959C218.528 482.959 216.32 479.743 216.32 475.903C216.32 468.511 221.792 463.519 227.456 463.519C233.216 463.519 235.184 467.983 233.792 473.263C232.352 478.543 228.032 482.959 222.992 482.959ZM253.352 453.343H269.192V486.559H275.288V453.343H291.128V449.263H253.352V453.343ZM334.174 467.935C334.174 456.703 325.63 448.591 312.382 448.591C299.134 448.591 290.638 456.703 290.638 467.935C290.638 479.119 299.134 487.231 312.382 487.231C325.63 487.231 334.174 479.119 334.174 467.935ZM327.598 467.935C327.598 476.143 321.454 482.479 312.382 482.479C303.358 482.479 297.214 476.143 297.214 467.935C297.214 459.679 303.358 453.343 312.382 453.343C321.454 453.343 327.598 459.679 327.598 467.935ZM341.39 486.559H347.63V469.903H368.174V465.823H347.63V453.343H369.518V449.263H341.39V486.559ZM416.908 467.935C416.908 456.703 408.364 448.591 395.116 448.591C381.868 448.591 373.372 456.703 373.372 467.935C373.372 479.119 381.868 487.231 395.116 487.231C408.364 487.231 416.908 479.119 416.908 467.935ZM410.332 467.935C410.332 476.143 404.188 482.479 395.116 482.479C386.092 482.479 379.948 476.143 379.948 467.935C379.948 459.679 386.092 453.343 395.116 453.343C404.188 453.343 410.332 459.679 410.332 467.935ZM424.125 486.559H451.725V482.479H430.365V449.263H424.125V486.559ZM498.143 467.935C498.143 456.703 489.599 448.591 476.351 448.591C463.103 448.591 454.607 456.703 454.607 467.935C454.607 479.119 463.103 487.231 476.351 487.231C489.599 487.231 498.143 479.119 498.143 467.935ZM491.567 467.935C491.567 476.143 485.423 482.479 476.351 482.479C467.327 482.479 461.183 476.143 461.183 467.935C461.183 459.679 467.327 453.343 476.351 453.343C485.423 453.343 491.567 459.679 491.567 467.935ZM544.239 462.607C544.239 462.607 542.031 448.591 524.703 448.591C511.455 448.591 503.919 456.703 503.919 467.935C503.919 479.119 511.455 487.231 523.263 487.231C534.783 487.231 537.375 479.359 537.375 479.359V486.559H543.615V467.647H523.311V471.727H537.375C537.375 471.727 536.655 482.479 524.223 482.479C515.679 482.479 510.495 476.143 510.495 467.935C510.495 459.679 515.679 453.343 524.703 453.343C536.703 453.343 537.807 464.527 537.807 464.527L544.239 462.607ZM565.57 468.463V486.559H571.81V468.463L588.658 449.263H581.458L568.69 463.807L555.922 449.263H548.722L565.57 468.463Z" fill="black"/>
</svg>
