<svg width="1441" height="1180" viewBox="0 0 1441 1180" fill="none" xmlns="http://www.w3.org/2000/svg">
<path d="M701.025 149.82C704.117 126.686 737.805 126.686 740.896 149.82V149.82C743.719 170.937 773.424 173.611 779.971 153.337V153.337C787.144 131.127 820.29 137.142 819.202 160.456V160.456C818.208 181.738 846.959 189.673 857.021 170.894V170.894C868.044 150.321 899.584 162.158 894.35 184.904V184.904C889.572 205.666 916.444 218.606 929.697 201.926V201.926C944.217 183.653 973.136 200.931 963.925 222.376V222.376C955.516 241.951 979.646 259.482 995.665 245.436V245.436C1013.21 230.049 1038.58 252.213 1025.69 271.669V271.669C1013.92 289.429 1034.53 310.986 1052.8 300.027V300.027C1072.82 288.02 1093.82 314.358 1077.66 331.199V331.199C1062.91 346.572 1079.34 371.463 1099.28 363.942V363.942C1121.11 355.702 1137.08 385.367 1118.17 399.052V399.052C1100.91 411.544 1112.63 438.969 1133.59 435.128V435.128C1156.55 430.92 1166.96 462.958 1145.91 473.048V473.048C1126.7 482.257 1133.33 511.335 1154.64 511.297V511.297C1177.98 511.255 1182.5 544.638 1159.99 550.807V550.807C1139.44 556.438 1140.78 586.234 1161.75 590V590C1184.72 594.127 1183.21 627.781 1159.96 629.831V629.831C1138.74 631.703 1134.74 661.259 1154.7 668.709V668.709C1176.56 676.871 1169.07 709.714 1145.82 707.581V707.581C1124.61 705.633 1115.39 733.999 1133.7 744.893V744.893C1153.76 756.829 1140.52 787.805 1118.03 781.556V781.556C1097.5 775.852 1083.37 802.116 1099.44 816.104V816.104C1117.04 831.429 1098.48 859.544 1077.47 849.38V849.38C1058.3 840.102 1039.7 863.42 1053.01 880.053V880.053C1067.6 898.275 1044.32 922.624 1025.46 908.872V908.872C1008.25 896.319 985.785 915.942 995.914 934.685V934.685C1007.01 955.218 979.757 975.019 963.658 958.12V958.12C948.962 942.695 923.359 957.993 929.979 978.243V978.243C937.23 1000.43 906.879 1015.04 894.056 995.542V995.542C882.351 977.741 854.427 988.221 857.325 1009.33V1009.33C860.499 1032.45 828.025 1041.41 818.89 1019.93V1019.93C810.552 1000.33 781.206 1005.66 780.288 1026.94V1026.94C779.282 1050.26 745.731 1053.28 740.577 1030.51V1030.51C735.874 1009.74 706.048 1009.74 701.344 1030.51V1030.51C696.191 1053.28 662.64 1050.26 661.634 1026.94V1026.94C660.716 1005.66 631.37 1000.33 623.031 1019.93V1019.93C613.896 1041.41 581.423 1032.45 584.597 1009.33V1009.33C587.494 988.221 559.571 977.741 547.866 995.542V995.542C535.043 1015.04 504.692 1000.43 511.943 978.243V978.243C518.563 957.993 492.959 942.695 478.264 958.12V958.12C462.165 975.019 434.911 955.218 446.007 934.685V934.685C456.136 915.942 433.676 896.319 416.462 908.872V908.872C397.604 922.624 374.324 898.275 388.909 880.053V880.053C402.222 863.42 383.626 840.102 364.448 849.38V849.38C343.437 859.544 324.879 831.429 342.483 816.104V816.104C358.552 802.116 344.418 775.852 323.891 781.556V781.556C301.404 787.805 288.164 756.829 308.221 744.893V744.893C326.529 733.999 317.313 705.633 296.097 707.581V707.581C272.855 709.714 265.359 676.871 287.225 668.709V668.709C307.185 661.259 303.181 631.703 281.959 629.831V629.831C258.709 627.781 257.198 594.127 280.17 590V590C301.139 586.234 302.477 556.438 281.93 550.807V550.807C259.421 544.638 263.943 511.255 287.282 511.297V511.297C308.587 511.335 315.224 482.257 296.013 473.048V473.048C274.966 462.958 285.376 430.92 308.333 435.128V435.128C329.289 438.969 341.011 411.544 323.753 399.052V399.052C304.846 385.367 320.81 355.702 342.647 363.942V363.942C362.579 371.463 379.01 346.572 364.26 331.199V331.199C348.101 314.358 369.104 288.02 389.119 300.027V300.027C407.389 310.986 428 289.429 416.231 271.669V271.669C403.339 252.213 428.708 230.049 446.257 245.436V245.436C462.276 259.482 486.405 241.951 477.997 222.376V222.376C468.786 200.931 497.705 183.653 512.225 201.926V201.926C525.478 218.606 552.35 205.666 547.572 184.904V184.904C542.338 162.158 573.878 150.321 584.901 170.894V170.894C594.963 189.673 623.714 181.738 622.72 160.456V160.456C621.632 137.142 654.777 131.127 661.95 153.337V153.337C668.498 173.611 698.203 170.937 701.025 149.82V149.82Z" fill="#2D2DFF"/>
<path d="M560.346 504.036C560.346 492.804 551.802 484.692 538.554 484.692C525.306 484.692 516.81 492.804 516.81 504.036C516.81 515.22 525.306 523.332 538.554 523.332C551.802 523.332 560.346 515.22 560.346 504.036ZM553.77 504.036C553.77 512.244 547.626 518.58 538.554 518.58C529.53 518.58 523.386 512.244 523.386 504.036C523.386 495.78 529.53 489.444 538.554 489.444C547.626 489.444 553.77 495.78 553.77 504.036ZM596.458 522.66H603.658L583.978 500.244L600.778 485.364H593.098L573.802 503.028V485.364H567.562V522.66H573.802V509.22L579.898 503.796L596.458 522.66ZM629.765 522.66H657.365V518.58H636.005V485.364H629.765V522.66ZM661.687 522.66H691.207V518.58H667.927V506.004H688.471V501.924H667.927V489.444H689.815V485.364H661.687V522.66ZM693.133 489.444H708.973V522.66H715.069V489.444H730.909V485.364H693.133V489.444ZM741.474 484.164H735.234V491.124H738.642C737.682 495.78 733.41 498.324 733.41 498.324L737.634 499.572C737.634 499.572 741.474 495.828 741.474 489.924V484.164ZM762.477 499.812C758.349 498.9 755.901 497.652 755.901 494.82C755.901 491.652 759.117 489.444 764.157 489.444C775.389 489.444 774.717 497.556 774.717 497.556L781.149 495.828C781.149 495.828 780.765 484.692 764.445 484.692C753.981 484.692 749.421 489.78 749.421 495.396C749.421 499.86 752.541 503.412 758.925 504.9L767.997 507.012C773.469 508.308 776.445 509.364 776.445 512.964C776.445 516.036 772.845 518.58 766.797 518.58C752.973 518.58 754.125 508.164 754.125 508.164L747.693 510.036C747.933 515.076 752.397 523.332 766.941 523.332C775.965 523.332 782.925 519.684 782.925 512.676C782.925 507.828 780.093 503.748 771.981 501.924L762.477 499.812ZM848.88 498.708C848.88 498.708 846.672 484.692 829.344 484.692C816.096 484.692 808.56 492.804 808.56 504.036C808.56 515.22 816.096 523.332 827.904 523.332C839.424 523.332 842.016 515.46 842.016 515.46V522.66H848.256V503.748H827.952V507.828H842.016C842.016 507.828 841.296 518.58 828.864 518.58C820.32 518.58 815.136 512.244 815.136 504.036C815.136 495.78 820.32 489.444 829.344 489.444C841.344 489.444 842.448 500.628 842.448 500.628L848.88 498.708ZM899.299 504.036C899.299 492.804 890.755 484.692 877.507 484.692C864.259 484.692 855.763 492.804 855.763 504.036C855.763 515.22 864.259 523.332 877.507 523.332C890.755 523.332 899.299 515.22 899.299 504.036ZM892.723 504.036C892.723 512.244 886.579 518.58 877.507 518.58C868.483 518.58 862.339 512.244 862.339 504.036C862.339 495.78 868.483 489.444 877.507 489.444C886.579 489.444 892.723 495.78 892.723 504.036ZM912.755 515.7H906.515V522.66H909.923C908.963 527.316 904.691 529.86 904.691 529.86L908.915 531.108C908.915 531.108 912.755 527.364 912.755 521.46V515.7ZM563.948 601.66H570.62L553.34 564.364H543.068L525.788 601.66H532.412L537.74 589.804H558.62L563.948 601.66ZM547.388 568.444H549.068L556.796 585.724H539.612L547.388 568.444ZM611.931 564.364H605.691V595.18L583.562 564.364H575.883V601.66H582.123V570.844L604.251 601.66H611.931V564.364ZM637.354 564.364H620.554V601.66H637.354C649.834 601.66 657.658 594.556 657.658 583.036C657.658 571.468 649.834 564.364 637.354 564.364ZM626.794 568.444H634.474C645.034 568.444 651.082 573.436 651.082 583.036C651.082 592.636 645.034 597.58 634.474 597.58H626.794V568.444ZM744.176 564.364H737.504L727.04 597.58L717.056 564.364H709.424L699.44 597.58L688.976 564.364H682.304L695.024 601.66H703.856L713.216 570.844L722.624 601.66H731.456L744.176 564.364ZM779.479 601.66H786.151L768.871 564.364H758.599L741.319 601.66H747.943L753.271 589.804H774.151L779.479 601.66ZM762.919 568.444H764.599L772.327 585.724H755.143L762.919 568.444ZM779.875 568.444H795.715V601.66H801.811V568.444H817.651V564.364H779.875V568.444ZM857.625 579.148C857.625 579.148 856.089 563.692 837.945 563.692C824.697 563.692 817.161 571.804 817.161 583.036C817.161 594.22 825.177 602.332 838.425 602.332C857.145 602.332 858.633 587.596 858.633 587.596L852.201 585.724C852.201 585.724 851.913 597.58 838.425 597.58C829.401 597.58 823.737 591.244 823.737 583.036C823.737 574.78 828.921 568.444 837.945 568.444C850.713 568.444 851.193 581.068 851.193 581.068L857.625 579.148ZM895.611 601.66H901.851V564.364H895.611V580.924H872.091V564.364H865.851V601.66H872.091V585.004H895.611V601.66ZM520.813 657.812C516.685 656.9 514.237 655.652 514.237 652.82C514.237 649.652 517.453 647.444 522.493 647.444C533.725 647.444 533.053 655.556 533.053 655.556L539.485 653.828C539.485 653.828 539.101 642.692 522.781 642.692C512.317 642.692 507.757 647.78 507.757 653.396C507.757 657.86 510.877 661.412 517.261 662.9L526.333 665.012C531.805 666.308 534.781 667.364 534.781 670.964C534.781 674.036 531.181 676.58 525.133 676.58C511.309 676.58 512.461 666.164 512.461 666.164L506.029 668.036C506.269 673.076 510.733 681.332 525.277 681.332C534.301 681.332 541.261 677.684 541.261 670.676C541.261 665.828 538.429 661.748 530.317 659.924L520.813 657.812ZM589.619 662.036C589.619 650.804 581.075 642.692 567.827 642.692C554.579 642.692 546.083 650.804 546.083 662.036C546.083 673.22 554.579 681.332 567.827 681.332C581.075 681.332 589.619 673.22 589.619 662.036ZM583.043 662.036C583.043 670.244 576.899 676.58 567.827 676.58C558.803 676.58 552.659 670.244 552.659 662.036C552.659 653.78 558.803 647.444 567.827 647.444C576.899 647.444 583.043 653.78 583.043 662.036ZM621.844 676.58L606.436 643.364H596.836V680.66H603.076V649.844L617.764 680.66H625.924L640.612 649.844V680.66H646.852V643.364H637.252L621.844 676.58ZM655.476 680.66H684.996V676.58H661.716V664.004H682.26V659.924H661.716V647.444H683.604V643.364H655.476V680.66ZM707.734 647.444H723.574V680.66H729.67V647.444H745.51V643.364H707.734V647.444ZM749.836 643.364V680.66H756.076V643.364H749.836ZM793.591 680.66H800.791L781.111 658.244L797.911 643.364H790.231L770.935 661.028V643.364H764.695V680.66H770.935V667.22L777.031 661.796L793.591 680.66ZM822.578 647.444H838.418V680.66H844.514V647.444H860.354V643.364H822.578V647.444ZM903.4 662.036C903.4 650.804 894.856 642.692 881.608 642.692C868.36 642.692 859.864 650.804 859.864 662.036C859.864 673.22 868.36 681.332 881.608 681.332C894.856 681.332 903.4 673.22 903.4 662.036ZM896.824 662.036C896.824 670.244 890.68 676.58 881.608 676.58C872.584 676.58 866.44 670.244 866.44 662.036C866.44 653.78 872.584 647.444 881.608 647.444C890.68 647.444 896.824 653.78 896.824 662.036ZM939.513 680.66H946.713L927.033 658.244L943.833 643.364H936.153L916.857 661.028V643.364H910.617V680.66H916.857V667.22L922.953 661.796L939.513 680.66Z" fill="#F2F2F2"/>
<path d="M640.513 894.536C638.965 894.194 638.047 893.726 638.047 892.664C638.047 891.476 639.253 890.648 641.143 890.648C645.355 890.648 645.103 893.69 645.103 893.69L647.515 893.042C647.515 893.042 647.371 888.866 641.251 888.866C637.327 888.866 635.617 890.774 635.617 892.88C635.617 894.554 636.787 895.886 639.181 896.444L642.583 897.236C644.635 897.722 645.751 898.118 645.751 899.468C645.751 900.62 644.401 901.574 642.133 901.574C636.949 901.574 637.381 897.668 637.381 897.668L634.969 898.37C635.059 900.26 636.733 903.356 642.187 903.356C645.571 903.356 648.181 901.988 648.181 899.36C648.181 897.542 647.119 896.012 644.077 895.328L640.513 894.536ZM665.163 894.662C665.163 894.662 664.587 888.866 657.783 888.866C652.815 888.866 649.989 891.908 649.989 896.12C649.989 900.314 652.995 903.356 657.963 903.356C664.983 903.356 665.541 897.83 665.541 897.83L663.129 897.128C663.129 897.128 663.021 901.574 657.963 901.574C654.579 901.574 652.455 899.198 652.455 896.12C652.455 893.024 654.399 890.648 657.783 890.648C662.571 890.648 662.751 895.382 662.751 895.382L665.163 894.662ZM668.248 889.118V903.104H670.588V896.696H672.928C675.898 896.696 676.834 897.272 677.212 898.856C677.968 902.042 678.13 902.744 678.4 903.104H680.83C680.56 902.744 680.398 902.132 679.444 898.46C679.03 896.84 677.554 896.228 676.24 896.066C678.67 896.066 680.47 895.04 680.47 892.898C680.47 890.324 678.508 889.118 674.188 889.118H668.248ZM670.588 895.166V890.648H674.188C676.348 890.648 678.004 891.098 678.004 892.898C678.004 894.698 676.348 895.166 674.188 895.166H670.588ZM698.958 896.12C698.958 891.908 695.754 888.866 690.786 888.866C685.818 888.866 682.632 891.908 682.632 896.12C682.632 900.314 685.818 903.356 690.786 903.356C695.754 903.356 698.958 900.314 698.958 896.12ZM696.492 896.12C696.492 899.198 694.188 901.574 690.786 901.574C687.402 901.574 685.098 899.198 685.098 896.12C685.098 893.024 687.402 890.648 690.786 890.648C694.188 890.648 696.492 893.024 696.492 896.12ZM701.664 903.104H712.014V901.574H704.004V889.118H701.664V903.104ZM713.635 903.104H723.985V901.574H715.975V889.118H713.635V903.104ZM739.71 889.118H733.41V903.104H739.71C744.39 903.104 747.324 900.44 747.324 896.12C747.324 891.782 744.39 889.118 739.71 889.118ZM735.75 890.648H738.63C742.59 890.648 744.858 892.52 744.858 896.12C744.858 899.72 742.59 901.574 738.63 901.574H735.75V890.648ZM765.807 896.12C765.807 891.908 762.603 888.866 757.635 888.866C752.667 888.866 749.481 891.908 749.481 896.12C749.481 900.314 752.667 903.356 757.635 903.356C762.603 903.356 765.807 900.314 765.807 896.12ZM763.341 896.12C763.341 899.198 761.037 901.574 757.635 901.574C754.251 901.574 751.947 899.198 751.947 896.12C751.947 893.024 754.251 890.648 757.635 890.648C761.037 890.648 763.341 893.024 763.341 896.12ZM789.559 889.118H787.057L783.133 901.574L779.389 889.118H776.527L772.783 901.574L768.859 889.118H766.357L771.127 903.104H774.439L777.949 891.548L781.477 903.104H784.789L789.559 889.118ZM805.059 889.118H802.719V900.674L794.421 889.118H791.541V903.104H793.881V891.548L802.179 903.104H805.059V889.118Z" fill="#F2F2F2"/>
<path d="M720.461 821.143L720.461 867.143" stroke="#F2F2F2" stroke-width="2"/>
<path d="M743.817 845.994L742.335 846.586C732.106 850.671 724.135 858.967 720.461 869.35V869.35V869.35C715.954 858.861 707.594 850.501 697.105 845.994V845.994" stroke="#F2F2F2" stroke-width="2"/>
</svg>
