<svg width="1441" height="1179" viewBox="0 0 1441 1179" fill="none" xmlns="http://www.w3.org/2000/svg">
<path d="M701.025 149.16C704.117 126.026 737.805 126.026 740.896 149.16C743.719 170.277 773.424 172.951 779.971 152.677C787.144 130.467 820.29 136.482 819.202 159.796C818.208 181.078 846.959 189.012 857.021 170.234C868.044 149.661 899.584 161.498 894.35 184.243C889.572 205.005 916.444 217.946 929.697 201.266C944.217 182.992 973.136 200.271 963.925 221.716C955.516 241.291 979.646 258.822 995.665 244.776C1013.21 229.389 1038.58 251.553 1025.69 271.009C1013.92 288.769 1034.53 310.326 1052.8 299.366C1072.82 287.36 1093.82 313.698 1077.66 330.539C1062.91 345.912 1079.34 370.803 1099.28 363.282C1121.11 355.042 1137.08 384.707 1118.17 398.392C1100.91 410.884 1112.63 438.309 1133.59 434.468C1156.55 430.259 1166.96 462.298 1145.91 472.387C1126.7 481.597 1133.33 510.674 1154.64 510.637C1177.98 510.595 1182.5 543.978 1159.99 550.147C1139.44 555.778 1140.78 585.573 1161.75 589.34C1184.72 593.467 1183.21 627.12 1159.96 629.171C1138.74 631.043 1134.74 660.599 1154.7 668.049C1176.56 676.211 1169.07 709.054 1145.82 706.921C1124.61 704.973 1115.39 733.339 1133.7 744.233C1153.76 756.169 1140.52 787.145 1118.03 780.896C1097.5 775.192 1083.37 801.455 1099.44 815.444C1117.04 830.769 1098.48 858.884 1077.47 848.719C1058.3 839.442 1039.7 862.76 1053.01 879.393C1067.6 897.615 1044.32 921.964 1025.46 908.212C1008.25 895.659 985.785 915.282 995.914 934.025C1007.01 954.558 979.757 974.359 963.658 957.46C948.962 942.035 923.359 957.333 929.979 977.583C937.23 999.767 906.879 1014.38 894.056 994.882C882.351 977.081 854.427 987.561 857.325 1008.67C860.499 1031.79 828.025 1040.75 818.89 1019.27C810.552 999.67 781.206 1005 780.288 1026.28C779.282 1049.6 745.731 1052.62 740.577 1029.85C735.874 1009.08 706.048 1009.08 701.344 1029.85C696.191 1052.62 662.64 1049.6 661.634 1026.28C660.716 1005 631.37 999.67 623.031 1019.27C613.896 1040.75 581.423 1031.79 584.597 1008.67C587.494 987.561 559.571 977.081 547.866 994.882C535.043 1014.38 504.692 999.767 511.943 977.583C518.563 957.332 492.959 942.035 478.264 957.46C462.165 974.359 434.911 954.558 446.007 934.025C456.136 915.282 433.676 895.659 416.462 908.212C397.604 921.964 374.324 897.615 388.909 879.393C402.222 862.76 383.626 839.442 364.448 848.719C343.437 858.884 324.879 830.769 342.483 815.444C358.552 801.455 344.418 775.192 323.891 780.896C301.404 787.145 288.164 756.169 308.221 744.233C326.529 733.339 317.313 704.973 296.097 706.921C272.855 709.054 265.359 676.211 287.225 668.049C307.185 660.599 303.181 631.043 281.959 629.171C258.709 627.12 257.198 593.467 280.17 589.34C301.139 585.573 302.477 555.778 281.93 550.147C259.421 543.978 263.943 510.595 287.282 510.637C308.587 510.674 315.224 481.597 296.013 472.387C274.966 462.298 285.376 430.259 308.333 434.468C329.289 438.309 341.011 410.884 323.753 398.392C304.846 384.707 320.81 355.042 342.647 363.282C362.579 370.803 379.01 345.912 364.26 330.539C348.101 313.698 369.104 287.36 389.119 299.366C407.389 310.326 428 288.769 416.231 271.009C403.339 251.553 428.708 229.389 446.257 244.776C462.276 258.822 486.405 241.291 477.997 221.716C468.786 200.271 497.705 182.992 512.225 201.266C525.478 217.946 552.35 205.006 547.572 184.243C542.338 161.498 573.878 149.661 584.901 170.234C594.963 189.012 623.714 181.078 622.72 159.796C621.632 136.482 654.777 130.467 661.95 152.677C668.498 172.951 698.203 170.277 701.025 149.16Z" fill="#2D2DFF"/>
<path d="M512.638 590.392C512.638 581.416 503.662 580.936 503.662 580.936C503.662 580.936 511.678 580.072 511.678 572.824C511.678 566.92 506.446 563.704 494.926 563.704H479.086V601H495.886C507.406 601 512.638 597.448 512.638 590.392ZM485.326 579.832V567.784H494.926C500.686 567.784 505.102 568.984 505.102 573.784C505.102 578.584 500.686 579.832 494.926 579.832H485.326ZM485.326 583.912H495.886C501.646 583.912 506.062 585.112 506.062 590.392C506.062 595.672 501.646 596.92 495.886 596.92H485.326V583.912ZM519.82 601H549.34V596.92H526.06V584.344H546.604V580.264H526.06V567.784H547.948V563.704H519.82V601ZM555.586 601H561.826V584.344H582.37V580.264H561.826V567.784H583.714V563.704H555.586V601ZM631.104 582.376C631.104 571.144 622.56 563.032 609.312 563.032C596.064 563.032 587.568 571.144 587.568 582.376C587.568 593.56 596.064 601.672 609.312 601.672C622.56 601.672 631.104 593.56 631.104 582.376ZM624.528 582.376C624.528 590.584 618.384 596.92 609.312 596.92C600.288 596.92 594.144 590.584 594.144 582.376C594.144 574.12 600.288 567.784 609.312 567.784C618.384 567.784 624.528 574.12 624.528 582.376ZM638.32 563.704V601H644.56V583.912H650.8C658.72 583.912 661.216 585.448 662.224 589.672C664.24 598.168 664.672 600.04 665.392 601H671.872C671.152 600.04 670.72 598.408 668.176 588.616C667.072 584.296 663.136 582.664 659.632 582.232C666.112 582.232 670.912 579.496 670.912 573.784C670.912 566.92 665.68 563.704 654.16 563.704H638.32ZM644.56 579.832V567.784H654.16C659.92 567.784 664.336 568.984 664.336 573.784C664.336 578.584 659.92 579.832 654.16 579.832H644.56ZM679.054 601H708.574V596.92H685.294V584.344H705.838V580.264H685.294V567.784H707.182V563.704H679.054V601ZM748.641 582.904V601H754.881V582.904L771.729 563.704H764.529L751.761 578.248L738.993 563.704H731.793L748.641 582.904ZM812.838 582.376C812.838 571.144 804.294 563.032 791.046 563.032C777.798 563.032 769.302 571.144 769.302 582.376C769.302 593.56 777.798 601.672 791.046 601.672C804.294 601.672 812.838 593.56 812.838 582.376ZM806.262 582.376C806.262 590.584 800.118 596.92 791.046 596.92C782.022 596.92 775.878 590.584 775.878 582.376C775.878 574.12 782.022 567.784 791.046 567.784C800.118 567.784 806.262 574.12 806.262 582.376ZM849.142 563.704V585.592C849.142 595.288 844.774 596.92 837.718 596.92C830.662 596.92 826.294 595.288 826.294 585.592V563.704H820.054V585.592C820.054 596.344 826.006 601.672 837.718 601.672C849.43 601.672 855.382 596.344 855.382 585.592V563.704H849.142ZM923.716 577.048C923.716 577.048 921.508 563.032 904.18 563.032C890.932 563.032 883.396 571.144 883.396 582.376C883.396 593.56 890.932 601.672 902.74 601.672C914.26 601.672 916.852 593.8 916.852 593.8V601H923.092V582.088H902.788V586.168H916.852C916.852 586.168 916.132 596.92 903.7 596.92C895.156 596.92 889.972 590.584 889.972 582.376C889.972 574.12 895.156 567.784 904.18 567.784C916.18 567.784 917.284 578.968 917.284 578.968L923.716 577.048ZM974.135 582.376C974.135 571.144 965.591 563.032 952.343 563.032C939.095 563.032 930.599 571.144 930.599 582.376C930.599 593.56 939.095 601.672 952.343 601.672C965.591 601.672 974.135 593.56 974.135 582.376ZM967.559 582.376C967.559 590.584 961.415 596.92 952.343 596.92C943.319 596.92 937.175 590.584 937.175 582.376C937.175 574.12 943.319 567.784 952.343 567.784C961.415 567.784 967.559 574.12 967.559 582.376Z" fill="#F2F2F2"/>
<path d="M640.513 893.876C638.965 893.534 638.047 893.066 638.047 892.004C638.047 890.816 639.253 889.988 641.143 889.988C645.355 889.988 645.103 893.03 645.103 893.03L647.515 892.382C647.515 892.382 647.371 888.206 641.251 888.206C637.327 888.206 635.617 890.114 635.617 892.22C635.617 893.894 636.787 895.226 639.181 895.784L642.583 896.576C644.635 897.062 645.751 897.458 645.751 898.808C645.751 899.96 644.401 900.914 642.133 900.914C636.949 900.914 637.381 897.008 637.381 897.008L634.969 897.71C635.059 899.6 636.733 902.696 642.187 902.696C645.571 902.696 648.181 901.328 648.181 898.7C648.181 896.882 647.119 895.352 644.077 894.668L640.513 893.876ZM665.163 894.002C665.163 894.002 664.587 888.206 657.783 888.206C652.815 888.206 649.989 891.248 649.989 895.46C649.989 899.654 652.995 902.696 657.963 902.696C664.983 902.696 665.541 897.17 665.541 897.17L663.129 896.468C663.129 896.468 663.021 900.914 657.963 900.914C654.579 900.914 652.455 898.538 652.455 895.46C652.455 892.364 654.399 889.988 657.783 889.988C662.571 889.988 662.751 894.722 662.751 894.722L665.163 894.002ZM668.248 888.458V902.444H670.588V896.036H672.928C675.898 896.036 676.834 896.612 677.212 898.196C677.968 901.382 678.13 902.084 678.4 902.444H680.83C680.56 902.084 680.398 901.472 679.444 897.8C679.03 896.18 677.554 895.568 676.24 895.406C678.67 895.406 680.47 894.38 680.47 892.238C680.47 889.664 678.508 888.458 674.188 888.458H668.248ZM670.588 894.506V889.988H674.188C676.348 889.988 678.004 890.438 678.004 892.238C678.004 894.038 676.348 894.506 674.188 894.506H670.588ZM698.958 895.46C698.958 891.248 695.754 888.206 690.786 888.206C685.818 888.206 682.632 891.248 682.632 895.46C682.632 899.654 685.818 902.696 690.786 902.696C695.754 902.696 698.958 899.654 698.958 895.46ZM696.492 895.46C696.492 898.538 694.188 900.914 690.786 900.914C687.402 900.914 685.098 898.538 685.098 895.46C685.098 892.364 687.402 889.988 690.786 889.988C694.188 889.988 696.492 892.364 696.492 895.46ZM701.664 902.444H712.014V900.914H704.004V888.458H701.664V902.444ZM713.635 902.444H723.985V900.914H715.975V888.458H713.635V902.444ZM739.71 888.458H733.41V902.444H739.71C744.39 902.444 747.324 899.78 747.324 895.46C747.324 891.122 744.39 888.458 739.71 888.458ZM735.75 889.988H738.63C742.59 889.988 744.858 891.86 744.858 895.46C744.858 899.06 742.59 900.914 738.63 900.914H735.75V889.988ZM765.807 895.46C765.807 891.248 762.603 888.206 757.635 888.206C752.667 888.206 749.481 891.248 749.481 895.46C749.481 899.654 752.667 902.696 757.635 902.696C762.603 902.696 765.807 899.654 765.807 895.46ZM763.341 895.46C763.341 898.538 761.037 900.914 757.635 900.914C754.251 900.914 751.947 898.538 751.947 895.46C751.947 892.364 754.251 889.988 757.635 889.988C761.037 889.988 763.341 892.364 763.341 895.46ZM789.559 888.458H787.057L783.133 900.914L779.389 888.458H776.527L772.783 900.914L768.859 888.458H766.357L771.127 902.444H774.439L777.949 890.888L781.477 902.444H784.789L789.559 888.458ZM805.059 888.458H802.719V900.014L794.421 888.458H791.541V902.444H793.881V890.888L802.179 902.444H805.059V888.458Z" fill="#F2F2F2"/>
<path d="M720.461 820.482L720.461 866.482" stroke="#F2F2F2" stroke-width="2"/>
<path d="M743.817 845.334L742.335 845.926C732.106 850.011 724.135 858.307 720.461 868.69V868.69V868.69C715.954 858.201 707.594 849.841 697.105 845.334V845.334" stroke="#F2F2F2" stroke-width="2"/>
</svg>
