<svg width="5741" height="492" viewBox="0 0 5741 492" fill="none" xmlns="http://www.w3.org/2000/svg">
<path d="M285.8 285H314.4V208.66H408.56V189.96H314.4V132.76H414.72V114.06H285.8V285ZM1345.13 285H1375.71L1296.51 114.06H1249.43L1170.23 285H1200.59L1225.01 230.66H1320.71L1345.13 285ZM1269.23 132.76H1276.93L1312.35 211.96H1233.59L1269.23 132.76ZM2144.28 181.82C2144.28 181.82 2137.24 110.98 2054.08 110.98C1993.36 110.98 1958.82 148.16 1958.82 199.64C1958.82 250.9 1995.56 288.08 2056.28 288.08C2142.08 288.08 2148.9 220.54 2148.9 220.54L2119.42 211.96C2119.42 211.96 2118.1 266.3 2056.28 266.3C2014.92 266.3 1988.96 237.26 1988.96 199.64C1988.96 161.8 2012.72 132.76 2054.08 132.76C2112.6 132.76 2114.8 190.62 2114.8 190.62L2144.28 181.82ZM4049.78 132.76H4122.38V285H4150.32V132.76H4222.92V114.06H4049.78V132.76Z" fill="#DDDFE0"/>
<path d="M436.784 114.06V285H465.384V114.06H436.784ZM667.909 114.06H639.309V255.3L537.889 114.06H502.689V285H531.289V143.76L632.709 285H667.909V114.06ZM782.235 114.06H705.235V285H782.235C839.435 285 875.295 252.44 875.295 199.64C875.295 146.62 839.435 114.06 782.235 114.06ZM733.835 132.76H769.035C817.435 132.76 845.155 155.64 845.155 199.64C845.155 243.64 817.435 266.3 769.035 266.3H733.835V132.76ZM1397.63 285H1524.13V266.3H1426.23V114.06H1397.63V285ZM1541.74 285H1668.24V266.3H1570.34V114.06H1541.74V285ZM2372.73 199.64C2372.73 148.16 2333.57 110.98 2272.85 110.98C2212.13 110.98 2173.19 148.16 2173.19 199.64C2173.19 250.9 2212.13 288.08 2272.85 288.08C2333.57 288.08 2372.73 250.9 2372.73 199.64ZM2342.59 199.64C2342.59 237.26 2314.43 266.3 2272.85 266.3C2231.49 266.3 2203.33 237.26 2203.33 199.64C2203.33 161.8 2231.49 132.76 2272.85 132.76C2314.43 132.76 2342.59 161.8 2342.59 199.64ZM2568.82 114.06H2540.22V255.3L2438.8 114.06H2403.6V285H2432.2V143.76L2533.62 285H2568.82V114.06ZM2662.91 180.28C2643.99 176.1 2632.77 170.38 2632.77 157.4C2632.77 142.88 2647.51 132.76 2670.61 132.76C2722.09 132.76 2719.01 169.94 2719.01 169.94L2748.49 162.02C2748.49 162.02 2746.73 110.98 2671.93 110.98C2623.97 110.98 2603.07 134.3 2603.07 160.04C2603.07 180.5 2617.37 196.78 2646.63 203.6L2688.21 213.28C2713.29 219.22 2726.93 224.06 2726.93 240.56C2726.93 254.64 2710.43 266.3 2682.71 266.3C2619.35 266.3 2624.63 218.56 2624.63 218.56L2595.15 227.14C2596.25 250.24 2616.71 288.08 2683.37 288.08C2724.73 288.08 2756.63 271.36 2756.63 239.24C2756.63 217.02 2743.65 198.32 2706.47 189.96L2662.91 180.28ZM2783.13 114.06V285H2811.73V206.68H2855.73C2908.53 206.68 2932.51 191.72 2932.51 160.26C2932.51 128.8 2908.53 114.06 2855.73 114.06H2783.13ZM2811.73 187.98V132.76H2855.73C2882.13 132.76 2902.37 138.26 2902.37 160.26C2902.37 182.26 2882.13 187.98 2855.73 187.98H2811.73ZM2954.52 114.06V285H2983.12V114.06H2954.52ZM3020.43 114.06V285H3049.03V206.68H3077.63C3113.93 206.68 3125.37 213.72 3129.99 233.08C3139.23 272.02 3141.21 280.6 3144.51 285H3174.21C3170.91 280.6 3168.93 273.12 3157.27 228.24C3152.21 208.44 3134.17 200.96 3118.11 198.98C3147.81 198.98 3169.81 186.44 3169.81 160.26C3169.81 128.8 3145.83 114.06 3093.03 114.06H3020.43ZM3049.03 187.98V132.76H3093.03C3119.43 132.76 3139.67 138.26 3139.67 160.26C3139.67 182.26 3119.43 187.98 3093.03 187.98H3049.03ZM3364.43 285H3395.01L3315.81 114.06H3268.73L3189.53 285H3219.89L3244.31 230.66H3340.01L3364.43 285ZM3288.53 132.76H3296.22L3331.65 211.96H3252.89L3288.53 132.76ZM3595.78 181.82C3595.78 181.82 3588.74 110.98 3505.58 110.98C3444.86 110.98 3410.32 148.16 3410.32 199.64C3410.32 250.9 3447.06 288.08 3507.78 288.08C3593.58 288.08 3600.4 220.54 3600.4 220.54L3570.92 211.96C3570.92 211.96 3569.6 266.3 3507.78 266.3C3466.42 266.3 3440.46 237.26 3440.46 199.64C3440.46 161.8 3464.22 132.76 3505.58 132.76C3564.1 132.76 3566.3 190.62 3566.3 190.62L3595.78 181.82ZM3664.48 202.06V285H3693.08V202.06L3770.3 114.06H3737.3L3678.78 180.72L3620.26 114.06H3587.26L3664.48 202.06ZM4376.94 285H4405.54V114.06H4376.94V189.96H4269.14V114.06H4240.54V285H4269.14V208.66H4376.94V285ZM4442.87 285H4578.17V266.3H4471.47V208.66H4565.63V189.96H4471.47V132.76H4571.79V114.06H4442.87V285ZM4797.54 199.64C4797.54 148.16 4758.38 110.98 4697.66 110.98C4636.94 110.98 4598 148.16 4598 199.64C4598 250.9 4636.94 288.08 4697.66 288.08C4758.38 288.08 4797.54 250.9 4797.54 199.64ZM4767.4 199.64C4767.4 237.26 4739.24 266.3 4697.66 266.3C4656.3 266.3 4628.14 237.26 4628.14 199.64C4628.14 161.8 4656.3 132.76 4697.66 132.76C4739.24 132.76 4767.4 161.8 4767.4 199.64ZM4828.41 114.06V285H4857.01V206.68H4885.61C4921.91 206.68 4933.35 213.72 4937.97 233.08C4947.21 272.02 4949.19 280.6 4952.49 285H4982.19C4978.89 280.6 4976.91 273.12 4965.25 228.24C4960.19 208.44 4942.15 200.96 4926.09 198.98C4955.79 198.98 4977.79 186.44 4977.79 160.26C4977.79 128.8 4953.81 114.06 4901.01 114.06H4828.41ZM4857.01 187.98V132.76H4901.01C4927.41 132.76 4947.65 138.26 4947.65 160.26C4947.65 182.26 4927.41 187.98 4901.01 187.98H4857.01ZM5012.91 114.06V285H5041.51V114.06H5012.91ZM5078.82 285H5214.12V266.3H5107.42V208.66H5201.58V189.96H5107.42V132.76H5207.74V114.06H5078.82V285ZM5297.3 180.28C5278.38 176.1 5267.16 170.38 5267.16 157.4C5267.16 142.88 5281.9 132.76 5305 132.76C5356.48 132.76 5353.4 169.94 5353.4 169.94L5382.88 162.02C5382.88 162.02 5381.12 110.98 5306.32 110.98C5258.36 110.98 5237.46 134.3 5237.46 160.04C5237.46 180.5 5251.76 196.78 5281.02 203.6L5322.6 213.28C5347.68 219.22 5361.32 224.06 5361.32 240.56C5361.32 254.64 5344.82 266.3 5317.1 266.3C5253.74 266.3 5259.02 218.56 5259.02 218.56L5229.54 227.14C5230.64 250.24 5251.1 288.08 5317.76 288.08C5359.12 288.08 5391.02 271.36 5391.02 239.24C5391.02 217.02 5378.04 198.32 5340.86 189.96L5297.3 180.28Z" fill="#151515"/>
<path d="M285.8 285H283.8V287H285.8V285ZM314.4 285V287H316.4V285H314.4ZM314.4 208.66V206.66H312.4V208.66H314.4ZM408.56 208.66V210.66H410.56V208.66H408.56ZM408.56 189.96H410.56V187.96H408.56V189.96ZM314.4 189.96H312.4V191.96H314.4V189.96ZM314.4 132.76V130.76H312.4V132.76H314.4ZM414.72 132.76V134.76H416.72V132.76H414.72ZM414.72 114.06H416.72V112.06H414.72V114.06ZM285.8 114.06V112.06H283.8V114.06H285.8ZM285.8 287H314.4V283H285.8V287ZM316.4 285V208.66H312.4V285H316.4ZM314.4 210.66H408.56V206.66H314.4V210.66ZM410.56 208.66V189.96H406.56V208.66H410.56ZM408.56 187.96H314.4V191.96H408.56V187.96ZM316.4 189.96V132.76H312.4V189.96H316.4ZM314.4 134.76H414.72V130.76H314.4V134.76ZM416.72 132.76V114.06H412.72V132.76H416.72ZM414.72 112.06H285.8V116.06H414.72V112.06ZM283.8 114.06V285H287.8V114.06H283.8ZM436.784 114.06V112.06H434.784V114.06H436.784ZM436.784 285H434.784V287H436.784V285ZM465.384 285V287H467.384V285H465.384ZM465.384 114.06H467.384V112.06H465.384V114.06ZM434.784 114.06V285H438.784V114.06H434.784ZM436.784 287H465.384V283H436.784V287ZM467.384 285V114.06H463.384V285H467.384ZM465.384 112.06H436.784V116.06H465.384V112.06ZM667.909 114.06H669.909V112.06H667.909V114.06ZM639.309 114.06V112.06H637.309V114.06H639.309ZM639.309 255.3L637.685 256.467L641.309 261.514V255.3H639.309ZM537.889 114.06L539.514 112.893L538.915 112.06H537.889V114.06ZM502.689 114.06V112.06H500.689V114.06H502.689ZM502.689 285H500.689V287H502.689V285ZM531.289 285V287H533.289V285H531.289ZM531.289 143.76L532.914 142.593L529.289 137.546V143.76H531.289ZM632.709 285L631.085 286.167L631.683 287H632.709V285ZM667.909 285V287H669.909V285H667.909ZM667.909 112.06H639.309V116.06H667.909V112.06ZM637.309 114.06V255.3H641.309V114.06H637.309ZM640.934 254.133L539.514 112.893L536.265 115.227L637.685 256.467L640.934 254.133ZM537.889 112.06H502.689V116.06H537.889V112.06ZM500.689 114.06V285H504.689V114.06H500.689ZM502.689 287H531.289V283H502.689V287ZM533.289 285V143.76H529.289V285H533.289ZM529.665 144.927L631.085 286.167L634.334 283.833L532.914 142.593L529.665 144.927ZM632.709 287H667.909V283H632.709V287ZM669.909 285V114.06H665.909V285H669.909ZM705.235 114.06V112.06H703.235V114.06H705.235ZM705.235 285H703.235V287H705.235V285ZM733.835 132.76V130.76H731.835V132.76H733.835ZM733.835 266.3H731.835V268.3H733.835V266.3ZM782.235 112.06H705.235V116.06H782.235V112.06ZM703.235 114.06V285H707.235V114.06H703.235ZM705.235 287H782.235V283H705.235V287ZM782.235 287C811.206 287 834.996 278.751 851.565 263.596C868.155 248.421 877.295 226.514 877.295 199.64H873.295C873.295 225.566 864.505 246.339 848.865 260.644C833.204 274.969 810.464 283 782.235 283V287ZM877.295 199.64C877.295 172.659 868.156 150.696 851.566 135.493C834.997 120.309 811.206 112.06 782.235 112.06V116.06C810.464 116.06 833.203 124.091 848.864 138.442C864.504 152.774 873.295 173.601 873.295 199.64H877.295ZM733.835 134.76H769.035V130.76H733.835V134.76ZM769.035 134.76C792.952 134.76 811.446 140.416 823.937 151.213C836.38 161.969 843.155 178.079 843.155 199.64H847.155C847.155 177.201 840.07 159.871 826.553 148.187C813.084 136.544 793.518 130.76 769.035 130.76V134.76ZM843.155 199.64C843.155 221.201 836.381 237.253 823.941 247.954C811.451 258.697 792.956 264.3 769.035 264.3V268.3C793.514 268.3 813.079 262.573 826.549 250.986C840.069 239.357 847.155 222.079 847.155 199.64H843.155ZM769.035 264.3H733.835V268.3H769.035V264.3ZM735.835 266.3V132.76H731.835V266.3H735.835ZM1345.13 285L1343.31 285.82L1343.84 287H1345.13V285ZM1375.71 285V287H1378.85L1377.53 284.159L1375.71 285ZM1296.51 114.06L1298.33 113.219L1297.79 112.06H1296.51V114.06ZM1249.43 114.06V112.06H1248.16L1247.62 113.219L1249.43 114.06ZM1170.23 285L1168.42 284.159L1167.1 287H1170.23V285ZM1200.59 285V287H1201.89L1202.42 285.82L1200.59 285ZM1225.01 230.66V228.66H1223.72L1223.19 229.84L1225.01 230.66ZM1320.71 230.66L1322.54 229.84L1322.01 228.66H1320.71V230.66ZM1269.23 132.76V130.76H1267.94L1267.41 131.939L1269.23 132.76ZM1276.93 132.76L1278.76 131.943L1278.23 130.76H1276.93V132.76ZM1312.35 211.96V213.96H1315.44L1314.18 211.143L1312.35 211.96ZM1233.59 211.96L1231.77 211.139L1230.5 213.96H1233.59V211.96ZM1345.13 287H1375.71V283H1345.13V287ZM1377.53 284.159L1298.33 113.219L1294.7 114.901L1373.9 285.841L1377.53 284.159ZM1296.51 112.06H1249.43V116.06H1296.51V112.06ZM1247.62 113.219L1168.42 284.159L1172.05 285.841L1251.25 114.901L1247.62 113.219ZM1170.23 287H1200.59V283H1170.23V287ZM1202.42 285.82L1226.84 231.48L1223.19 229.84L1198.77 284.18L1202.42 285.82ZM1225.01 232.66H1320.71V228.66H1225.01V232.66ZM1318.89 231.48L1343.31 285.82L1346.96 284.18L1322.54 229.84L1318.89 231.48ZM1269.23 134.76H1276.93V130.76H1269.23V134.76ZM1275.11 133.577L1310.53 212.777L1314.18 211.143L1278.76 131.943L1275.11 133.577ZM1312.35 209.96H1233.59V213.96H1312.35V209.96ZM1235.42 212.781L1271.06 133.581L1267.41 131.939L1231.77 211.139L1235.42 212.781ZM1397.63 285H1395.63V287H1397.63V285ZM1524.13 285V287H1526.13V285H1524.13ZM1524.13 266.3H1526.13V264.3H1524.13V266.3ZM1426.23 266.3H1424.23V268.3H1426.23V266.3ZM1426.23 114.06H1428.23V112.06H1426.23V114.06ZM1397.63 114.06V112.06H1395.63V114.06H1397.63ZM1397.63 287H1524.13V283H1397.63V287ZM1526.13 285V266.3H1522.13V285H1526.13ZM1524.13 264.3H1426.23V268.3H1524.13V264.3ZM1428.23 266.3V114.06H1424.23V266.3H1428.23ZM1426.23 112.06H1397.63V116.06H1426.23V112.06ZM1395.63 114.06V285H1399.63V114.06H1395.63ZM1541.74 285H1539.74V287H1541.74V285ZM1668.24 285V287H1670.24V285H1668.24ZM1668.24 266.3H1670.24V264.3H1668.24V266.3ZM1570.34 266.3H1568.34V268.3H1570.34V266.3ZM1570.34 114.06H1572.34V112.06H1570.34V114.06ZM1541.74 114.06V112.06H1539.74V114.06H1541.74ZM1541.74 287H1668.24V283H1541.74V287ZM1670.24 285V266.3H1666.24V285H1670.24ZM1668.24 264.3H1570.34V268.3H1668.24V264.3ZM1572.34 266.3V114.06H1568.34V266.3H1572.34ZM1570.34 112.06H1541.74V116.06H1570.34V112.06ZM1539.74 114.06V285H1543.74V114.06H1539.74ZM2144.28 181.82L2144.85 183.736L2146.44 183.264L2146.27 181.622L2144.28 181.82ZM2148.9 220.54L2150.89 220.741L2151.06 219.085L2149.46 218.62L2148.9 220.54ZM2119.42 211.96L2119.98 210.04L2117.49 209.313L2117.42 211.911L2119.42 211.96ZM2114.8 190.62L2112.8 190.696L2112.9 193.275L2115.37 192.536L2114.8 190.62ZM2144.28 181.82C2146.27 181.622 2146.27 181.621 2146.27 181.619C2146.27 181.618 2146.27 181.616 2146.27 181.614C2146.27 181.611 2146.27 181.606 2146.27 181.6C2146.27 181.589 2146.27 181.573 2146.27 181.553C2146.26 181.512 2146.25 181.455 2146.25 181.382C2146.23 181.235 2146.2 181.023 2146.16 180.75C2146.09 180.204 2145.97 179.414 2145.79 178.416C2145.42 176.419 2144.8 173.582 2143.8 170.185C2141.8 163.398 2138.24 154.338 2132.02 145.268C2119.5 127.036 2096.35 108.98 2054.08 108.98V112.98C2094.98 112.98 2116.92 130.344 2128.72 147.532C2134.65 156.172 2138.05 164.822 2139.97 171.317C2140.92 174.562 2141.51 177.26 2141.85 179.137C2142.02 180.075 2142.13 180.807 2142.2 181.299C2142.24 181.545 2142.26 181.73 2142.27 181.852C2142.28 181.912 2142.29 181.957 2142.29 181.985C2142.29 181.999 2142.29 182.008 2142.29 182.014C2142.29 182.017 2142.29 182.018 2142.29 182.019C2142.29 182.019 2142.29 182.019 2142.29 182.019C2142.29 182.019 2142.29 182.018 2144.28 181.82ZM2054.08 108.98C2023.31 108.98 1998.96 118.409 1982.29 134.569C1965.62 150.731 1956.82 173.443 1956.82 199.64H1960.82C1960.82 174.357 1969.3 152.739 1985.07 137.441C2000.86 122.141 2024.14 112.98 2054.08 112.98V108.98ZM1956.82 199.64C1956.82 225.766 1966.2 248.424 1983.42 264.543C2000.63 280.653 2025.51 290.08 2056.28 290.08V286.08C2026.33 286.08 2002.49 276.917 1986.15 261.622C1969.82 246.336 1960.82 224.774 1960.82 199.64H1956.82ZM2056.28 290.08C2099.8 290.08 2123.56 272.906 2136.38 255.496C2142.75 246.835 2146.38 238.18 2148.41 231.69C2149.42 228.443 2150.04 225.73 2150.41 223.819C2150.59 222.863 2150.71 222.106 2150.78 221.582C2150.82 221.32 2150.85 221.116 2150.87 220.975C2150.87 220.904 2150.88 220.849 2150.89 220.81C2150.89 220.79 2150.89 220.775 2150.89 220.763C2150.89 220.757 2150.89 220.753 2150.89 220.749C2150.89 220.747 2150.89 220.745 2150.89 220.744C2150.89 220.742 2150.89 220.741 2148.9 220.54C2146.91 220.339 2146.91 220.338 2146.91 220.337C2146.91 220.337 2146.91 220.337 2146.91 220.337C2146.91 220.338 2146.91 220.339 2146.91 220.342C2146.91 220.346 2146.91 220.355 2146.91 220.368C2146.91 220.394 2146.9 220.436 2146.9 220.493C2146.88 220.607 2146.86 220.782 2146.83 221.015C2146.76 221.48 2146.65 222.175 2146.48 223.066C2146.14 224.848 2145.55 227.411 2144.59 230.496C2142.66 236.67 2139.21 244.9 2133.16 253.124C2121.11 269.484 2098.56 286.08 2056.28 286.08V290.08ZM2149.46 218.62L2119.98 210.04L2118.86 213.88L2148.34 222.46L2149.46 218.62ZM2119.42 211.96C2117.42 211.911 2117.42 211.911 2117.42 211.91C2117.42 211.91 2117.42 211.909 2117.42 211.909C2117.42 211.91 2117.42 211.911 2117.42 211.912C2117.42 211.916 2117.42 211.923 2117.42 211.933C2117.42 211.953 2117.42 211.986 2117.42 212.031C2117.41 212.121 2117.41 212.26 2117.4 212.446C2117.37 212.817 2117.33 213.372 2117.26 214.085C2117.11 215.511 2116.82 217.563 2116.29 220.032C2115.24 224.978 2113.2 231.553 2109.31 238.11C2101.61 251.104 2086.47 264.3 2056.28 264.3V268.3C2087.92 268.3 2104.35 254.326 2112.76 240.15C2116.92 233.122 2119.08 226.112 2120.21 220.869C2120.77 218.244 2121.07 216.051 2121.23 214.505C2121.32 213.732 2121.36 213.119 2121.39 212.694C2121.4 212.482 2121.41 212.316 2121.42 212.201C2121.42 212.143 2121.42 212.098 2121.42 212.066C2121.42 212.05 2121.42 212.037 2121.42 212.027C2121.42 212.023 2121.42 212.019 2121.42 212.016C2121.42 212.014 2121.42 212.012 2121.42 212.011C2121.42 212.01 2121.42 212.009 2119.42 211.96ZM2056.28 264.3C2036.09 264.3 2019.79 257.222 2008.54 245.682C1997.29 234.131 1990.96 217.985 1990.96 199.64H1986.96C1986.96 218.915 1993.62 236.099 2005.68 248.473C2017.75 260.858 2035.12 268.3 2056.28 268.3V264.3ZM1990.96 199.64C1990.96 181.133 1996.77 164.928 2007.48 153.369C2018.17 141.831 2033.9 134.76 2054.08 134.76V130.76C2032.91 130.76 2016.07 138.209 2004.55 150.651C1993.04 163.072 1986.96 180.307 1986.96 199.64H1990.96ZM2054.08 134.76C2082.5 134.76 2097.06 148.726 2104.63 162.645C2108.44 169.657 2110.49 176.69 2111.59 181.984C2112.13 184.627 2112.44 186.824 2112.61 188.353C2112.69 189.117 2112.74 189.713 2112.77 190.113C2112.78 190.313 2112.79 190.464 2112.8 190.563C2112.8 190.612 2112.8 190.648 2112.8 190.67C2112.8 190.681 2112.8 190.689 2112.8 190.693C2112.8 190.696 2112.8 190.697 2112.8 190.697C2112.8 190.698 2112.8 190.697 2112.8 190.697C2112.8 190.697 2112.8 190.696 2114.8 190.62C2116.8 190.544 2116.8 190.543 2116.8 190.541C2116.8 190.541 2116.8 190.539 2116.8 190.537C2116.8 190.534 2116.8 190.53 2116.8 190.526C2116.8 190.516 2116.8 190.503 2116.8 190.486C2116.8 190.453 2116.79 190.406 2116.79 190.346C2116.79 190.225 2116.77 190.051 2116.76 189.827C2116.73 189.38 2116.67 188.733 2116.58 187.915C2116.4 186.279 2116.08 183.956 2115.5 181.175C2114.36 175.62 2112.2 168.188 2108.14 160.735C2099.98 145.724 2084.18 130.76 2054.08 130.76V134.76ZM2115.37 192.536L2144.85 183.736L2143.71 179.904L2114.23 188.704L2115.37 192.536ZM2374.73 199.64C2374.73 173.367 2364.72 150.652 2346.9 134.522C2329.09 118.404 2303.61 108.98 2272.85 108.98V112.98C2302.8 112.98 2327.26 122.146 2344.21 137.488C2361.15 152.818 2370.73 174.433 2370.73 199.64H2374.73ZM2272.85 108.98C2242.08 108.98 2216.66 118.404 2198.9 134.524C2181.13 150.656 2171.19 173.371 2171.19 199.64H2175.19C2175.19 174.429 2184.71 152.814 2201.59 137.486C2218.49 122.146 2242.89 112.98 2272.85 112.98V108.98ZM2171.19 199.64C2171.19 225.802 2181.14 248.461 2198.9 264.564C2216.66 280.656 2242.08 290.08 2272.85 290.08V286.08C2242.89 286.08 2218.48 276.914 2201.59 261.601C2184.71 246.299 2175.19 224.738 2175.19 199.64H2171.19ZM2272.85 290.08C2303.61 290.08 2329.09 280.656 2346.9 264.567C2364.72 248.465 2374.73 225.805 2374.73 199.64H2370.73C2370.73 224.735 2361.15 246.295 2344.21 261.598C2327.26 276.914 2302.8 286.08 2272.85 286.08V290.08ZM2340.59 199.64C2340.59 236.113 2313.36 264.3 2272.85 264.3V268.3C2315.49 268.3 2344.59 238.407 2344.59 199.64H2340.59ZM2272.85 264.3C2232.55 264.3 2205.33 236.117 2205.33 199.64H2201.33C2201.33 238.403 2230.42 268.3 2272.85 268.3V264.3ZM2205.33 199.64C2205.33 162.939 2232.56 134.76 2272.85 134.76V130.76C2230.41 130.76 2201.33 160.661 2201.33 199.64H2205.33ZM2272.85 134.76C2313.36 134.76 2340.59 162.943 2340.59 199.64H2344.59C2344.59 160.657 2315.49 130.76 2272.85 130.76V134.76ZM2568.82 114.06H2570.82V112.06H2568.82V114.06ZM2540.22 114.06V112.06H2538.22V114.06H2540.22ZM2540.22 255.3L2538.6 256.467L2542.22 261.514V255.3H2540.22ZM2438.8 114.06L2440.43 112.893L2439.83 112.06H2438.8V114.06ZM2403.6 114.06V112.06H2401.6V114.06H2403.6ZM2403.6 285H2401.6V287H2403.6V285ZM2432.2 285V287H2434.2V285H2432.2ZM2432.2 143.76L2433.83 142.593L2430.2 137.546V143.76H2432.2ZM2533.62 285L2532 286.167L2532.59 287H2533.62V285ZM2568.82 285V287H2570.82V285H2568.82ZM2568.82 112.06H2540.22V116.06H2568.82V112.06ZM2538.22 114.06V255.3H2542.22V114.06H2538.22ZM2541.85 254.133L2440.43 112.893L2437.18 115.227L2538.6 256.467L2541.85 254.133ZM2438.8 112.06H2403.6V116.06H2438.8V112.06ZM2401.6 114.06V285H2405.6V114.06H2401.6ZM2403.6 287H2432.2V283H2403.6V287ZM2434.2 285V143.76H2430.2V285H2434.2ZM2430.58 144.927L2532 286.167L2535.25 283.833L2433.83 142.593L2430.58 144.927ZM2533.62 287H2568.82V283H2533.62V287ZM2570.82 285V114.06H2566.82V285H2570.82ZM2662.91 180.28L2663.34 178.328L2663.34 178.327L2662.91 180.28ZM2719.01 169.94L2717.01 169.775L2716.78 172.609L2719.53 171.872L2719.01 169.94ZM2748.49 162.02L2749.01 163.952L2750.54 163.539L2750.49 161.951L2748.49 162.02ZM2646.63 203.6L2646.17 205.548L2646.17 205.548L2646.63 203.6ZM2688.21 213.28L2688.67 211.334L2688.66 211.332L2688.21 213.28ZM2624.63 218.56L2626.61 218.78L2626.94 215.803L2624.07 216.64L2624.63 218.56ZM2595.15 227.14L2594.59 225.22L2593.07 225.66L2593.15 227.235L2595.15 227.14ZM2706.47 189.96L2706.91 188.009L2706.9 188.008L2706.47 189.96ZM2663.34 178.327C2653.92 176.246 2646.71 173.836 2641.88 170.495C2637.19 167.252 2634.77 163.163 2634.77 157.4H2630.77C2630.77 164.617 2633.95 169.878 2639.6 173.785C2645.11 177.594 2652.97 180.134 2662.48 182.233L2663.34 178.327ZM2634.77 157.4C2634.77 150.912 2638.03 145.337 2644.13 141.303C2650.28 137.237 2659.32 134.76 2670.61 134.76V130.76C2658.79 130.76 2648.91 133.343 2641.92 137.967C2634.88 142.623 2630.77 149.368 2630.77 157.4H2634.77ZM2670.61 134.76C2695.8 134.76 2707.17 143.809 2712.4 152.391C2715.06 156.753 2716.22 161.128 2716.71 164.423C2716.95 166.068 2717.02 167.432 2717.04 168.375C2717.05 168.845 2717.04 169.209 2717.03 169.449C2717.03 169.569 2717.02 169.657 2717.02 169.713C2717.02 169.74 2717.01 169.759 2717.01 169.77C2717.01 169.775 2717.01 169.778 2717.01 169.779C2717.01 169.779 2717.01 169.779 2717.01 169.779C2717.01 169.778 2717.01 169.777 2717.01 169.777C2717.01 169.776 2717.01 169.775 2719.01 169.94C2721 170.105 2721 170.104 2721 170.102C2721 170.101 2721 170.1 2721 170.098C2721 170.095 2721 170.092 2721 170.088C2721 170.079 2721 170.069 2721 170.056C2721.01 170.031 2721.01 169.997 2721.01 169.954C2721.02 169.869 2721.02 169.748 2721.03 169.596C2721.04 169.291 2721.05 168.856 2721.04 168.31C2721.02 167.219 2720.93 165.679 2720.66 163.838C2720.12 160.162 2718.83 155.242 2715.82 150.309C2709.72 140.301 2696.9 130.76 2670.61 130.76V134.76ZM2719.53 171.872L2749.01 163.952L2747.97 160.088L2718.49 168.008L2719.53 171.872ZM2748.49 162.02C2750.49 161.951 2750.49 161.949 2750.49 161.948C2750.49 161.947 2750.49 161.945 2750.49 161.943C2750.49 161.94 2750.49 161.935 2750.48 161.93C2750.48 161.92 2750.48 161.907 2750.48 161.891C2750.48 161.858 2750.48 161.814 2750.48 161.758C2750.47 161.645 2750.46 161.485 2750.44 161.281C2750.41 160.873 2750.35 160.288 2750.25 159.551C2750.04 158.079 2749.66 155.997 2748.97 153.508C2747.58 148.533 2744.93 141.907 2739.84 135.283C2729.61 121.945 2709.83 108.98 2671.93 108.98V112.98C2708.82 112.98 2727.32 125.535 2736.67 137.717C2741.38 143.853 2743.84 149.987 2745.12 154.582C2745.76 156.878 2746.1 158.784 2746.28 160.103C2746.38 160.762 2746.43 161.273 2746.46 161.613C2746.47 161.783 2746.48 161.909 2746.48 161.99C2746.49 162.03 2746.49 162.058 2746.49 162.075C2746.49 162.083 2746.49 162.089 2746.49 162.091C2746.49 162.092 2746.49 162.093 2746.49 162.092C2746.49 162.092 2746.49 162.091 2746.49 162.091C2746.49 162.09 2746.49 162.089 2748.49 162.02ZM2671.93 108.98C2647.64 108.98 2629.93 114.884 2618.26 124.301C2606.54 133.745 2601.07 146.594 2601.07 160.04H2605.07C2605.07 147.746 2610.04 136.065 2620.77 127.414C2631.53 118.736 2648.25 112.98 2671.93 112.98V108.98ZM2601.07 160.04C2601.07 170.774 2604.83 180.462 2612.44 188.325C2620.01 196.158 2631.29 202.078 2646.17 205.548L2647.08 201.652C2632.71 198.302 2622.2 192.672 2615.31 185.545C2608.45 178.448 2605.07 169.766 2605.07 160.04H2601.07ZM2646.17 205.548L2687.75 215.228L2688.66 211.332L2647.08 201.652L2646.17 205.548ZM2687.75 215.226C2700.34 218.209 2709.7 220.845 2715.93 224.665C2718.99 226.546 2721.21 228.665 2722.68 231.179C2724.14 233.686 2724.93 236.721 2724.93 240.56H2728.93C2728.93 236.149 2728.01 232.391 2726.13 229.165C2724.26 225.945 2721.5 223.389 2718.02 221.255C2711.15 217.045 2701.15 214.291 2688.67 211.334L2687.75 215.226ZM2724.93 240.56C2724.93 246.724 2721.33 252.59 2714.16 257.007C2706.97 261.435 2696.31 264.3 2682.71 264.3V268.3C2696.82 268.3 2708.27 265.335 2716.26 260.413C2724.27 255.48 2728.93 248.476 2728.93 240.56H2724.93ZM2682.71 264.3C2651.61 264.3 2637.84 252.646 2631.66 241.462C2628.52 235.787 2627.25 230.092 2626.78 225.8C2626.54 223.657 2626.5 221.877 2626.52 220.643C2626.53 220.026 2626.56 219.547 2626.58 219.229C2626.59 219.069 2626.6 218.95 2626.61 218.875C2626.61 218.837 2626.61 218.81 2626.61 218.794C2626.61 218.786 2626.61 218.781 2626.61 218.778C2626.62 218.777 2626.62 218.777 2626.62 218.777C2626.62 218.777 2626.62 218.778 2626.62 218.778C2626.61 218.779 2626.61 218.78 2624.63 218.56C2622.64 218.34 2622.64 218.342 2622.64 218.343C2622.64 218.344 2622.64 218.346 2622.64 218.347C2622.64 218.351 2622.64 218.354 2622.64 218.359C2622.64 218.368 2622.63 218.38 2622.63 218.395C2622.63 218.425 2622.63 218.467 2622.62 218.519C2622.61 218.624 2622.6 218.773 2622.59 218.964C2622.56 219.345 2622.53 219.891 2622.52 220.58C2622.5 221.956 2622.55 223.906 2622.8 226.239C2623.32 230.898 2624.7 237.138 2628.16 243.398C2635.17 256.084 2650.44 268.3 2682.71 268.3V264.3ZM2624.07 216.64L2594.59 225.22L2595.71 229.06L2625.19 220.48L2624.07 216.64ZM2593.15 227.235C2593.72 239.284 2599.33 255.028 2613.33 267.753C2627.35 280.501 2649.65 290.08 2683.37 290.08V286.08C2650.43 286.08 2629.16 276.739 2616.02 264.792C2602.85 252.822 2597.67 238.096 2597.14 227.045L2593.15 227.235ZM2683.37 290.08C2704.28 290.08 2723 285.86 2736.57 277.402C2750.21 268.895 2758.63 256.085 2758.63 239.24H2754.63C2754.63 254.515 2747.09 266.125 2734.45 274.008C2721.72 281.94 2703.82 286.08 2683.37 286.08V290.08ZM2758.63 239.24C2758.63 227.713 2755.25 216.969 2746.95 208.041C2738.7 199.152 2725.74 192.243 2706.91 188.009L2706.03 191.911C2724.38 196.037 2736.5 202.658 2744.02 210.764C2751.52 218.831 2754.63 228.547 2754.63 239.24H2758.63ZM2706.9 188.008L2663.34 178.328L2662.47 182.232L2706.03 191.912L2706.9 188.008ZM2783.13 114.06V112.06H2781.13V114.06H2783.13ZM2783.13 285H2781.13V287H2783.13V285ZM2811.73 285V287H2813.73V285H2811.73ZM2811.73 206.68V204.68H2809.73V206.68H2811.73ZM2811.73 187.98H2809.73V189.98H2811.73V187.98ZM2811.73 132.76V130.76H2809.73V132.76H2811.73ZM2781.13 114.06V285H2785.13V114.06H2781.13ZM2783.13 287H2811.73V283H2783.13V287ZM2813.73 285V206.68H2809.73V285H2813.73ZM2811.73 208.68H2855.73V204.68H2811.73V208.68ZM2855.73 208.68C2882.24 208.68 2901.89 204.938 2914.96 196.976C2928.22 188.899 2934.51 176.605 2934.51 160.26H2930.51C2930.51 175.375 2924.81 186.291 2912.88 193.559C2900.76 200.942 2882.01 204.68 2855.73 204.68V208.68ZM2934.51 160.26C2934.51 143.913 2928.21 131.672 2914.95 123.651C2901.88 115.746 2882.24 112.06 2855.73 112.06V116.06C2882.02 116.06 2900.76 119.744 2912.88 127.074C2924.81 134.288 2930.51 145.147 2930.51 160.26H2934.51ZM2855.73 112.06H2783.13V116.06H2855.73V112.06ZM2813.73 187.98V132.76H2809.73V187.98H2813.73ZM2811.73 134.76H2855.73V130.76H2811.73V134.76ZM2855.73 134.76C2868.87 134.76 2880.13 136.142 2888.06 140.054C2891.99 141.99 2895.03 144.519 2897.11 147.76C2899.18 150.997 2900.37 155.077 2900.37 160.26H2904.37C2904.37 154.443 2903.02 149.586 2900.48 145.604C2897.93 141.626 2894.27 138.655 2889.83 136.466C2881.04 132.128 2868.99 130.76 2855.73 130.76V134.76ZM2900.37 160.26C2900.37 165.443 2899.18 169.539 2897.1 172.799C2895.03 176.063 2891.98 178.618 2888.05 180.581C2880.13 184.544 2868.86 185.98 2855.73 185.98V189.98C2868.99 189.98 2881.05 188.556 2889.84 184.159C2894.28 181.942 2897.94 178.942 2900.48 174.946C2903.02 170.946 2904.37 166.077 2904.37 160.26H2900.37ZM2855.73 185.98H2811.73V189.98H2855.73V185.98ZM2954.52 114.06V112.06H2952.52V114.06H2954.52ZM2954.52 285H2952.52V287H2954.52V285ZM2983.12 285V287H2985.12V285H2983.12ZM2983.12 114.06H2985.12V112.06H2983.12V114.06ZM2952.52 114.06V285H2956.52V114.06H2952.52ZM2954.52 287H2983.12V283H2954.52V287ZM2985.12 285V114.06H2981.12V285H2985.12ZM2983.12 112.06H2954.52V116.06H2983.12V112.06ZM3020.43 114.06V112.06H3018.43V114.06H3020.43ZM3020.43 285H3018.43V287H3020.43V285ZM3049.03 285V287H3051.03V285H3049.03ZM3049.03 206.68V204.68H3047.03V206.68H3049.03ZM3129.99 233.08L3131.93 232.618L3131.93 232.616L3129.99 233.08ZM3144.51 285L3142.91 286.2L3143.51 287H3144.51V285ZM3174.21 285V287H3178.21L3175.81 283.8L3174.21 285ZM3157.27 228.24L3155.33 228.735L3155.33 228.743L3157.27 228.24ZM3118.11 198.98V196.98L3117.86 200.965L3118.11 198.98ZM3049.03 187.98H3047.03V189.98H3049.03V187.98ZM3049.03 132.76V130.76H3047.03V132.76H3049.03ZM3018.43 114.06V285H3022.43V114.06H3018.43ZM3020.43 287H3049.03V283H3020.43V287ZM3051.03 285V206.68H3047.03V285H3051.03ZM3049.03 208.68H3077.63V204.68H3049.03V208.68ZM3077.63 208.68C3095.74 208.68 3107.25 210.454 3114.76 214.391C3122.06 218.22 3125.82 224.224 3128.04 233.544L3131.93 232.616C3129.54 222.576 3125.26 215.38 3116.61 210.849C3108.18 206.426 3095.81 204.68 3077.63 204.68V208.68ZM3128.04 233.542C3132.65 252.99 3135.47 264.915 3137.54 272.519C3139.6 280.063 3141 283.658 3142.91 286.2L3146.11 283.8C3144.71 281.942 3143.47 279.047 3141.4 271.466C3139.35 263.945 3136.56 252.11 3131.93 232.618L3128.04 233.542ZM3144.51 287H3174.21V283H3144.51V287ZM3175.81 283.8C3174.4 281.919 3173.16 279.27 3170.79 271.235C3168.44 263.244 3165.04 250.195 3159.2 227.737L3155.33 228.743C3161.16 251.165 3164.58 264.296 3166.95 272.365C3169.32 280.39 3170.72 283.681 3172.61 286.2L3175.81 283.8ZM3159.2 227.745C3153.83 206.729 3134.69 199.01 3118.35 196.995L3117.86 200.965C3133.64 202.91 3150.58 210.151 3155.33 228.735L3159.2 227.745ZM3118.11 200.98C3133.2 200.98 3146.57 197.8 3156.24 191.079C3165.99 184.295 3171.81 173.999 3171.81 160.26H3167.81C3167.81 172.701 3162.62 181.765 3153.95 187.796C3145.19 193.89 3132.71 196.98 3118.11 196.98V200.98ZM3171.81 160.26C3171.81 143.913 3165.51 131.672 3152.25 123.651C3139.18 115.746 3119.54 112.06 3093.03 112.06V116.06C3119.32 116.06 3138.06 119.744 3150.18 127.074C3162.11 134.288 3167.81 145.147 3167.81 160.26H3171.81ZM3093.03 112.06H3020.43V116.06H3093.03V112.06ZM3051.03 187.98V132.76H3047.03V187.98H3051.03ZM3049.03 134.76H3093.03V130.76H3049.03V134.76ZM3093.03 134.76C3106.16 134.76 3117.43 136.142 3125.36 140.054C3129.29 141.99 3132.33 144.519 3134.41 147.76C3136.48 150.997 3137.67 155.077 3137.67 160.26H3141.67C3141.67 154.443 3140.32 149.586 3137.78 145.604C3135.23 141.626 3131.57 138.655 3127.13 136.466C3118.34 132.128 3106.29 130.76 3093.03 130.76V134.76ZM3137.67 160.26C3137.67 165.443 3136.48 169.539 3134.4 172.799C3132.33 176.063 3129.28 178.618 3125.35 180.581C3117.43 184.544 3106.16 185.98 3093.03 185.98V189.98C3106.29 189.98 3118.35 188.556 3127.14 184.159C3131.57 181.942 3135.24 178.942 3137.78 174.946C3140.32 170.946 3141.67 166.077 3141.67 160.26H3137.67ZM3093.03 185.98H3049.03V189.98H3093.03V185.98ZM3364.43 285L3362.6 285.82L3363.13 287H3364.43V285ZM3395.01 285V287H3398.14L3396.82 284.159L3395.01 285ZM3315.81 114.06L3317.62 113.219L3317.08 112.06H3315.81V114.06ZM3268.73 114.06V112.06H3267.45L3266.91 113.219L3268.73 114.06ZM3189.53 285L3187.71 284.159L3186.39 287H3189.53V285ZM3219.89 285V287H3221.18L3221.71 285.82L3219.89 285ZM3244.31 230.66V228.66H3243.01L3242.48 229.84L3244.31 230.66ZM3340.01 230.66L3341.83 229.84L3341.3 228.66H3340.01V230.66ZM3288.53 132.76V130.76H3287.23L3286.7 131.939L3288.53 132.76ZM3296.22 132.76L3298.05 131.943L3297.52 130.76H3296.22V132.76ZM3331.65 211.96V213.96H3334.73L3333.47 211.143L3331.65 211.96ZM3252.89 211.96L3251.06 211.139L3249.79 213.96H3252.89V211.96ZM3364.43 287H3395.01V283H3364.43V287ZM3396.82 284.159L3317.62 113.219L3313.99 114.901L3393.19 285.841L3396.82 284.159ZM3315.81 112.06H3268.73V116.06H3315.81V112.06ZM3266.91 113.219L3187.71 284.159L3191.34 285.841L3270.54 114.901L3266.91 113.219ZM3189.53 287H3219.89V283H3189.53V287ZM3221.71 285.82L3246.13 231.48L3242.48 229.84L3218.06 284.18L3221.71 285.82ZM3244.31 232.66H3340.01V228.66H3244.31V232.66ZM3338.18 231.48L3362.6 285.82L3366.25 284.18L3341.83 229.84L3338.18 231.48ZM3288.53 134.76H3296.22V130.76H3288.53V134.76ZM3294.4 133.577L3329.82 212.777L3333.47 211.143L3298.05 131.943L3294.4 133.577ZM3331.65 209.96H3252.89V213.96H3331.65V209.96ZM3254.71 212.781L3290.35 133.581L3286.7 131.939L3251.06 211.139L3254.71 212.781ZM3595.78 181.82L3596.36 183.736L3597.94 183.264L3597.77 181.622L3595.78 181.82ZM3600.4 220.54L3602.39 220.741L3602.56 219.085L3600.96 218.62L3600.4 220.54ZM3570.92 211.96L3571.48 210.04L3568.99 209.313L3568.92 211.911L3570.92 211.96ZM3566.3 190.62L3564.31 190.696L3564.4 193.275L3566.88 192.536L3566.3 190.62ZM3595.78 181.82C3597.77 181.622 3597.77 181.621 3597.77 181.619C3597.77 181.618 3597.77 181.616 3597.77 181.614C3597.77 181.611 3597.77 181.606 3597.77 181.6C3597.77 181.589 3597.77 181.573 3597.77 181.553C3597.76 181.512 3597.76 181.455 3597.75 181.382C3597.73 181.235 3597.7 181.023 3597.67 180.75C3597.59 180.204 3597.47 179.414 3597.29 178.416C3596.92 176.419 3596.31 173.582 3595.3 170.185C3593.3 163.398 3589.74 154.338 3583.52 145.268C3571.01 127.036 3547.85 108.98 3505.58 108.98V112.98C3546.48 112.98 3568.42 130.344 3580.22 147.532C3586.15 156.172 3589.55 164.822 3591.47 171.317C3592.42 174.562 3593.01 177.26 3593.35 179.137C3593.52 180.075 3593.64 180.807 3593.7 181.299C3593.74 181.545 3593.76 181.73 3593.78 181.852C3593.78 181.912 3593.79 181.957 3593.79 181.985C3593.79 181.999 3593.79 182.008 3593.79 182.014C3593.79 182.017 3593.79 182.018 3593.79 182.019C3593.79 182.019 3593.79 182.019 3593.79 182.019C3593.79 182.019 3593.79 182.018 3595.78 181.82ZM3505.58 108.98C3474.81 108.98 3450.46 118.409 3433.79 134.569C3417.12 150.731 3408.32 173.443 3408.32 199.64H3412.32C3412.32 174.357 3420.8 152.739 3436.58 137.441C3452.36 122.141 3475.64 112.98 3505.58 112.98V108.98ZM3408.32 199.64C3408.32 225.766 3417.7 248.424 3434.92 264.543C3452.13 280.653 3477.01 290.08 3507.78 290.08V286.08C3477.83 286.08 3453.99 276.917 3437.65 261.622C3421.32 246.336 3412.32 224.774 3412.32 199.64H3408.32ZM3507.78 290.08C3551.3 290.08 3575.06 272.906 3587.88 255.496C3594.26 246.835 3597.88 238.18 3599.91 231.69C3600.92 228.443 3601.54 225.73 3601.91 223.819C3602.09 222.863 3602.21 222.106 3602.29 221.582C3602.32 221.32 3602.35 221.116 3602.37 220.975C3602.38 220.904 3602.38 220.849 3602.39 220.81C3602.39 220.79 3602.39 220.775 3602.39 220.763C3602.39 220.757 3602.39 220.753 3602.39 220.749C3602.39 220.747 3602.39 220.745 3602.39 220.744C3602.39 220.742 3602.39 220.741 3600.4 220.54C3598.41 220.339 3598.41 220.338 3598.41 220.337C3598.41 220.337 3598.41 220.337 3598.41 220.337C3598.41 220.338 3598.41 220.339 3598.41 220.342C3598.41 220.346 3598.41 220.355 3598.41 220.368C3598.41 220.394 3598.4 220.436 3598.4 220.493C3598.38 220.607 3598.36 220.782 3598.33 221.015C3598.26 221.48 3598.15 222.175 3597.98 223.066C3597.64 224.848 3597.05 227.411 3596.09 230.496C3594.16 236.67 3590.71 244.9 3584.66 253.124C3572.62 269.484 3550.07 286.08 3507.78 286.08V290.08ZM3600.96 218.62L3571.48 210.04L3570.37 213.88L3599.85 222.46L3600.96 218.62ZM3570.92 211.96C3568.92 211.911 3568.92 211.911 3568.92 211.91C3568.92 211.91 3568.92 211.909 3568.92 211.909C3568.92 211.91 3568.92 211.911 3568.92 211.912C3568.92 211.916 3568.92 211.923 3568.92 211.933C3568.92 211.953 3568.92 211.986 3568.92 212.031C3568.92 212.121 3568.91 212.26 3568.9 212.446C3568.88 212.817 3568.83 213.372 3568.76 214.085C3568.61 215.511 3568.32 217.563 3567.8 220.032C3566.74 224.978 3564.71 231.553 3560.82 238.11C3553.11 251.104 3537.97 264.3 3507.78 264.3V268.3C3539.42 268.3 3555.85 254.326 3564.26 240.15C3568.43 233.122 3570.59 226.112 3571.71 220.869C3572.27 218.244 3572.57 216.051 3572.74 214.505C3572.82 213.732 3572.86 213.119 3572.89 212.694C3572.9 212.482 3572.91 212.316 3572.92 212.201C3572.92 212.143 3572.92 212.098 3572.92 212.066C3572.92 212.05 3572.92 212.037 3572.92 212.027C3572.92 212.023 3572.92 212.019 3572.92 212.016C3572.92 212.014 3572.92 212.012 3572.92 212.011C3572.92 212.01 3572.92 212.009 3570.92 211.96ZM3507.78 264.3C3487.59 264.3 3471.3 257.222 3460.05 245.682C3448.79 234.131 3442.46 217.985 3442.46 199.64H3438.46C3438.46 218.915 3445.12 236.099 3457.18 248.473C3469.25 260.858 3486.62 268.3 3507.78 268.3V264.3ZM3442.46 199.64C3442.46 181.133 3448.27 164.928 3458.98 153.369C3469.67 141.831 3485.4 134.76 3505.58 134.76V130.76C3484.41 130.76 3467.58 138.209 3456.05 150.651C3444.54 163.072 3438.46 180.307 3438.46 199.64H3442.46ZM3505.58 134.76C3534.01 134.76 3548.56 148.726 3556.13 162.645C3559.94 169.657 3561.99 176.69 3563.09 181.984C3563.63 184.627 3563.94 186.824 3564.11 188.353C3564.19 189.117 3564.24 189.713 3564.27 190.113C3564.28 190.313 3564.29 190.464 3564.3 190.563C3564.3 190.612 3564.3 190.648 3564.3 190.67C3564.31 190.681 3564.31 190.689 3564.31 190.693C3564.31 190.696 3564.31 190.697 3564.31 190.697C3564.31 190.698 3564.31 190.697 3564.31 190.697C3564.31 190.697 3564.31 190.696 3566.3 190.62C3568.3 190.544 3568.3 190.543 3568.3 190.541C3568.3 190.541 3568.3 190.539 3568.3 190.537C3568.3 190.534 3568.3 190.53 3568.3 190.526C3568.3 190.516 3568.3 190.503 3568.3 190.486C3568.3 190.453 3568.3 190.406 3568.29 190.346C3568.29 190.225 3568.28 190.051 3568.26 189.827C3568.23 189.38 3568.17 188.733 3568.08 187.915C3567.9 186.279 3567.58 183.956 3567 181.175C3565.86 175.62 3563.7 168.188 3559.65 160.735C3551.48 145.724 3535.68 130.76 3505.58 130.76V134.76ZM3566.88 192.536L3596.36 183.736L3595.21 179.904L3565.73 188.704L3566.88 192.536ZM3664.48 202.06H3666.48V201.307L3665.98 200.741L3664.48 202.06ZM3664.48 285H3662.48V287H3664.48V285ZM3693.08 285V287H3695.08V285H3693.08ZM3693.08 202.06L3691.58 200.741L3691.08 201.307V202.06H3693.08ZM3770.3 114.06L3771.8 115.379L3774.72 112.06H3770.3V114.06ZM3737.3 114.06V112.06H3736.4L3735.8 112.741L3737.3 114.06ZM3678.78 180.72L3677.28 182.039L3678.78 183.752L3680.28 182.039L3678.78 180.72ZM3620.26 114.06L3621.76 112.741L3621.17 112.06H3620.26V114.06ZM3587.26 114.06V112.06H3582.85L3585.76 115.379L3587.26 114.06ZM3662.48 202.06V285H3666.48V202.06H3662.48ZM3664.48 287H3693.08V283H3664.48V287ZM3695.08 285V202.06H3691.08V285H3695.08ZM3694.58 203.379L3771.8 115.379L3768.8 112.741L3691.58 200.741L3694.58 203.379ZM3770.3 112.06H3737.3V116.06H3770.3V112.06ZM3735.8 112.741L3677.28 179.401L3680.28 182.039L3738.8 115.379L3735.8 112.741ZM3680.28 179.401L3621.76 112.741L3618.76 115.379L3677.28 182.039L3680.28 179.401ZM3620.26 112.06H3587.26V116.06H3620.26V112.06ZM3585.76 115.379L3662.98 203.379L3665.98 200.741L3588.76 112.741L3585.76 115.379ZM4049.78 132.76H4047.78V134.76H4049.78V132.76ZM4122.38 132.76H4124.38V130.76H4122.38V132.76ZM4122.38 285H4120.38V287H4122.38V285ZM4150.32 285V287H4152.32V285H4150.32ZM4150.32 132.76V130.76H4148.32V132.76H4150.32ZM4222.92 132.76V134.76H4224.92V132.76H4222.92ZM4222.92 114.06H4224.92V112.06H4222.92V114.06ZM4049.78 114.06V112.06H4047.78V114.06H4049.78ZM4049.78 134.76H4122.38V130.76H4049.78V134.76ZM4120.38 132.76V285H4124.38V132.76H4120.38ZM4122.38 287H4150.32V283H4122.38V287ZM4152.32 285V132.76H4148.32V285H4152.32ZM4150.32 134.76H4222.92V130.76H4150.32V134.76ZM4224.92 132.76V114.06H4220.92V132.76H4224.92ZM4222.92 112.06H4049.78V116.06H4222.92V112.06ZM4047.78 114.06V132.76H4051.78V114.06H4047.78ZM4376.94 285H4374.94V287H4376.94V285ZM4405.54 285V287H4407.54V285H4405.54ZM4405.54 114.06H4407.54V112.06H4405.54V114.06ZM4376.94 114.06V112.06H4374.94V114.06H4376.94ZM4376.94 189.96V191.96H4378.94V189.96H4376.94ZM4269.14 189.96H4267.14V191.96H4269.14V189.96ZM4269.14 114.06H4271.14V112.06H4269.14V114.06ZM4240.54 114.06V112.06H4238.54V114.06H4240.54ZM4240.54 285H4238.54V287H4240.54V285ZM4269.14 285V287H4271.14V285H4269.14ZM4269.14 208.66V206.66H4267.14V208.66H4269.14ZM4376.94 208.66H4378.94V206.66H4376.94V208.66ZM4376.94 287H4405.54V283H4376.94V287ZM4407.54 285V114.06H4403.54V285H4407.54ZM4405.54 112.06H4376.94V116.06H4405.54V112.06ZM4374.94 114.06V189.96H4378.94V114.06H4374.94ZM4376.94 187.96H4269.14V191.96H4376.94V187.96ZM4271.14 189.96V114.06H4267.14V189.96H4271.14ZM4269.14 112.06H4240.54V116.06H4269.14V112.06ZM4238.54 114.06V285H4242.54V114.06H4238.54ZM4240.54 287H4269.14V283H4240.54V287ZM4271.14 285V208.66H4267.14V285H4271.14ZM4269.14 210.66H4376.94V206.66H4269.14V210.66ZM4374.94 208.66V285H4378.94V208.66H4374.94ZM4442.87 285H4440.87V287H4442.87V285ZM4578.17 285V287H4580.17V285H4578.17ZM4578.17 266.3H4580.17V264.3H4578.17V266.3ZM4471.47 266.3H4469.47V268.3H4471.47V266.3ZM4471.47 208.66V206.66H4469.47V208.66H4471.47ZM4565.63 208.66V210.66H4567.63V208.66H4565.63ZM4565.63 189.96H4567.63V187.96H4565.63V189.96ZM4471.47 189.96H4469.47V191.96H4471.47V189.96ZM4471.47 132.76V130.76H4469.47V132.76H4471.47ZM4571.79 132.76V134.76H4573.79V132.76H4571.79ZM4571.79 114.06H4573.79V112.06H4571.79V114.06ZM4442.87 114.06V112.06H4440.87V114.06H4442.87ZM4442.87 287H4578.17V283H4442.87V287ZM4580.17 285V266.3H4576.17V285H4580.17ZM4578.17 264.3H4471.47V268.3H4578.17V264.3ZM4473.47 266.3V208.66H4469.47V266.3H4473.47ZM4471.47 210.66H4565.63V206.66H4471.47V210.66ZM4567.63 208.66V189.96H4563.63V208.66H4567.63ZM4565.63 187.96H4471.47V191.96H4565.63V187.96ZM4473.47 189.96V132.76H4469.47V189.96H4473.47ZM4471.47 134.76H4571.79V130.76H4471.47V134.76ZM4573.79 132.76V114.06H4569.79V132.76H4573.79ZM4571.79 112.06H4442.87V116.06H4571.79V112.06ZM4440.87 114.06V285H4444.87V114.06H4440.87ZM4799.54 199.64C4799.54 173.367 4789.53 150.652 4771.71 134.522C4753.9 118.404 4728.43 108.98 4697.66 108.98V112.98C4727.61 112.98 4752.07 122.146 4769.03 137.488C4785.96 152.818 4795.54 174.433 4795.54 199.64H4799.54ZM4697.66 108.98C4666.89 108.98 4641.47 118.404 4623.71 134.524C4605.95 150.656 4596 173.371 4596 199.64H4600C4600 174.429 4609.52 152.814 4626.4 137.486C4643.3 122.146 4667.71 112.98 4697.66 112.98V108.98ZM4596 199.64C4596 225.802 4605.95 248.461 4623.71 264.564C4641.47 280.656 4666.89 290.08 4697.66 290.08V286.08C4667.71 286.08 4643.3 276.914 4626.4 261.601C4609.52 246.299 4600 224.738 4600 199.64H4596ZM4697.66 290.08C4728.43 290.08 4753.9 280.656 4771.71 264.567C4789.53 248.465 4799.54 225.805 4799.54 199.64H4795.54C4795.54 224.735 4785.97 246.295 4769.03 261.598C4752.08 276.914 4727.61 286.08 4697.66 286.08V290.08ZM4765.4 199.64C4765.4 236.113 4738.18 264.3 4697.66 264.3V268.3C4740.3 268.3 4769.4 238.407 4769.4 199.64H4765.4ZM4697.66 264.3C4657.36 264.3 4630.14 236.117 4630.14 199.64H4626.14C4626.14 238.403 4655.23 268.3 4697.66 268.3V264.3ZM4630.14 199.64C4630.14 162.939 4657.37 134.76 4697.66 134.76V130.76C4655.23 130.76 4626.14 160.661 4626.14 199.64H4630.14ZM4697.66 134.76C4738.17 134.76 4765.4 162.943 4765.4 199.64H4769.4C4769.4 160.657 4740.3 130.76 4697.66 130.76V134.76ZM4828.41 114.06V112.06H4826.41V114.06H4828.41ZM4828.41 285H4826.41V287H4828.41V285ZM4857.01 285V287H4859.01V285H4857.01ZM4857.01 206.68V204.68H4855.01V206.68H4857.01ZM4937.97 233.08L4939.92 232.618L4939.92 232.616L4937.97 233.08ZM4952.49 285L4950.89 286.2L4951.49 287H4952.49V285ZM4982.19 285V287H4986.19L4983.79 283.8L4982.19 285ZM4965.25 228.24L4963.32 228.735L4963.32 228.743L4965.25 228.24ZM4926.09 198.98V196.98L4925.85 200.965L4926.09 198.98ZM4857.01 187.98H4855.01V189.98H4857.01V187.98ZM4857.01 132.76V130.76H4855.01V132.76H4857.01ZM4826.41 114.06V285H4830.41V114.06H4826.41ZM4828.41 287H4857.01V283H4828.41V287ZM4859.01 285V206.68H4855.01V285H4859.01ZM4857.01 208.68H4885.61V204.68H4857.01V208.68ZM4885.61 208.68C4903.73 208.68 4915.23 210.454 4922.74 214.391C4930.05 218.22 4933.8 224.224 4936.03 233.544L4939.92 232.616C4937.52 222.576 4933.25 215.38 4924.6 210.849C4916.16 206.426 4903.8 204.68 4885.61 204.68V208.68ZM4936.03 233.542C4940.64 252.99 4943.46 264.915 4945.53 272.519C4947.59 280.063 4948.99 283.658 4950.89 286.2L4954.09 283.8C4952.7 281.942 4951.46 279.047 4949.39 271.466C4947.34 263.945 4944.54 252.11 4939.92 232.618L4936.03 233.542ZM4952.49 287H4982.19V283H4952.49V287ZM4983.79 283.8C4982.38 281.919 4981.14 279.27 4978.78 271.235C4976.42 263.244 4973.02 250.195 4967.19 227.737L4963.32 228.743C4969.14 251.165 4972.56 264.296 4974.94 272.365C4977.3 280.39 4978.7 283.681 4980.59 286.2L4983.79 283.8ZM4967.19 227.745C4961.82 206.729 4942.68 199.01 4926.34 196.995L4925.85 200.965C4941.63 202.91 4958.57 210.151 4963.32 228.735L4967.19 227.745ZM4926.09 200.98C4941.18 200.98 4954.56 197.8 4964.22 191.079C4973.98 184.295 4979.79 173.999 4979.79 160.26H4975.79C4975.79 172.701 4970.61 181.765 4961.94 187.796C4953.18 193.89 4940.7 196.98 4926.09 196.98V200.98ZM4979.79 160.26C4979.79 143.913 4973.5 131.672 4960.24 123.651C4947.17 115.746 4927.52 112.06 4901.01 112.06V116.06C4927.3 116.06 4946.05 119.744 4958.17 127.074C4970.1 134.288 4975.79 145.147 4975.79 160.26H4979.79ZM4901.01 112.06H4828.41V116.06H4901.01V112.06ZM4859.01 187.98V132.76H4855.01V187.98H4859.01ZM4857.01 134.76H4901.01V130.76H4857.01V134.76ZM4901.01 134.76C4914.15 134.76 4925.42 136.142 4933.35 140.054C4937.27 141.99 4940.32 144.519 4942.39 147.76C4944.47 150.997 4945.65 155.077 4945.65 160.26H4949.65C4949.65 154.443 4948.31 149.586 4945.76 145.604C4943.22 141.626 4939.55 138.655 4935.12 136.466C4926.33 132.128 4914.27 130.76 4901.01 130.76V134.76ZM4945.65 160.26C4945.65 165.443 4944.47 169.539 4942.39 172.799C4940.31 176.063 4937.26 178.618 4933.34 180.581C4925.41 184.544 4914.15 185.98 4901.01 185.98V189.98C4914.28 189.98 4926.33 188.556 4935.13 184.159C4939.56 181.942 4943.22 178.942 4945.77 174.946C4948.31 170.946 4949.65 166.077 4949.65 160.26H4945.65ZM4901.01 185.98H4857.01V189.98H4901.01V185.98ZM5012.91 114.06V112.06H5010.91V114.06H5012.91ZM5012.91 285H5010.91V287H5012.91V285ZM5041.51 285V287H5043.51V285H5041.51ZM5041.51 114.06H5043.51V112.06H5041.51V114.06ZM5010.91 114.06V285H5014.91V114.06H5010.91ZM5012.91 287H5041.51V283H5012.91V287ZM5043.51 285V114.06H5039.51V285H5043.51ZM5041.51 112.06H5012.91V116.06H5041.51V112.06ZM5078.82 285H5076.82V287H5078.82V285ZM5214.12 285V287H5216.12V285H5214.12ZM5214.12 266.3H5216.12V264.3H5214.12V266.3ZM5107.42 266.3H5105.42V268.3H5107.42V266.3ZM5107.42 208.66V206.66H5105.42V208.66H5107.42ZM5201.58 208.66V210.66H5203.58V208.66H5201.58ZM5201.58 189.96H5203.58V187.96H5201.58V189.96ZM5107.42 189.96H5105.42V191.96H5107.42V189.96ZM5107.42 132.76V130.76H5105.42V132.76H5107.42ZM5207.74 132.76V134.76H5209.74V132.76H5207.74ZM5207.74 114.06H5209.74V112.06H5207.74V114.06ZM5078.82 114.06V112.06H5076.82V114.06H5078.82ZM5078.82 287H5214.12V283H5078.82V287ZM5216.12 285V266.3H5212.12V285H5216.12ZM5214.12 264.3H5107.42V268.3H5214.12V264.3ZM5109.42 266.3V208.66H5105.42V266.3H5109.42ZM5107.42 210.66H5201.58V206.66H5107.42V210.66ZM5203.58 208.66V189.96H5199.58V208.66H5203.58ZM5201.58 187.96H5107.42V191.96H5201.58V187.96ZM5109.42 189.96V132.76H5105.42V189.96H5109.42ZM5107.42 134.76H5207.74V130.76H5107.42V134.76ZM5209.74 132.76V114.06H5205.74V132.76H5209.74ZM5207.74 112.06H5078.82V116.06H5207.74V112.06ZM5076.82 114.06V285H5080.82V114.06H5076.82ZM5297.3 180.28L5297.74 178.328L5297.74 178.327L5297.3 180.28ZM5353.4 169.94L5351.41 169.775L5351.18 172.609L5353.92 171.872L5353.4 169.94ZM5382.88 162.02L5383.4 163.952L5384.94 163.539L5384.88 161.951L5382.88 162.02ZM5281.02 203.6L5280.57 205.548L5280.57 205.548L5281.02 203.6ZM5322.6 213.28L5323.06 211.334L5323.06 211.332L5322.6 213.28ZM5259.02 218.56L5261.01 218.78L5261.34 215.803L5258.46 216.64L5259.02 218.56ZM5229.54 227.14L5228.98 225.22L5227.47 225.66L5227.55 227.235L5229.54 227.14ZM5340.86 189.96L5341.3 188.009L5341.3 188.008L5340.86 189.96ZM5297.74 178.327C5288.32 176.246 5281.11 173.836 5276.28 170.495C5271.59 167.252 5269.16 163.163 5269.16 157.4H5265.16C5265.16 164.617 5268.35 169.878 5274 173.785C5279.51 177.594 5287.37 180.134 5296.87 182.233L5297.74 178.327ZM5269.16 157.4C5269.16 150.912 5272.42 145.337 5278.52 141.303C5284.68 137.237 5293.72 134.76 5305 134.76V130.76C5293.19 130.76 5283.31 133.343 5276.32 137.967C5269.27 142.623 5265.16 149.368 5265.16 157.4H5269.16ZM5305 134.76C5330.2 134.76 5341.57 143.809 5346.8 152.391C5349.46 156.753 5350.61 161.128 5351.1 164.423C5351.35 166.068 5351.42 167.432 5351.44 168.375C5351.44 168.845 5351.44 169.209 5351.43 169.449C5351.42 169.569 5351.42 169.657 5351.41 169.713C5351.41 169.74 5351.41 169.759 5351.41 169.77C5351.41 169.775 5351.41 169.778 5351.41 169.779C5351.41 169.779 5351.41 169.779 5351.41 169.779C5351.41 169.778 5351.41 169.777 5351.41 169.777C5351.41 169.776 5351.41 169.775 5353.4 169.94C5355.4 170.105 5355.4 170.104 5355.4 170.102C5355.4 170.101 5355.4 170.1 5355.4 170.098C5355.4 170.095 5355.4 170.092 5355.4 170.088C5355.4 170.079 5355.4 170.069 5355.4 170.056C5355.4 170.031 5355.4 169.997 5355.41 169.954C5355.41 169.869 5355.42 169.748 5355.42 169.596C5355.44 169.291 5355.44 168.856 5355.44 168.31C5355.42 167.219 5355.33 165.679 5355.06 163.838C5354.52 160.162 5353.22 155.242 5350.22 150.309C5344.12 140.301 5331.29 130.76 5305 130.76V134.76ZM5353.92 171.872L5383.4 163.952L5382.36 160.088L5352.88 168.008L5353.92 171.872ZM5382.88 162.02C5384.88 161.951 5384.88 161.949 5384.88 161.948C5384.88 161.947 5384.88 161.945 5384.88 161.943C5384.88 161.94 5384.88 161.935 5384.88 161.93C5384.88 161.92 5384.88 161.907 5384.88 161.891C5384.88 161.858 5384.88 161.814 5384.87 161.758C5384.87 161.645 5384.86 161.485 5384.84 161.281C5384.8 160.873 5384.75 160.288 5384.64 159.551C5384.44 158.079 5384.06 155.997 5383.37 153.508C5381.98 148.533 5379.32 141.907 5374.24 135.283C5364.01 121.945 5344.23 108.98 5306.32 108.98V112.98C5343.22 112.98 5361.72 125.535 5371.07 137.717C5375.77 143.853 5378.23 149.987 5379.51 154.582C5380.15 156.878 5380.5 158.784 5380.68 160.103C5380.77 160.762 5380.82 161.273 5380.85 161.613C5380.87 161.783 5380.88 161.909 5380.88 161.99C5380.88 162.03 5380.88 162.058 5380.88 162.075C5380.88 162.083 5380.88 162.089 5380.88 162.091C5380.88 162.092 5380.88 162.093 5380.88 162.092C5380.88 162.092 5380.88 162.091 5380.88 162.091C5380.88 162.09 5380.88 162.089 5382.88 162.02ZM5306.32 108.98C5282.04 108.98 5264.33 114.884 5252.65 124.301C5240.94 133.745 5235.46 146.594 5235.46 160.04H5239.46C5239.46 147.746 5244.44 136.065 5255.16 127.414C5265.93 118.736 5282.65 112.98 5306.32 112.98V108.98ZM5235.46 160.04C5235.46 170.774 5239.23 180.462 5246.83 188.325C5254.41 196.158 5265.68 202.078 5280.57 205.548L5281.48 201.652C5267.1 198.302 5256.6 192.672 5249.71 185.545C5242.85 178.448 5239.46 169.766 5239.46 160.04H5235.46ZM5280.57 205.548L5322.15 215.228L5323.06 211.332L5281.48 201.652L5280.57 205.548ZM5322.14 215.226C5334.74 218.209 5344.1 220.845 5350.32 224.665C5353.39 226.546 5355.61 228.665 5357.07 231.179C5358.53 233.686 5359.32 236.721 5359.32 240.56H5363.32C5363.32 236.149 5362.41 232.391 5360.53 229.165C5358.65 225.945 5355.89 223.389 5352.41 221.255C5345.55 217.045 5335.55 214.291 5323.06 211.334L5322.14 215.226ZM5359.32 240.56C5359.32 246.724 5355.73 252.59 5348.56 257.007C5341.37 261.435 5330.71 264.3 5317.1 264.3V268.3C5331.22 268.3 5342.67 265.335 5350.66 260.413C5358.67 255.48 5363.32 248.476 5363.32 240.56H5359.32ZM5317.1 264.3C5286.01 264.3 5272.24 252.646 5266.05 241.462C5262.92 235.787 5261.65 230.092 5261.18 225.8C5260.94 223.657 5260.9 221.877 5260.92 220.643C5260.93 220.026 5260.95 219.547 5260.98 219.229C5260.99 219.069 5261 218.95 5261 218.875C5261.01 218.837 5261.01 218.81 5261.01 218.794C5261.01 218.786 5261.01 218.781 5261.01 218.778C5261.01 218.777 5261.01 218.777 5261.01 218.777C5261.01 218.777 5261.01 218.778 5261.01 218.778C5261.01 218.779 5261.01 218.78 5259.02 218.56C5257.04 218.34 5257.04 218.342 5257.04 218.343C5257.04 218.344 5257.04 218.346 5257.03 218.347C5257.03 218.351 5257.03 218.354 5257.03 218.359C5257.03 218.368 5257.03 218.38 5257.03 218.395C5257.03 218.425 5257.02 218.467 5257.02 218.519C5257.01 218.624 5257 218.773 5256.98 218.964C5256.96 219.345 5256.93 219.891 5256.92 220.58C5256.9 221.956 5256.94 223.906 5257.2 226.239C5257.72 230.898 5259.09 237.138 5262.55 243.398C5269.57 256.084 5284.84 268.3 5317.1 268.3V264.3ZM5258.46 216.64L5228.98 225.22L5230.1 229.06L5259.58 220.48L5258.46 216.64ZM5227.55 227.235C5228.12 239.284 5233.72 255.028 5247.72 267.753C5261.75 280.501 5284.04 290.08 5317.76 290.08V286.08C5284.82 286.08 5263.56 276.739 5250.41 264.792C5237.24 252.822 5232.07 238.096 5231.54 227.045L5227.55 227.235ZM5317.76 290.08C5338.67 290.08 5357.4 285.86 5370.96 277.402C5384.61 268.895 5393.02 256.085 5393.02 239.24H5389.02C5389.02 254.515 5381.49 266.125 5368.85 274.008C5356.12 281.94 5338.21 286.08 5317.76 286.08V290.08ZM5393.02 239.24C5393.02 227.713 5389.64 216.969 5381.35 208.041C5373.09 199.152 5360.13 192.243 5341.3 188.009L5340.42 191.911C5358.77 196.037 5370.89 202.658 5378.42 210.764C5385.91 218.831 5389.02 228.547 5389.02 239.24H5393.02ZM5341.3 188.008L5297.74 178.328L5296.87 182.232L5340.43 191.912L5341.3 188.008Z" fill="#151515"/>
<path d="M137.616 90.4942C139.41 81.9631 151.59 81.9631 153.384 90.4942C154.93 97.8468 164.81 99.2673 168.364 92.6481C172.489 84.9679 184.175 88.3993 183.493 97.0903C182.905 104.581 191.985 108.727 197.26 103.378C203.382 97.1705 213.628 103.755 210.524 111.902C207.85 118.923 215.394 125.46 221.963 121.813C229.585 117.582 237.561 126.787 232.288 133.729C227.744 139.713 233.14 148.11 240.471 146.462C248.976 144.549 254.036 155.628 247.02 160.804C240.975 165.265 243.787 174.842 251.284 175.326C259.984 175.887 261.717 187.943 253.528 190.933C246.471 193.509 246.471 203.491 253.528 206.067C261.717 209.057 259.984 221.113 251.284 221.674C243.787 222.158 240.975 231.735 247.02 236.196C254.036 241.372 248.976 252.451 240.471 250.538C233.14 248.89 227.744 257.287 232.288 263.271C237.561 270.213 229.585 279.418 221.963 275.187C215.394 271.54 207.85 278.077 210.524 285.098C213.628 293.245 203.382 299.83 197.26 293.622C191.985 288.273 182.905 292.419 183.493 299.91C184.175 308.601 172.489 312.032 168.364 304.352C164.81 297.733 154.93 299.153 153.384 306.506C151.59 315.037 139.41 315.037 137.616 306.506C136.07 299.153 126.19 297.733 122.636 304.352C118.511 312.032 106.825 308.601 107.507 299.91C108.095 292.419 99.0154 288.273 93.7398 293.622C87.6185 299.83 77.3723 293.245 80.4756 285.098C83.1501 278.077 75.6064 271.54 69.0373 275.187C61.4152 279.418 53.4393 270.213 58.712 263.271C63.2563 257.287 57.8598 248.89 50.5294 250.538C42.0241 252.451 36.9645 241.372 43.9795 236.196C50.0254 231.735 47.2133 222.158 39.7155 221.674C31.0159 221.113 29.2826 209.057 37.4716 206.067C44.5293 203.491 44.5293 193.509 37.4716 190.933C29.2826 187.943 31.0159 175.887 39.7155 175.326C47.2133 174.842 50.0254 165.265 43.9795 160.804C36.9645 155.628 42.0241 144.549 50.5294 146.462C57.8598 148.11 63.2563 139.713 58.712 133.729C53.4393 126.787 61.4152 117.582 69.0373 121.813C75.6064 125.46 83.1501 118.923 80.4755 111.902C77.3723 103.755 87.6185 97.1705 93.7398 103.378C99.0154 108.727 108.095 104.581 107.507 97.0903C106.825 88.3993 118.511 84.9679 122.636 92.6481C126.19 99.2673 136.07 97.8468 137.616 90.4942Z" fill="#1D91FF"/>
<rect x="896" y="150.366" width="196.078" height="196.078" transform="rotate(-24.839 896 150.366)" fill="#F980E6"/>
<path d="M1785.51 57.21L1809.41 121.814L1842.2 61.2417L1839.55 130.071L1893.03 86.6602L1864.24 149.237L1930.27 129.596L1879.72 176.393L1948.23 183.512L1883.63 207.405L1944.2 240.201L1875.37 237.552L1918.78 291.031L1856.21 262.244L1875.85 328.265L1829.05 277.723L1821.93 346.234L1798.04 281.631L1765.24 342.203L1767.89 273.373L1714.41 316.784L1743.2 254.207L1677.18 273.848L1727.72 227.051L1659.21 219.932L1723.81 196.039L1663.24 163.244L1732.07 165.892L1688.66 112.413L1751.24 141.2L1731.6 75.179L1778.39 125.722L1785.51 57.21Z" fill="#DAFC53"/>
<ellipse cx="3936.63" cy="198.899" rx="148.411" ry="95.2191" transform="rotate(44.4436 3936.63 198.899)" fill="#2BFDAF"/>
<path d="M5608.04 63.3045L5628.87 317.066L5398.69 208.224L5608.04 63.3045Z" fill="#FD3C3E"/>
</svg>
