<?xml version="1.0" encoding="utf-8"?>
<!-- Generator: Adobe Illustrator 24.2.1, SVG Export Plug-In . SVG Version: 6.00 Build 0)  -->
<svg style="transform:scale(0.9)" version="1.1" id="Livello_1" xmlns="http://www.w3.org/2000/svg" xmlns:xlink="http://www.w3.org/1999/xlink" x="0px" y="0px"
	 viewBox="0 0 1880 1127" style="enable-background:new 0 0 1885 1127;" xml:space="preserve">
<style type="text/css">
	.st0{fill:#BDBDBD;stroke:#151515;stroke-width:3;}
	.st1{fill:#151515;}
	.st2{fill:#BDBDBD;stroke:#151515;stroke-width:3.0001;stroke-miterlimit:4.0001;}
</style>
<g id="selected">
	<g data-color="#DAFC53" id="Research">
		<path class="st0" d="M997.1,389.4c-19.2,38.9-66.1,59.9-127,62.1c-60.9,2.1-135.4-14.7-209.1-51s-132.4-85.1-167.9-134.7
			s-47.4-99.6-28.2-138.5c19.2-38.9,66.1-59.9,127-62.1c60.9-2.1,135.4,14.7,209.1,51s132.4,85.1,167.9,134.7
			S1016.3,350.5,997.1,389.4z"/>
		<path class="st1" d="M530.3,233.4V280h7.8v-21.4h7.8c9.9,0,13,1.9,14.3,7.2c2.5,10.6,3.1,13,4,14.2h8.1c-0.9-1.2-1.4-3.2-4.6-15.5
			c-1.4-5.4-6.3-7.4-10.7-8c8.1,0,14.1-3.4,14.1-10.6c0-8.6-6.5-12.6-20.9-12.6L530.3,233.4L530.3,233.4z M538.1,253.5v-15.1h12
			c7.2,0,12.7,1.5,12.7,7.5s-5.5,7.6-12.7,7.6H538.1z M581.2,280h36.9v-5.1H589v-15.7h25.7v-5.1H589v-15.6h27.4v-5.1h-35.2V280z
			 M641.4,251.4c-5.2-1.1-8.2-2.7-8.2-6.2c0-4,4-6.7,10.3-6.7c14,0,13.2,10.1,13.2,10.1l8-2.2c0,0-0.5-13.9-20.9-13.9
			c-13.1,0-18.8,6.4-18.8,13.4c0,5.6,3.9,10,11.9,11.9l11.3,2.6c6.8,1.6,10.6,2.9,10.6,7.4c0,3.8-4.5,7-12.1,7
			c-17.3,0-15.8-13-15.8-13l-8,2.3c0.3,6.3,5.9,16.6,24.1,16.6c11.3,0,20-4.6,20-13.3c0-6.1-3.5-11.2-13.7-13.4L641.4,251.4z
			 M674.8,280h36.9v-5.1h-29.1v-15.7h25.7v-5.1h-25.7v-15.6H710v-5.1h-35.2L674.8,280L674.8,280z M763,280h8.3l-21.6-46.6h-12.8
			L715.3,280h8.3l6.7-14.8h26.1L763,280z M742.3,238.5h2.1l9.7,21.6h-21.5L742.3,238.5z M777.9,233.4V280h7.8v-21.4h7.8
			c9.9,0,13,1.9,14.3,7.2c2.5,10.6,3.1,13,4,14.2h8.1c-0.9-1.2-1.4-3.2-4.6-15.5c-1.4-5.4-6.3-7.4-10.7-8c8.1,0,14.1-3.4,14.1-10.6
			c0-8.6-6.5-12.6-20.9-12.6L777.9,233.4L777.9,233.4z M785.7,253.5v-15.1h12c7.2,0,12.7,1.5,12.7,7.5s-5.5,7.6-12.7,7.6H785.7z
			 M876.4,251.9c0,0-1.9-19.3-24.6-19.3c-16.6,0-26,10.1-26,24.2c0,14,10,24.1,26.6,24.1c23.4,0,25.3-18.4,25.3-18.4l-8-2.3
			c0,0-0.4,14.8-17.2,14.8c-11.3,0-18.4-7.9-18.4-18.2c0-10.3,6.5-18.2,17.8-18.2c16,0,16.6,15.8,16.6,15.8L876.4,251.9z M923.9,280
			h7.8v-46.6h-7.8v20.7h-29.4v-20.7h-7.8V280h7.8v-20.8h29.4V280z"/>
	</g>
	<g data-color="#2BFDAF" id="Name">
		<rect x="1181.6" y="249" transform="matrix(0.9075 -0.4201 0.4201 0.9075 -93.8645 673.7122)" class="st2" width="602" height="602"/>
	</g>
	<path class="st1" d="M1417.3,532.4h-7.8v38.5l-27.7-38.5h-9.6V579h7.8v-38.5l27.7,38.5h9.6V532.4z M1471.6,579h8.3l-21.6-46.6
		h-12.8l-21.6,46.6h8.3l6.7-14.8h26.1L1471.6,579z M1450.9,537.5h2.1l9.7,21.6h-21.5L1450.9,537.5z M1517.8,573.9l-19.3-41.5h-12
		V579h7.8v-38.5l18.4,38.5h10.2l18.4-38.5V579h7.8v-46.6h-12L1517.8,573.9z M1559.8,579h36.9v-5.1h-29.1v-15.7h25.7v-5.1h-25.7
		v-15.6h27.4v-5.1h-35.2L1559.8,579L1559.8,579z"/>
	<g data-color="#5EECFD" id="Output">
		<path class="st0" d="M940.1,702.8l1.1,3.1l1.6-2.9L997,602.8l-4.4,113.8l-0.1,3.3l2.6-2.1l88.4-71.8L1036,749.6l-1.4,3l3.2-0.9
			l109.2-32.5l-83.6,77.4l-2.4,2.2l3.3,0.3l113.3,11.8l-106.8,39.5l-3.1,1.1l2.9,1.6l100.2,54.2l-113.8-4.4l-3.3-0.1l2.1,2.6
			l71.8,88.4l-103.5-47.6l-3-1.4l1,3.2l32.5,109.2l-77.4-83.6l-2.3-2.4l-0.3,3.3l-11.8,113.3L923.1,981l-1.1-3.1l-1.6,2.9
			L866.1,1081l4.4-113.8l0.1-3.3L868,966l-88.4,71.8l47.6-103.5l1.4-3l-3.2,0.9l-109.2,32.5l83.6-77.4l2.4-2.3l-3.3-0.3l-113.3-11.8
			l106.8-39.5l3.1-1.1l-2.9-1.6l-100.2-54.2l113.8,4.4l3.3,0.1l-2.1-2.6L735.6,690l103.5,47.6l3,1.4l-0.9-3.2l-32.5-109.2l77.4,83.6
			l2.2,2.4l0.3-3.3l12-113.3L940.1,702.8z"/>
		<path class="st1" d="M837.8,846.7c0-14-10.7-24.2-27.2-24.2s-27.2,10.1-27.2,24.2c0,14,10.6,24.1,27.2,24.1
			S837.8,860.7,837.8,846.7z M829.6,846.7c0,10.3-7.7,18.2-19,18.2s-19-7.9-19-18.2s7.7-18.2,19-18.2
			C821.9,828.5,829.6,836.4,829.6,846.7z M883.2,823.4v27.4c0,12.1-5.5,14.2-14.3,14.2s-14.3-2-14.3-14.2v-27.4h-7.8v27.4
			c0,13.4,7.4,20.1,22.1,20.1c14.6,0,22.1-6.7,22.1-20.1v-27.4H883.2z M896.4,828.5h19.8V870h7.6v-41.5h19.8v-5.1h-47.2L896.4,828.5
			L896.4,828.5z M949,823.4V870h7.8v-21.4h12c14.4,0,20.9-4.1,20.9-12.7c0-8.6-6.5-12.6-20.9-12.6H949V823.4z M956.8,843.5v-15.1h12
			c7.2,0,12.7,1.5,12.7,7.5s-5.5,7.6-12.7,7.6H956.8z M1032.8,823.4v27.4c0,12.1-5.5,14.2-14.3,14.2s-14.3-2-14.3-14.2v-27.4h-7.8
			v27.4c0,13.4,7.4,20.1,22.1,20.1c14.6,0,22.1-6.7,22.1-20.1v-27.4H1032.8z M1045.9,828.5h19.8V870h7.6v-41.5h19.8v-5.1h-47.2
			L1045.9,828.5L1045.9,828.5z"/>
	</g>
	<g data-color="#F980E6" id="Concept">
		<path class="st0" d="M315.6,426.9c3.8-17.9,29.3-17.9,33.1,0c3.8,18.2,28.2,21.7,37,5.3c8.6-16.1,33.2-8.9,31.7,9.3
			c-1.5,18.5,21,28.7,34,15.5c12.8-13,34.3,0.8,27.8,17.9c-6.6,17.3,12,33.5,28.2,24.5c16-8.9,32.7,10.4,21.6,25
			c-11.2,14.8,2.1,35.5,20.2,31.4c17.8-4,28.4,19.2,13.7,30.1c-14.9,11-8,34.7,10.5,35.9c18.2,1.2,21.9,26.5,4.7,32.7
			c-17.4,6.4-17.4,31,0,37.4c17.2,6.3,13.5,31.5-4.7,32.7c-18.5,1.2-25.5,24.8-10.5,35.9c14.7,10.9,4.1,34.1-13.7,30.1
			c-18.1-4.1-31.4,16.7-20.2,31.4c11.1,14.6-5.7,33.9-21.6,25c-16.2-9-34.8,7.1-28.2,24.5c6.5,17.1-15,30.9-27.8,17.9
			c-13-13.2-35.4-3-34,15.5c1.4,18.2-23.1,25.4-31.7,9.3c-8.8-16.3-33.2-12.8-37,5.3c-3.8,17.9-29.3,17.9-33.1,0
			c-3.8-18.2-28.2-21.7-37-5.3c-8.6,16.1-33.2,8.9-31.7-9.3c1.5-18.5-21-28.7-34-15.5c-12.8,13-34.3-0.8-27.8-17.9
			c6.6-17.3-12-33.5-28.2-24.5c-16,8.9-32.7-10.4-21.6-25c11.2-14.8-2.1-35.5-20.2-31.4c-17.8,4-28.4-19.2-13.7-30.1
			c14.9-11,8-34.7-10.5-35.9c-18.2-1.2-21.9-26.5-4.7-32.7c17.4-6.4,17.4-31,0-37.4c-17.2-6.3-13.5-31.5,4.7-32.7
			c18.5-1.2,25.5-24.8,10.5-35.9c-14.7-10.9-4.1-34.1,13.7-30.1c18.1,4.1,31.4-16.7,20.2-31.4c-11.1-14.6,5.7-33.9,21.6-25
			c16.2,9,34.8-7.1,28.2-24.5c-6.5-17.1,15-30.9,27.8-17.9c13,13.2,35.4,3,34-15.5c-1.4-18.2,23.1-25.4,31.7-9.3
			C287.4,448.6,311.8,445.1,315.6,426.9z"/>
		<path class="st1" d="M204.2,672.9c0,0-1.9-19.3-24.6-19.3c-16.6,0-26,10.1-26,24.2c0,14,10,24.1,26.6,24.1
			c23.4,0,25.3-18.4,25.3-18.4l-8-2.3c0,0-0.4,14.8-17.2,14.8c-11.3,0-18.4-7.9-18.4-18.2s6.5-18.2,17.8-18.2
			c16,0,16.6,15.8,16.6,15.8L204.2,672.9z M267.1,677.7c0-14-10.7-24.2-27.2-24.2s-27.2,10.1-27.2,24.2c0,14,10.6,24.1,27.2,24.1
			S267.1,691.7,267.1,677.7z M258.9,677.7c0,10.3-7.7,18.2-19,18.2s-19-7.9-19-18.2s7.7-18.2,19-18.2S258.9,667.4,258.9,677.7z
			 M321.2,654.4h-7.8v38.5l-27.7-38.5h-9.6V701h7.8v-38.5l27.7,38.5h9.6V654.4z M380.8,672.9c0,0-1.9-19.3-24.6-19.3
			c-16.6,0-26,10.1-26,24.2c0,14,10,24.1,26.6,24.1c23.4,0,25.3-18.4,25.3-18.4l-8-2.3c0,0-0.4,14.8-17.2,14.8
			c-11.3,0-18.4-7.9-18.4-18.2s6.5-18.2,17.8-18.2c16,0,16.6,15.8,16.6,15.8L380.8,672.9z M391.1,701H428v-5.1h-29.1v-15.7h25.7
			v-5.1h-25.7v-15.6h27.4v-5.1h-35.2L391.1,701L391.1,701z M435.8,654.4V701h7.8v-21.4h12c14.4,0,20.9-4.1,20.9-12.7
			c0-8.6-6.5-12.6-20.9-12.6h-19.8V654.4z M443.6,674.5v-15.1h12c7.2,0,12.7,1.5,12.7,7.5s-5.5,7.6-12.7,7.6H443.6z M477.7,659.5
			h19.8V701h7.6v-41.5h19.8v-5.1h-47.2V659.5z"/>
	</g>
</g>
</svg>
