<svg id="Livello_1" data-name="Livello 1" xmlns="http://www.w3.org/2000/svg" viewBox="0 0 206.68 208.67">
  <title>rotella</title>
  <path d="M98.06,6.1a6.42,6.42,0,0,1,12.56,0,8.42,8.42,0,0,0,15.65,2.25,6.42,6.42,0,0,1,12.06,3.54,8.42,8.42,0,0,0,14.38,6.57,6.42,6.42,0,0,1,10.57,6.79A8.41,8.41,0,0,0,175.23,35.6a6.41,6.41,0,0,1,8.22,9.49A8.42,8.42,0,0,0,192,58.4a6.41,6.41,0,0,1,5.22,11.42A8.42,8.42,0,0,0,201.67,85a6.42,6.42,0,0,1,1.79,12.43,8.42,8.42,0,0,0,0,15.81,6.42,6.42,0,0,1-1.79,12.43,8.42,8.42,0,0,0-4.45,15.18c5.59,4.12,1.56,12.94-5.22,11.42a8.42,8.42,0,0,0-8.55,13.3c4.2,5.53-2.15,12.87-8.22,9.5a8.41,8.41,0,0,0-11.95,10.35,6.42,6.42,0,0,1-10.57,6.79,8.42,8.42,0,0,0-14.38,6.57,6.42,6.42,0,0,1-12.06,3.54,8.42,8.42,0,0,0-15.65,2.25,6.42,6.42,0,0,1-12.56,0,8.41,8.41,0,0,0-15.65-2.25,6.42,6.42,0,0,1-12-3.54A8.42,8.42,0,0,0,56,192.21c-4.87,4.95-13-.3-10.56-6.79a8.42,8.42,0,0,0-11.95-10.35,6.42,6.42,0,0,1-8.23-9.5,8.42,8.42,0,0,0-8.55-13.3c-6.77,1.52-10.8-7.3-5.22-11.42A8.42,8.42,0,0,0,7,125.67c-6.93-.44-8.31-10-1.79-12.43a8.42,8.42,0,0,0,0-15.81C-1.3,95.05.08,85.44,7,85a8.42,8.42,0,0,0,4.45-15.18C5.88,65.7,9.91,56.87,16.68,58.4a8.42,8.42,0,0,0,8.55-13.31,6.42,6.42,0,0,1,8.23-9.49A8.42,8.42,0,0,0,45.41,25.25C42.93,18.76,51.1,13.51,56,18.46a8.42,8.42,0,0,0,14.39-6.57,6.42,6.42,0,0,1,12-3.54A8.42,8.42,0,0,0,98.06,6.1Z" transform="translate(-1 -1)" fill="#fff"/>
</svg>
