<svg width="916" height="915" viewBox="0 0 916 915" fill="none" xmlns="http://www.w3.org/2000/svg">
<path d="M438.025 18.1138C441.117 -5.02023 474.805 -5.02023 477.896 18.1138C480.719 39.2307 510.424 41.9043 516.971 21.6307C524.144 -0.579498 557.29 5.43559 556.202 28.7499C555.208 50.0315 583.959 57.966 594.021 39.1873C605.044 18.6148 636.584 30.4517 631.35 53.197C626.572 73.9591 653.444 86.8998 666.697 70.2196C681.217 51.946 710.136 69.2242 700.925 90.6694C692.516 110.245 716.646 127.776 732.665 113.73C750.214 98.3426 775.583 120.507 762.69 139.963C750.922 157.722 771.533 179.28 789.803 168.32C809.818 156.314 830.821 182.651 814.662 199.492C799.912 214.865 816.342 239.757 836.275 232.235C858.112 223.995 874.076 253.66 855.169 267.346C837.911 279.838 849.633 307.263 870.589 303.421C893.546 299.213 903.956 331.252 882.909 341.341C863.698 350.551 870.335 379.628 891.639 379.59C914.979 379.549 919.501 412.931 896.992 419.1C876.445 424.732 877.783 454.527 898.752 458.294C921.724 462.421 920.212 496.074 896.963 498.125C875.741 499.997 871.737 529.552 891.696 537.003C913.562 545.165 906.066 578.008 882.824 575.874C861.609 573.927 852.392 602.292 870.701 613.187C890.758 625.122 877.518 656.099 855.03 649.849C834.504 644.145 820.37 670.409 836.439 684.398C854.043 699.723 835.485 727.837 814.474 717.673C795.296 708.395 776.7 731.714 790.013 748.347C804.597 766.569 781.317 790.918 762.46 777.165C745.246 764.612 722.785 784.235 732.914 802.978C744.011 823.511 716.757 843.312 700.658 826.414C685.962 810.989 660.359 826.286 666.979 846.536C674.23 868.721 643.879 883.337 631.056 863.836C619.351 846.035 591.427 856.514 594.325 877.621C597.499 900.744 565.025 909.706 555.89 888.228C547.552 868.623 518.206 873.949 517.288 895.234C516.282 918.552 482.731 921.572 477.577 898.808C472.874 878.029 443.048 878.029 438.344 898.808C433.191 921.572 399.64 918.552 398.634 895.234C397.716 873.949 368.37 868.623 360.031 888.228C350.896 909.706 318.423 900.744 321.597 877.621C324.494 856.514 296.571 846.035 284.866 863.836C272.043 883.337 241.692 868.721 248.943 846.536C255.563 826.286 229.959 810.989 215.264 826.414C199.165 843.312 171.911 823.511 183.007 802.978C193.136 784.235 170.676 764.612 153.462 777.165C134.604 790.918 111.324 766.569 125.909 748.347C139.222 731.714 120.626 708.395 101.448 717.673C80.4372 727.837 61.879 699.723 79.4827 684.398C95.5516 670.409 81.4183 644.145 60.8915 649.849C38.4039 656.099 25.1639 625.122 45.2211 613.187C63.5295 602.292 54.313 573.927 33.0975 575.874C9.85545 578.008 2.35934 545.165 24.2253 537.003C44.1848 529.552 40.1812 499.997 18.9589 498.125C-4.29053 496.074 -5.80191 462.421 17.1701 458.294C38.1391 454.527 39.4773 424.732 18.9303 419.1C-3.57928 412.931 0.942688 379.549 24.2824 379.59C45.5871 379.628 52.2238 350.551 33.0125 341.341C11.9662 331.252 22.3761 299.213 45.3334 303.421C66.2889 307.263 78.0109 279.838 60.7529 267.346C41.8463 253.66 57.8096 223.995 79.6465 232.235C99.5794 239.757 116.01 214.865 101.26 199.492C85.1007 182.651 106.104 156.314 126.119 168.32C144.389 179.28 165 157.722 153.231 139.963C140.339 120.507 165.708 98.3426 183.257 113.73C199.276 127.776 223.405 110.245 214.997 90.6694C205.786 69.2242 234.705 51.946 249.225 70.2195C262.478 86.8998 289.35 73.9591 284.572 53.197C279.338 30.4517 310.878 18.6148 321.901 39.1873C331.963 57.966 360.714 50.0315 359.72 28.7499C358.632 5.43559 391.777 -0.579498 398.95 21.6307C405.498 41.9043 435.203 39.2307 438.025 18.1138Z" fill="#2D2DFF"/>
</svg>
