<?xml version="1.0" encoding="utf-8"?>
<!-- Generator: Adobe Illustrator 24.2.1, SVG Export Plug-In . SVG Version: 6.00 Build 0)  -->
<svg version="1.1" id="Livello_1" xmlns="http://www.w3.org/2000/svg" xmlns:xlink="http://www.w3.org/1999/xlink" x="0px" y="0px"
	 viewBox="0 0 916 915" style="enable-background:new 0 0 916 915;" xml:space="preserve">
<style type="text/css">
	.st0{fill:#2D2DFF;}
	.st1{enable-background:new    ;}
	.st2{fill:#FFFFFF;}
	.st3{font-family:'SportingGrotesque-Regular';}
	.st4{font-size:48px;}
	.st5{font-family:'MyriadPro-Regular';}
	.st6{font-size:18px;}
	.st7{fill:none;stroke:#F2F2F2;stroke-width:2;}
</style>
<path class="st0" d="M438,18.1c3.1-23.1,36.8-23.1,39.9,0c2.8,21.1,32.5,23.8,39.1,3.5c7.2-22.2,40.3-16.2,39.2,7.1
	C555.2,50,584,58,594,39.2c11-20.6,42.6-8.7,37.3,14c-4.8,20.8,22.1,33.7,35.3,17c14.5-18.3,43.4-1,34.2,20.4
	c-8.4,19.6,15.7,37.1,31.7,23.1c17.5-15.4,42.9,6.8,30,26.2c-11.8,17.8,8.8,39.3,27.1,28.4c20-12,41,14.3,24.9,31.2
	c-14.8,15.4,1.7,40.3,21.6,32.7c21.8-8.2,37.8,21.4,18.9,35.1c-17.3,12.5-5.5,39.9,15.4,36.1c23-4.2,33.4,27.8,12.3,37.9
	c-19.2,9.2-12.6,38.3,8.7,38.2c23.3,0,27.9,33.3,5.4,39.5c-20.5,5.6-19.2,35.4,1.8,39.2c23,4.1,21.5,37.8-1.8,39.8
	c-21.2,1.9-25.2,31.4-5.3,38.9c21.9,8.2,14.4,41-8.9,38.9c-21.2-1.9-30.4,26.4-12.1,37.3c20.1,11.9,6.8,42.9-15.7,36.7
	c-20.5-5.7-34.7,20.6-18.6,34.5c17.6,15.3-1,43.4-22,33.3c-19.2-9.3-37.8,14-24.5,30.7c14.6,18.2-8.7,42.6-27.6,28.8
	c-17.2-12.6-39.7,7.1-29.5,25.8c11.1,20.5-16.2,40.3-32.3,23.4c-14.7-15.4-40.3-0.1-33.7,20.1c7.3,22.2-23.1,36.8-35.9,17.3
	c-11.7-17.8-39.6-7.3-36.7,13.8c3.2,23.1-29.3,32.1-38.4,10.6c-8.3-19.6-37.7-14.3-38.6,7c-1,23.3-34.6,26.3-39.7,3.6
	c-4.7-20.8-34.5-20.8-39.2,0c-5.2,22.8-38.7,19.7-39.7-3.6c-0.9-21.3-30.3-26.6-38.6-7c-9.1,21.5-41.6,12.5-38.4-10.6
	c2.9-21.1-25-31.6-36.7-13.8c-12.8,19.5-43.2,4.9-35.9-17.3c6.6-20.2-19-35.5-33.7-20.1c-16.1,16.9-43.4-2.9-32.3-23.4
	c10.1-18.7-12.3-38.4-29.5-25.8c-18.9,13.8-42.1-10.6-27.6-28.8c13.3-16.6-5.3-40-24.5-30.7c-21,10.2-39.6-17.9-22-33.3
	c16.1-14,1.9-40.3-18.6-34.5c-22.5,6.2-35.7-24.7-15.7-36.7c18.3-10.9,9.1-39.3-12.1-37.3C9.9,578,2.4,545.2,24.2,537
	c20-7.5,16-37-5.3-38.9c-23.2-2.1-24.8-35.7-1.8-39.8c21-3.8,22.3-33.6,1.8-39.2c-22.5-6.2-18-39.6,5.4-39.5
	c21.3,0,27.9-29,8.7-38.2c-21-10.1-10.6-42.1,12.3-37.9c21,3.8,32.7-23.6,15.4-36.1c-18.9-13.7-2.9-43.4,18.9-35.1
	c19.9,7.5,36.4-17.4,21.6-32.7c-16.2-16.8,4.8-43.2,24.9-31.2c18.3,11,38.9-10.6,27.1-28.4c-12.9-19.5,12.5-41.6,30-26.2
	c16,14,40.1-3.5,31.7-23.1c-9.2-21.4,19.7-38.7,34.2-20.4c13.3,16.7,40.1,3.7,35.3-17c-5.2-22.7,26.3-34.6,37.3-14
	c10.3,18.7,39,10.7,38-10.6c-1.1-23.3,32.1-29.3,39.2-7.1C405.5,41.9,435.2,39.2,438,18.1z"/>
<text transform="matrix(1 0 0 1 76.6669 465.1196)" class="st1"><tspan x="0" y="0" class="st2 st3 st4">WANT TO KNOW MORE?</tspan><tspan x="151.1" y="57.6" class="st2 st3 st4">CHOOSE ONE </tspan><tspan x="587.8" y="57.6" class="st2 st5 st4">#</tspan></text>
<text transform="matrix(1 0 0 1 371.7988 793.1118)" class="st2 st3 st6">SCROLL DOWN</text>
<path class="st7" d="M458,706.9v46"/>
<path class="st7" d="M481.4,731.7l-1.5,0.6c-10.2,4.1-18.2,12.4-21.9,22.8l0,0l0,0c-4.5-10.5-12.9-18.8-23.4-23.4l0,0"/>
</svg>
