<svg id="Livello_1" data-name="Livello 1" xmlns="http://www.w3.org/2000/svg" viewBox="0 0 257.46 257.46">
  <title>star</title>
  <path d="M133.37,55.82l.77,2.08L135.19,56l28.16-52L161.08,63,161,65.25l1.72-1.39,45.92-37.28L183.91,80.32l-.92,2,2.12-.63L241.8,64.83,198.4,105l-1.62,1.5,2.19.23,58.84,6.12-55.48,20.51-2.07.77,1.94,1.05,52,28.16-59.1-2.27L192.9,161l1.39,1.72,37.28,45.92-53.73-24.72-2-.92.63,2.12,16.87,56.69-40.19-43.4-1.5-1.62-.23,2.19-6.11,58.84-20.52-55.48-.77-2.07L123,202.2l-28.16,52,2.27-59.1.09-2.21-1.71,1.39L49.52,231.57l24.72-53.73.92-2-2.11.63-56.7,16.87,43.41-40.19,1.62-1.5-2.2-.23L.35,145.3l55.47-20.52L57.9,124,56,123,3.94,94.8,63,97.07l2.21.09-1.39-1.72L26.58,49.52,80.32,74.24l2,.92-.63-2.11L64.83,16.35,105,59.76l1.5,1.62.23-2.2L112.85.35Z" transform="translate(-0.35 -0.35)" fill="#fff"/>
</svg>
