<?xml version="1.0" encoding="utf-8"?>
<!-- Generator: Adobe Illustrator 24.2.1, SVG Export Plug-In . SVG Version: 6.00 Build 0)  -->
<svg version="1.1" id="Livello_1" xmlns="http://www.w3.org/2000/svg" xmlns:xlink="http://www.w3.org/1999/xlink" x="0px" y="0px"
	 viewBox="0 0 124.5 124.5" style="enable-background:new 0 0 124.5 124.5;" xml:space="preserve">
<style type="text/css">
	.st0{fill:#FD3C3E;}
	.st1{fill:#151515;}
</style>
<path class="st0" d="M58.2,7.4c0.9-4.3,7.1-4.3,8,0c0.8,3.7,5.8,4.5,7.6,1.1c2.1-3.9,8-2.2,7.7,2.3c-0.3,3.8,4.3,5.9,7,3.2
	c3.1-3.2,8.3,0.2,6.7,4.3c-1.4,3.6,2.5,6.9,5.8,5c3.9-2.1,7.9,2.5,5.2,6.1c-2.3,3,0.4,7.3,4.2,6.5c4.3-1,6.9,4.7,3.3,7.3
	c-3.1,2.3-1.6,7.1,2.2,7.4c4.4,0.3,5.3,6.4,1.1,7.9c-3.6,1.3-3.6,6.4,0,7.7c4.2,1.5,3.3,7.6-1.1,7.9c-3.8,0.2-5.2,5.1-2.2,7.4
	c3.6,2.6,1,8.3-3.3,7.3c-3.7-0.8-6.5,3.4-4.2,6.5c2.7,3.5-1.4,8.2-5.2,6.1c-3.3-1.9-7.2,1.5-5.8,5c1.6,4.1-3.6,7.5-6.7,4.3
	c-2.7-2.7-7.3-0.6-7,3.2c0.3,4.4-5.6,6.2-7.7,2.3c-1.8-3.4-6.8-2.6-7.6,1.1c-0.9,4.3-7.1,4.3-8,0c-0.8-3.7-5.8-4.5-7.6-1.1
	c-2.1,3.9-8,2.2-7.7-2.3c0.3-3.8-4.3-5.9-7-3.2c-3.1,3.2-8.3-0.2-6.7-4.3c1.4-3.6-2.5-6.9-5.8-5c-3.9,2.1-7.9-2.5-5.2-6.1
	c2.3-3-0.4-7.3-4.2-6.5c-4.3,1-6.9-4.7-3.3-7.3c3.1-2.3,1.6-7.1-2.2-7.4c-4.4-0.3-5.3-6.4-1.1-7.9c3.6-1.3,3.6-6.4,0-7.7
	c-4.2-1.5-3.3-7.6,1.1-7.9c3.8-0.2,5.2-5.1,2.2-7.4c-3.6-2.6-1-8.3,3.3-7.3c3.7,0.8,6.5-3.4,4.2-6.5c-2.7-3.5,1.4-8.2,5.2-6.1
	c3.3,1.9,7.2-1.5,5.8-5c-1.6-4.1,3.6-7.5,6.7-4.3c2.7,2.7,7.3,0.6,7-3.2c-0.3-4.4,5.6-6.2,7.7-2.3C52.4,11.8,57.4,11.1,58.2,7.4z"/>
<path class="st1" d="M46.5,67.1l2.3,0.4L51.2,54l-2.3-0.4l-1.1,6L39.3,58l1.1-6l-2.3-0.4l-2.5,13.5l2.3,0.4l1.1-6l8.5,1.6L46.5,67.1
	z M51.9,68.1L62.6,70l0.3-1.5L54.4,67l0.8-4.6l7.4,1.4l0.3-1.5L55.5,61l0.8-4.5l7.9,1.4l0.3-1.5l-10.2-1.9L51.9,68.1z M70.8,64.7
	l-1.2,6.6l2.3,0.4l1.2-6.6l7.4-5.8l-2.6-0.5l-5.6,4.4l-3.7-6.1l-2.6-0.5L70.8,64.7z M81.9,59.6L80.4,69l1.9,0.3l1.9-9.3L81.9,59.6z
	 M79.5,73.1l2.3,0.4l0.5-2.5l-2.3-0.4L79.5,73.1z"/>
</svg>
