<svg width="792" height="761" viewBox="0 0 792 761" fill="none" xmlns="http://www.w3.org/2000/svg">
<path d="M322.126 164.95C321.505 146.982 345.893 140.967 353.698 157.163C361.639 173.643 385.824 171.241 390.368 153.521C394.834 136.105 419.929 137.205 422.855 154.945C425.831 172.994 449.713 177.503 459.065 161.781C468.257 146.329 492.026 154.454 489.835 172.299C487.606 190.456 509.25 201.51 522.653 189.06C535.825 176.824 556.342 191.316 549.213 207.821C541.959 224.615 559.611 241.319 575.979 233.149C592.066 225.12 607.668 244.805 596.178 258.633C584.486 272.703 596.718 293.704 614.724 290.476C632.421 287.304 641.846 310.588 626.925 320.619C611.743 330.824 617.562 354.42 635.749 356.397C653.623 358.339 656.106 383.335 638.963 388.755C621.521 394.271 620.457 418.55 637.35 425.57C653.952 432.469 649.293 457.152 631.317 457.524C613.028 457.901 605.166 480.898 619.397 492.393C633.384 503.69 621.959 526.061 604.607 521.352C586.952 516.562 572.93 536.413 583.346 551.451C593.583 566.231 576.319 584.476 560.996 575.071C545.406 565.5 526.359 580.596 532.117 597.96C537.775 615.026 516.069 627.668 504.017 614.326C491.755 600.751 469.227 609.87 469.859 628.152C470.481 646.121 446.092 652.136 438.287 635.939C430.346 619.459 406.162 621.861 401.618 639.581C397.152 656.997 372.057 655.897 369.131 638.158C366.154 620.108 342.273 615.6 332.92 631.321C323.729 646.773 299.96 638.648 302.151 620.803C304.379 602.646 282.736 591.592 269.333 604.042C256.16 616.279 235.643 601.786 242.773 585.281C250.027 568.487 232.374 551.783 216.006 559.953C199.92 567.983 184.317 548.297 195.808 534.469C207.499 520.399 195.268 499.399 177.261 502.626C159.564 505.798 150.14 482.514 165.061 472.484C180.243 462.278 174.423 438.682 156.237 436.706C138.363 434.763 135.88 409.767 153.023 404.347C170.465 398.832 171.529 374.552 154.636 367.532C138.033 360.633 142.693 335.95 160.668 335.578C178.958 335.201 186.819 312.204 172.588 300.709C158.602 289.412 170.027 267.042 187.379 271.75C205.033 276.54 219.055 256.69 208.639 241.651C198.402 226.871 215.667 208.626 230.989 218.032C246.58 227.602 265.626 212.506 259.869 195.142C254.21 178.077 275.916 165.434 287.968 178.776C300.231 192.351 322.758 183.233 322.126 164.95Z" fill="#C4C4C4" stroke="#151515" stroke-width="3"/>
<path d="M227.125 419.559C231.349 419.559 241.237 414.855 241.237 401.847C241.237 389.847 230.245 381.639 218.149 381.639C202.933 381.639 191.989 391.911 191.989 406.887C191.989 421.095 202.405 430.887 217.765 430.887C226.885 430.887 234.325 426.903 239.125 419.991H236.101C232.357 425.271 225.253 428.487 218.293 428.487C204.613 428.487 195.301 419.943 195.301 406.359C195.301 393.351 206.245 384.087 217.621 384.087C228.949 384.087 238.789 390.951 238.789 402.903C238.789 408.663 235.477 413.079 232.165 415.479C230.629 416.583 229.621 417.063 228.709 417.063C227.653 417.063 227.509 416.103 227.749 414.999L232.693 392.919H229.429L225.637 397.863C225.637 397.863 224.773 392.247 217.573 392.247C209.605 392.247 200.869 399.255 200.869 409.911C200.869 414.999 203.557 420.231 210.997 420.231C219.013 420.231 222.661 413.223 222.661 413.223C222.661 417.975 223.669 419.559 227.125 419.559ZM213.781 415.959C209.317 415.959 207.109 412.743 207.109 408.903C207.109 401.511 212.581 396.519 218.245 396.519C224.005 396.519 225.973 400.983 224.581 406.263C223.141 411.543 218.821 415.959 213.781 415.959ZM244.141 386.343H259.981V419.559H266.077V386.343H281.917V382.263H244.141V386.343ZM286.242 382.263V419.559H292.482V382.263H286.242ZM329.997 419.559H337.197L317.517 397.143L334.317 382.263H326.637L307.341 399.927V382.263H301.101V419.559H307.341V406.119L313.437 400.695L329.997 419.559ZM338.172 386.343H354.012V419.559H360.108V386.343H375.948V382.263H338.172V386.343ZM418.994 400.935C418.994 389.703 410.45 381.591 397.202 381.591C383.954 381.591 375.458 389.703 375.458 400.935C375.458 412.119 383.954 420.231 397.202 420.231C410.45 420.231 418.994 412.119 418.994 400.935ZM412.418 400.935C412.418 409.143 406.274 415.479 397.202 415.479C388.178 415.479 382.034 409.143 382.034 400.935C382.034 392.679 388.178 386.343 397.202 386.343C406.274 386.343 412.418 392.679 412.418 400.935ZM455.107 419.559H462.307L442.627 397.143L459.427 382.263H451.747L432.451 399.927V382.263H426.211V419.559H432.451V406.119L438.547 400.695L455.107 419.559ZM463.281 386.343H479.121V419.559H485.217V386.343H501.057V382.263H463.281V386.343ZM505.383 382.263V419.559H511.623V382.263H505.383ZM520.242 382.263V419.559H526.482V402.471H536.082C547.602 402.471 552.834 399.207 552.834 392.343C552.834 385.479 547.602 382.263 536.082 382.263H520.242ZM526.482 398.391V386.343H536.082C541.842 386.343 546.258 387.543 546.258 392.343C546.258 397.143 541.842 398.391 536.082 398.391H526.482ZM570.501 396.711C566.373 395.799 563.925 394.551 563.925 391.719C563.925 388.551 567.141 386.343 572.181 386.343C583.413 386.343 582.741 394.455 582.741 394.455L589.173 392.727C589.173 392.727 588.789 381.591 572.469 381.591C562.005 381.591 557.445 386.679 557.445 392.295C557.445 396.759 560.565 400.311 566.949 401.799L576.021 403.911C581.493 405.207 584.469 406.263 584.469 409.863C584.469 412.935 580.869 415.479 574.821 415.479C560.997 415.479 562.149 405.063 562.149 405.063L555.717 406.935C555.957 411.975 560.421 420.231 574.965 420.231C583.989 420.231 590.949 416.583 590.949 409.575C590.949 404.727 588.117 400.647 580.005 398.823L570.501 396.711Z" fill="black"/>
</svg>
